{"glyphs":{"0":{"ha":715,"x_min":64,"x_max":652,"o":"m 350 -17 q 140 106 216 -17 q 64 465 64 230 q 143 857 64 725 q 371 989 223 989 q 652 490 652 989 q 572 113 652 242 q 350 -17 493 -17 m 366 932 q 191 817 254 932 q 129 473 129 703 q 189 152 129 264 q 358 40 248 40 q 526 154 466 40 q 586 481 586 269 q 366 932 586 932 z "},"1":{"ha":495,"x_min":56,"x_max":357,"o":"m 357 994 l 357 0 l 294 0 l 294 896 q 188 819 248 851 q 56 761 127 786 l 56 818 q 136 850 99 832 q 206 890 172 868 q 271 938 239 911 q 335 994 302 964 l 357 994 z "},"2":{"ha":715,"x_min":65,"x_max":616,"o":"m 65 0 l 65 45 q 73 127 65 91 q 95 194 80 163 q 133 251 111 224 q 186 305 156 278 q 255 360 216 332 q 338 421 293 388 q 421 484 382 453 q 488 551 459 515 q 533 630 516 587 q 549 729 549 673 q 496 879 549 825 q 347 932 443 932 q 221 903 281 932 q 103 824 161 875 l 103 897 q 223 964 159 940 q 357 989 288 989 q 463 971 416 989 q 544 921 511 954 q 596 842 578 888 q 614 739 614 796 q 595 620 614 672 q 543 526 576 568 q 465 448 509 484 q 371 377 420 412 q 260 294 305 330 q 186 223 214 258 q 145 152 157 189 q 132 67 132 115 l 132 57 l 616 57 l 616 0 l 65 0 z "},"3":{"ha":715,"x_min":78,"x_max":603,"o":"m 78 35 l 78 106 q 288 40 189 40 q 471 100 405 40 q 538 257 538 160 q 461 420 538 365 q 244 476 385 476 l 170 476 l 170 533 l 236 533 q 434 588 366 533 q 503 745 503 644 q 453 882 503 832 q 309 932 404 932 q 117 868 217 932 l 117 935 q 318 989 227 989 q 501 926 433 989 q 568 761 568 864 q 379 510 568 564 l 379 507 q 542 432 481 497 q 603 267 603 366 q 515 61 603 139 q 286 -17 427 -17 q 78 35 178 -17 z "},"4":{"ha":737,"x_min":34,"x_max":712,"o":"m 560 972 l 560 311 l 712 311 l 712 254 l 560 254 l 560 0 l 498 0 l 498 254 l 34 254 l 34 315 q 166 474 99 389 q 295 646 233 559 q 408 817 356 733 q 494 972 459 901 l 560 972 m 106 311 l 498 311 l 498 861 q 395 696 448 776 q 290 545 342 616 q 191 414 238 474 q 106 311 143 355 z "},"5":{"ha":715,"x_min":109,"x_max":613,"o":"m 109 20 l 109 92 q 294 40 202 40 q 481 106 414 40 q 548 281 548 172 q 277 518 548 518 q 138 510 216 518 l 167 972 l 572 972 l 572 916 l 222 916 l 200 570 q 300 575 270 575 q 534 499 454 575 q 613 289 613 424 q 529 68 613 153 q 289 -17 445 -17 q 109 20 186 -17 z "},"6":{"ha":715,"x_min":83,"x_max":659,"o":"m 603 965 l 603 899 q 460 932 534 932 q 330 896 387 932 q 231 796 272 861 q 169 643 191 732 q 147 446 147 553 l 150 446 q 393 608 221 608 q 502 585 453 608 q 586 522 551 562 q 640 426 621 481 q 659 309 659 372 q 637 178 659 238 q 577 75 616 119 q 485 7 538 32 q 368 -17 432 -17 q 248 12 301 -17 q 159 97 195 41 q 103 236 122 153 q 83 427 83 319 q 109 658 83 554 q 182 835 134 762 q 301 949 231 909 q 461 989 371 989 q 603 965 541 989 m 379 551 q 290 531 331 551 q 219 478 249 511 q 172 404 189 446 q 155 318 155 361 q 171 212 155 262 q 215 123 186 161 q 284 63 243 85 q 374 40 324 40 q 461 59 420 40 q 530 113 501 79 q 576 194 559 147 q 593 296 593 241 q 578 400 593 353 q 536 480 564 447 q 468 533 508 514 q 379 551 429 551 z "},"7":{"ha":693,"x_min":47,"x_max":646,"o":"m 199 0 q 256 242 220 125 q 339 471 292 359 q 443 693 387 583 q 562 916 499 804 l 47 916 l 47 972 l 646 972 l 646 949 q 517 708 577 824 q 409 477 458 591 q 325 245 361 362 q 269 0 289 128 l 199 0 z "},"8":{"ha":715,"x_min":73,"x_max":644,"o":"m 73 271 q 84 348 73 310 q 118 418 95 385 q 174 478 140 452 q 254 521 208 505 q 193 560 220 537 q 145 611 165 583 q 115 672 125 640 q 104 741 104 705 q 124 840 104 794 q 177 918 143 885 q 258 970 211 951 q 359 989 304 989 q 460 970 414 989 q 541 918 507 951 q 594 839 575 884 q 613 741 613 793 q 603 672 613 705 q 573 611 592 640 q 527 560 554 583 q 467 521 500 537 q 545 478 511 505 q 600 418 578 452 q 633 348 623 385 q 644 271 644 310 q 623 150 644 203 q 565 60 602 97 q 474 4 527 23 q 358 -16 422 -16 q 243 4 296 -16 q 153 60 191 23 q 94 150 115 96 q 73 271 73 203 m 137 264 q 153 172 137 214 q 198 101 170 131 q 268 56 227 72 q 357 40 308 40 q 446 56 405 40 q 516 101 486 72 q 562 172 545 131 q 578 264 578 214 q 562 351 578 310 q 518 422 547 391 q 448 470 489 452 q 357 488 407 488 q 270 472 310 488 q 200 426 229 455 q 154 355 170 396 q 137 264 137 313 m 171 739 q 185 663 171 698 q 225 602 200 628 q 285 562 251 576 q 358 547 319 547 q 431 562 397 547 q 491 603 466 576 q 532 664 517 629 q 547 739 547 699 q 532 815 547 780 q 492 877 517 850 q 432 917 467 903 q 358 932 398 932 q 282 917 316 932 q 223 875 248 901 q 184 814 198 849 q 171 739 171 779 z "},"9":{"ha":715,"x_min":69,"x_max":644,"o":"m 121 8 l 121 77 q 264 40 199 40 q 498 163 418 40 q 579 526 579 286 l 576 526 q 338 370 509 370 q 228 392 277 370 q 143 454 179 414 q 89 548 108 494 q 69 668 69 603 q 91 799 69 740 q 153 900 113 858 q 246 965 192 942 q 363 989 300 989 q 479 961 427 989 q 568 879 532 934 q 625 741 605 823 q 644 549 644 659 q 620 308 644 413 q 547 131 595 203 q 427 21 498 58 q 262 -17 356 -17 q 121 8 190 -17 m 354 932 q 266 913 307 932 q 197 860 226 894 q 151 781 168 827 q 135 681 135 734 q 151 575 135 622 q 195 495 167 528 q 264 444 224 462 q 353 427 304 427 q 437 445 397 427 q 507 493 477 463 q 554 563 536 523 q 571 648 571 604 q 555 762 571 710 q 510 852 539 814 q 441 911 481 890 q 354 932 401 932 z "},"\r":{"ha":135,"x_min":0,"x_max":0,"o":""}," ":{"ha":380,"x_min":0,"x_max":0,"o":""},"!":{"ha":395,"x_min":143,"x_max":253,"o":"m 225 273 l 167 273 l 160 972 l 232 972 l 225 273 m 197 -12 q 159 4 174 -12 q 143 43 143 20 q 159 82 143 66 q 197 97 174 97 q 237 82 220 97 q 253 43 253 66 q 237 4 253 20 q 197 -12 220 -12 z "},"\"":{"ha":465,"x_min":120,"x_max":347,"o":"m 347 668 l 288 668 l 288 972 l 347 972 l 347 668 m 178 668 l 120 668 l 120 972 l 178 972 l 178 668 z "},"#":{"ha":839,"x_min":36,"x_max":778,"o":"m 765 642 l 581 642 l 529 407 l 722 407 l 710 354 l 518 354 l 460 83 l 406 83 l 464 354 l 282 354 l 224 83 l 170 83 l 228 354 l 36 354 l 49 407 l 239 407 l 290 642 l 92 642 l 104 694 l 301 694 l 361 972 l 415 972 l 355 694 l 538 694 l 597 972 l 652 972 l 591 694 l 778 694 l 765 642 m 345 642 l 293 407 l 475 407 l 526 642 l 345 642 z "},"$":{"ha":715,"x_min":110,"x_max":606,"o":"m 385 3 l 385 -142 l 332 -142 l 332 0 q 110 54 204 0 l 110 123 q 332 57 213 57 l 332 463 q 154 594 198 539 q 110 726 110 650 q 170 887 110 819 q 332 971 229 956 l 332 1095 l 385 1095 l 385 972 q 561 943 488 972 l 561 873 q 385 914 491 914 l 385 503 q 557 377 509 434 q 606 241 606 319 q 548 82 606 146 q 385 3 490 18 m 332 913 q 217 853 259 901 q 175 734 175 805 q 206 631 175 675 q 332 533 237 587 l 332 913 m 385 431 l 385 58 q 501 118 462 72 q 541 229 541 163 q 508 335 541 292 q 385 431 475 378 z "},"%":{"ha":1089,"x_min":56,"x_max":1040,"o":"m 281 494 q 116 563 176 494 q 56 741 56 631 q 120 925 56 859 q 288 991 184 991 q 449 926 389 991 q 509 742 509 860 q 447 565 509 636 q 281 494 385 494 m 286 936 q 163 884 208 936 q 118 739 118 832 q 162 600 118 652 q 282 549 205 549 q 403 602 359 549 q 447 743 447 654 q 404 887 447 839 q 286 936 360 936 m 282 -22 l 215 -22 l 800 971 l 865 971 l 282 -22 m 812 -17 q 648 52 709 -17 q 587 229 587 120 q 652 415 587 349 q 819 481 718 481 q 981 414 921 481 q 1040 231 1040 348 q 978 54 1040 125 q 812 -17 916 -17 m 818 425 q 695 372 741 425 q 650 228 650 319 q 693 89 650 140 q 814 37 737 37 q 936 90 892 37 q 979 232 979 142 q 936 376 979 328 q 818 425 892 425 z "},"&":{"ha":968,"x_min":96,"x_max":951,"o":"m 854 0 l 724 127 q 399 -17 587 -17 q 176 57 256 -17 q 96 244 96 130 q 321 532 96 431 q 211 764 211 659 q 278 923 211 858 q 450 989 345 989 q 603 933 547 989 q 659 793 659 878 q 602 634 659 700 q 425 514 546 569 q 724 220 527 406 q 814 514 808 346 l 879 514 q 766 176 874 333 q 951 -1 882 62 l 854 0 m 382 558 q 546 663 500 610 q 593 785 593 715 q 550 892 593 852 q 444 932 507 932 q 322 883 368 932 q 277 762 277 833 q 382 558 277 675 m 682 170 q 364 488 457 387 q 161 249 161 399 q 226 99 161 157 q 404 40 291 40 q 682 170 559 40 z "},"'":{"ha":297,"x_min":120,"x_max":178,"o":"m 178 668 l 120 668 l 120 972 l 178 972 l 178 668 z "},"(":{"ha":392,"x_min":102,"x_max":376,"o":"m 307 -221 q 102 370 102 19 q 310 972 102 736 l 376 972 q 164 371 164 728 q 374 -221 164 34 l 307 -221 z "},")":{"ha":392,"x_min":16,"x_max":290,"o":"m 85 -221 l 18 -221 q 228 371 228 34 q 16 972 228 728 l 82 972 q 290 370 290 734 q 85 -221 290 18 z "},"*":{"ha":564,"x_min":47,"x_max":517,"o":"m 318 713 l 453 532 l 401 497 l 283 685 l 163 497 l 113 532 l 248 713 l 47 764 l 65 822 l 261 753 l 250 972 l 314 972 l 304 753 l 498 822 l 517 764 l 318 713 z "},"+":{"ha":903,"x_min":144,"x_max":760,"o":"m 481 376 l 481 97 l 424 97 l 424 376 l 144 376 l 144 433 l 424 433 l 424 713 l 481 713 l 481 433 l 760 433 l 760 376 l 481 376 z "},",":{"ha":309,"x_min":32,"x_max":203,"o":"m 85 -168 l 32 -168 l 134 154 l 203 154 l 85 -168 z "},"-":{"ha":553,"x_min":98,"x_max":469,"o":"m 98 376 l 98 437 l 469 437 l 469 376 l 98 376 z "},".":{"ha":309,"x_min":100,"x_max":210,"o":"m 154 -12 q 115 4 131 -12 q 100 43 100 20 q 115 82 100 66 q 154 97 131 97 q 193 82 177 97 q 210 43 210 66 q 193 4 210 20 q 154 -12 177 -12 z "},"/":{"ha":509,"x_min":-20,"x_max":515,"o":"m 43 -161 l -20 -161 l 450 972 l 515 972 l 43 -161 z "},":":{"ha":309,"x_min":100,"x_max":210,"o":"m 154 597 q 115 614 131 597 q 100 653 100 630 q 115 691 100 676 q 154 707 131 707 q 193 691 177 707 q 210 653 210 676 q 193 614 210 630 q 154 597 177 597 m 154 -12 q 115 4 131 -12 q 100 43 100 20 q 115 82 100 66 q 154 97 131 97 q 193 82 177 97 q 210 43 210 66 q 193 4 210 20 q 154 -12 177 -12 z "},";":{"ha":309,"x_min":32,"x_max":215,"o":"m 160 597 q 121 614 136 597 q 106 653 106 630 q 121 691 106 676 q 160 707 136 707 q 199 691 183 707 q 215 653 215 676 q 199 614 215 630 q 160 597 183 597 m 85 -168 l 32 -168 l 134 154 l 203 154 l 85 -168 z "},"<":{"ha":903,"x_min":170,"x_max":734,"o":"m 170 393 l 170 406 l 734 722 l 734 659 l 275 401 l 275 399 l 734 172 l 734 107 l 170 393 z "},"=":{"ha":903,"x_min":144,"x_max":760,"o":"m 144 509 l 144 566 l 760 566 l 760 509 l 144 509 m 144 245 l 144 302 l 760 302 l 760 245 l 144 245 z "},">":{"ha":903,"x_min":170,"x_max":734,"o":"m 170 107 l 170 172 l 629 399 l 629 401 l 170 659 l 170 722 l 734 406 l 734 393 l 170 107 z "},"?":{"ha":597,"x_min":81,"x_max":536,"o":"m 256 270 q 244 314 249 287 q 239 369 239 342 q 247 427 239 401 q 271 476 256 453 q 308 521 286 499 q 355 565 329 543 q 397 606 376 585 q 435 652 418 627 q 461 705 451 676 q 471 768 471 734 q 458 835 471 806 q 423 885 446 865 q 369 917 401 906 q 300 928 338 928 q 182 905 236 928 q 81 844 128 883 l 81 917 q 182 971 129 954 q 300 989 235 989 q 394 975 351 989 q 468 933 437 960 q 518 866 500 905 q 536 775 536 826 q 525 705 536 736 q 497 646 514 673 q 457 595 479 618 q 412 549 435 571 q 353 491 376 515 q 317 449 330 468 q 299 412 304 430 q 294 370 294 394 q 300 313 294 338 q 311 270 305 288 l 256 270 m 279 -12 q 241 4 256 -12 q 226 43 226 20 q 241 82 226 66 q 279 97 256 97 q 319 82 303 97 q 335 43 335 66 q 319 4 335 20 q 279 -12 303 -12 z "},"@":{"ha":1311,"x_min":114,"x_max":1198,"o":"m 782 289 l 779 289 q 581 127 718 127 q 430 196 486 127 q 375 378 375 264 q 452 634 375 532 q 656 737 530 737 q 749 710 709 737 q 802 647 789 683 l 804 647 q 811 728 807 688 l 871 728 l 836 332 q 940 184 836 184 q 1079 269 1024 184 q 1133 488 1133 354 q 1010 811 1133 690 q 667 932 888 932 q 315 784 451 932 q 179 418 179 636 q 309 63 179 196 q 661 -71 438 -71 q 950 -11 830 -71 l 950 -74 q 654 -127 817 -127 q 262 24 410 -127 q 114 418 114 175 q 274 825 114 661 q 673 989 433 989 q 1055 849 911 989 q 1198 494 1198 709 q 1125 231 1198 334 q 943 127 1053 127 q 782 289 793 127 m 653 681 q 498 600 555 681 q 440 383 440 518 q 479 238 440 292 q 587 184 518 184 q 734 279 680 184 q 789 519 789 373 q 752 640 789 599 q 653 681 716 681 z "},"A":{"ha":873,"x_min":40,"x_max":833,"o":"m 758 0 l 647 302 l 225 302 l 114 0 l 40 0 l 407 972 l 471 972 l 833 0 l 758 0 m 460 814 q 448 854 452 834 q 437 888 443 871 l 435 888 q 412 815 423 843 l 249 364 l 624 364 l 460 814 z "},"B":{"ha":755,"x_min":125,"x_max":677,"o":"m 125 0 l 125 972 l 380 972 q 563 911 495 972 q 631 747 631 849 q 586 601 631 663 q 460 513 541 538 l 460 510 q 619 438 561 500 q 677 278 677 375 q 598 78 677 155 q 386 0 519 0 l 125 0 m 192 911 l 192 534 l 328 534 q 497 589 433 534 q 561 736 561 643 q 354 911 561 911 l 192 911 m 192 473 l 192 61 l 372 61 q 548 116 487 61 q 608 272 608 171 q 335 473 608 473 l 192 473 z "},"C":{"ha":863,"x_min":74,"x_max":771,"o":"m 771 32 q 525 -17 653 -17 q 200 117 326 -17 q 74 467 74 251 q 210 846 74 703 q 557 989 347 989 q 771 953 669 989 l 771 882 q 555 928 669 928 q 258 804 372 928 q 143 473 143 680 q 253 160 143 275 q 530 45 362 45 q 771 97 665 45 l 771 32 z "},"D":{"ha":936,"x_min":125,"x_max":863,"o":"m 125 0 l 125 972 l 368 972 q 736 852 610 972 q 863 500 863 731 q 727 139 863 277 q 354 0 592 0 l 125 0 m 192 911 l 192 61 l 345 61 q 677 173 561 61 q 793 497 793 286 q 358 911 793 911 l 192 911 z "},"E":{"ha":694,"x_min":125,"x_max":602,"o":"m 125 0 l 125 972 l 579 972 l 579 911 l 192 911 l 192 521 l 551 521 l 551 460 l 192 460 l 192 61 l 602 61 l 602 0 l 125 0 z "},"F":{"ha":646,"x_min":125,"x_max":579,"o":"m 192 911 l 192 514 l 551 514 l 551 453 l 192 453 l 192 0 l 125 0 l 125 972 l 579 972 l 579 911 l 192 911 z "},"G":{"ha":928,"x_min":74,"x_max":828,"o":"m 828 68 q 518 -17 677 -17 q 197 118 319 -17 q 74 472 74 253 q 206 841 74 693 q 559 989 338 989 q 808 937 688 989 l 808 864 q 550 928 676 928 q 255 802 366 928 q 143 482 143 677 q 248 161 143 277 q 530 45 353 45 q 761 102 662 45 l 761 422 l 532 422 l 532 484 l 828 484 l 828 68 z "},"H":{"ha":940,"x_min":125,"x_max":815,"o":"m 749 0 l 749 467 l 192 467 l 192 0 l 125 0 l 125 972 l 192 972 l 192 528 l 749 528 l 749 972 l 815 972 l 815 0 l 749 0 z "},"I":{"ha":317,"x_min":125,"x_max":192,"o":"m 125 0 l 125 972 l 192 972 l 192 0 l 125 0 z "},"J":{"ha":450,"x_min":12,"x_max":330,"o":"m 330 335 q 86 -17 330 -17 q 12 -7 48 -17 l 12 58 q 87 45 52 45 q 222 116 181 45 q 264 336 264 186 l 264 972 l 330 972 l 330 335 z "},"K":{"ha":732,"x_min":125,"x_max":720,"o":"m 625 0 l 211 465 q 195 488 199 478 l 192 488 l 192 0 l 125 0 l 125 972 l 192 972 l 192 514 l 195 514 q 212 538 203 528 l 606 972 l 693 972 l 267 501 l 720 0 l 625 0 z "},"L":{"ha":636,"x_min":125,"x_max":582,"o":"m 125 0 l 125 972 l 192 972 l 192 61 l 582 61 l 582 0 l 125 0 z "},"M":{"ha":1157,"x_min":125,"x_max":1032,"o":"m 968 0 l 968 690 q 975 833 968 715 l 972 833 q 937 749 951 779 l 591 0 l 570 0 l 222 745 q 191 836 205 781 l 187 836 q 192 707 192 771 l 192 0 l 125 0 l 125 972 l 187 972 l 550 189 q 557 171 553 182 q 566 148 562 159 q 581 109 573 130 l 585 109 l 592 130 q 615 195 593 133 l 972 972 l 1032 972 l 1032 0 l 968 0 z "},"N":{"ha":985,"x_min":125,"x_max":860,"o":"m 812 0 l 233 786 q 202 833 216 810 l 193 847 l 191 847 q 192 804 192 829 l 192 0 l 125 0 l 125 972 l 176 972 l 751 193 q 793 131 770 168 l 796 131 q 793 212 793 178 l 793 972 l 860 972 l 860 0 l 812 0 z "},"O":{"ha":1057,"x_min":74,"x_max":983,"o":"m 525 -17 q 196 120 319 -17 q 74 476 74 257 q 200 849 74 709 q 543 989 326 989 q 862 854 740 989 q 983 501 983 720 q 859 121 983 260 q 525 -17 734 -17 m 532 928 q 253 805 362 928 q 143 484 143 682 q 247 164 143 283 q 524 45 351 45 q 809 162 704 45 q 914 490 914 280 q 811 812 914 696 q 532 928 709 928 z "},"P":{"ha":755,"x_min":125,"x_max":668,"o":"m 192 390 l 192 0 l 125 0 l 125 972 l 359 972 q 589 903 509 972 q 668 700 668 833 q 579 477 668 564 q 332 390 491 390 l 192 390 m 192 911 l 192 452 l 330 452 q 530 514 462 452 q 599 692 599 577 q 347 911 599 911 l 192 911 z "},"Q":{"ha":1047,"x_min":74,"x_max":1008,"o":"m 525 -17 q 196 120 319 -17 q 74 476 74 257 q 200 849 74 709 q 543 989 326 989 q 862 854 740 989 q 983 501 983 720 q 859 121 983 260 q 772 49 820 78 l 1008 -131 l 895 -131 l 711 17 q 525 -17 629 -17 m 532 928 q 253 805 362 928 q 143 484 143 682 q 247 164 143 283 q 524 45 351 45 q 809 162 704 45 q 914 490 914 280 q 811 812 914 696 q 532 928 709 928 z "},"R":{"ha":771,"x_min":125,"x_max":699,"o":"m 623 0 l 493 285 q 413 403 453 373 q 313 433 373 433 l 192 433 l 192 0 l 125 0 l 125 972 l 395 972 q 597 903 524 972 q 671 720 671 833 q 610 544 671 614 q 441 453 550 473 l 441 450 q 554 310 499 427 l 699 0 l 623 0 m 192 911 l 192 494 l 359 494 q 536 553 471 494 q 602 713 602 611 q 543 858 602 806 q 374 911 484 911 l 192 911 z "},"S":{"ha":690,"x_min":94,"x_max":607,"o":"m 94 35 l 94 111 q 306 45 199 45 q 479 92 420 45 q 538 224 538 139 q 498 343 538 298 q 326 464 458 387 q 139 608 178 550 q 100 742 100 666 q 180 917 100 845 q 393 989 260 989 q 567 960 480 989 l 567 889 q 385 928 481 928 q 228 878 286 928 q 170 750 170 827 q 209 631 170 675 q 380 511 249 587 q 562 374 517 434 q 607 236 607 314 q 529 54 607 124 q 310 -17 452 -17 q 194 -1 260 -17 q 94 35 129 14 z "},"T":{"ha":710,"x_min":41,"x_max":669,"o":"m 389 911 l 389 0 l 322 0 l 322 911 l 41 911 l 41 972 l 669 972 l 669 911 l 389 911 z "},"U":{"ha":900,"x_min":113,"x_max":787,"o":"m 787 389 q 441 -17 787 -17 q 113 374 113 -17 l 113 972 l 179 972 l 179 383 q 454 45 179 45 q 721 374 721 45 l 721 972 l 787 972 l 787 389 z "},"V":{"ha":839,"x_min":28,"x_max":811,"o":"m 433 0 l 383 0 l 28 972 l 103 972 l 385 189 q 410 97 402 140 l 412 97 q 440 191 419 132 l 739 972 l 811 972 l 433 0 z "},"W":{"ha":1243,"x_min":35,"x_max":1208,"o":"m 924 0 l 868 0 l 652 732 q 633 823 635 788 l 631 823 q 610 733 629 793 l 379 0 l 323 0 l 35 972 l 110 972 l 332 193 q 353 107 347 140 l 355 107 q 379 193 359 132 l 619 972 l 653 972 l 873 193 q 895 107 889 139 l 897 107 q 908 151 901 126 l 1136 972 l 1208 972 l 924 0 z "},"X":{"ha":782,"x_min":41,"x_max":733,"o":"m 652 0 l 428 371 q 392 439 407 406 l 389 439 q 350 371 370 401 l 122 0 l 41 0 l 349 490 l 60 972 l 140 972 l 358 607 q 393 542 375 578 l 396 542 l 432 607 l 648 972 l 726 972 l 435 492 l 733 0 l 652 0 z "},"Y":{"ha":750,"x_min":41,"x_max":720,"o":"m 406 370 l 406 0 l 339 0 l 339 368 l 41 972 l 117 972 l 343 504 q 374 432 355 479 l 376 432 q 410 503 386 457 l 647 972 l 720 972 l 406 370 z "},"Z":{"ha":791,"x_min":45,"x_max":737,"o":"m 146 61 l 728 61 l 728 0 l 45 0 l 45 21 l 633 911 l 92 911 l 92 972 l 737 972 l 737 954 l 146 61 z "},"[":{"ha":392,"x_min":142,"x_max":357,"o":"m 142 -221 l 142 972 l 357 972 l 357 916 l 204 916 l 204 -164 l 357 -164 l 357 -221 l 142 -221 z "},"\\":{"ha":509,"x_min":-20,"x_max":515,"o":"m 453 -161 l -20 972 l 46 972 l 515 -161 l 453 -161 z "},"]":{"ha":392,"x_min":35,"x_max":250,"o":"m 35 -221 l 35 -164 l 187 -164 l 187 916 l 35 916 l 35 972 l 250 972 l 250 -221 l 35 -221 z "},"^":{"ha":903,"x_min":176,"x_max":726,"o":"m 661 476 l 453 892 l 450 892 l 241 476 l 176 476 l 437 989 l 465 989 l 726 476 l 661 476 z "},"_":{"ha":576,"x_min":0,"x_max":576,"o":"m 0 -182 l 0 -121 l 576 -121 l 576 -182 l 0 -182 z "},"`":{"ha":345,"x_min":52,"x_max":281,"o":"m 220 806 l 52 1028 l 122 1028 l 281 806 l 220 806 z "},"a":{"ha":686,"x_min":72,"x_max":589,"o":"m 526 0 l 526 139 l 524 139 q 427 25 490 68 q 286 -17 363 -17 q 130 39 187 -17 q 72 179 72 94 q 313 399 72 361 l 526 431 q 358 654 526 654 q 135 562 243 654 l 135 637 q 240 690 174 668 q 364 711 306 711 q 530 645 471 711 q 589 452 589 578 l 589 0 l 526 0 m 335 346 q 182 295 226 330 q 138 182 138 260 q 179 80 138 120 q 293 40 220 40 q 460 114 393 40 q 526 306 526 189 l 526 374 l 335 346 z "},"b":{"ha":778,"x_min":111,"x_max":717,"o":"m 176 123 l 174 123 l 174 0 l 111 0 l 111 1028 l 174 1028 l 174 551 l 176 551 q 283 670 214 628 q 436 711 353 711 q 643 620 568 711 q 717 372 717 529 q 631 91 717 198 q 407 -17 545 -17 q 176 123 251 -17 m 174 382 l 174 294 q 239 115 174 190 q 412 40 305 40 q 585 131 519 40 q 652 371 652 222 q 591 578 652 501 q 428 654 530 654 q 240 573 307 654 q 174 382 174 492 z "},"c":{"ha":616,"x_min":61,"x_max":564,"o":"m 561 31 q 376 -17 484 -17 q 148 80 235 -17 q 61 335 61 178 q 159 606 61 500 q 410 711 256 711 q 564 679 489 711 l 564 608 q 400 654 489 654 q 202 567 278 654 q 126 339 126 479 q 196 122 126 204 q 379 40 265 40 q 561 96 484 40 l 561 31 z "},"d":{"ha":778,"x_min":61,"x_max":667,"o":"m 604 0 l 604 126 l 602 126 q 501 22 568 60 q 351 -17 435 -17 q 142 77 223 -17 q 61 335 61 170 q 150 607 61 503 q 379 711 238 711 q 602 583 535 711 l 604 583 l 604 1028 l 667 1028 l 667 0 l 604 0 m 604 422 q 543 587 604 519 q 378 654 481 654 q 197 571 269 654 q 126 340 126 487 q 190 118 126 197 q 355 40 254 40 q 539 114 474 40 q 604 293 604 187 l 604 422 z "},"e":{"ha":701,"x_min":61,"x_max":640,"o":"m 126 345 q 192 121 126 201 q 374 40 258 40 q 602 126 490 40 l 602 60 q 361 -17 494 -17 q 144 79 227 -17 q 61 351 61 176 q 148 607 61 503 q 372 711 234 711 q 571 621 502 711 q 640 372 640 530 l 640 345 l 126 345 m 575 401 q 517 588 571 522 q 370 654 464 654 q 208 589 272 654 q 129 401 144 524 l 575 401 z "},"f":{"ha":383,"x_min":24,"x_max":415,"o":"m 415 962 q 339 982 390 982 q 211 810 211 982 l 211 694 l 395 694 l 395 637 l 211 637 l 211 0 l 149 0 l 149 637 l 24 637 l 24 694 l 149 694 l 149 815 q 204 982 149 925 q 342 1039 259 1039 q 415 1026 386 1039 l 415 962 z "},"g":{"ha":778,"x_min":61,"x_max":667,"o":"m 667 52 q 581 -235 667 -144 q 315 -326 496 -326 q 109 -273 215 -326 l 109 -208 q 317 -269 218 -269 q 604 35 604 -269 l 604 125 l 602 125 q 351 -17 519 -17 q 142 76 223 -17 q 61 335 61 169 q 149 606 61 501 q 379 711 236 711 q 602 585 532 711 l 604 585 l 604 694 l 667 694 l 667 52 m 604 428 q 542 587 604 520 q 380 654 480 654 q 196 568 266 654 q 126 340 126 482 q 190 119 126 198 q 359 40 254 40 q 538 113 471 40 q 604 290 604 185 l 604 428 z "},"h":{"ha":743,"x_min":111,"x_max":646,"o":"m 583 0 l 583 416 q 538 597 583 540 q 399 654 494 654 q 241 585 309 654 q 174 385 174 515 l 174 0 l 111 0 l 111 1028 l 174 1028 l 174 570 l 176 570 q 415 711 258 711 q 587 639 528 711 q 646 431 646 566 l 646 0 l 583 0 z "},"i":{"ha":285,"x_min":90,"x_max":195,"o":"m 142 869 q 106 884 121 869 q 90 922 90 899 q 106 959 90 945 q 142 972 122 972 q 179 959 163 972 q 195 922 195 945 q 179 885 195 901 q 142 869 163 869 m 111 0 l 111 694 l 174 694 l 174 0 l 111 0 z "},"j":{"ha":285,"x_min":-171,"x_max":195,"o":"m 142 869 q 106 884 121 869 q 90 922 90 899 q 106 959 90 945 q 142 972 122 972 q 179 959 163 972 q 195 922 195 945 q 179 885 195 901 q 142 869 163 869 m 174 20 q -72 -326 174 -326 q -171 -302 -121 -326 l -171 -237 q -65 -269 -117 -269 q 111 8 111 -269 l 111 694 l 174 694 l 174 20 z "},"k":{"ha":616,"x_min":111,"x_max":599,"o":"m 509 0 l 176 343 l 174 343 l 174 0 l 111 0 l 111 1028 l 174 1028 l 174 366 l 176 366 l 492 694 l 572 694 l 243 358 l 599 0 l 509 0 z "},"l":{"ha":285,"x_min":111,"x_max":174,"o":"m 111 0 l 111 1028 l 174 1028 l 174 0 l 111 0 z "},"m":{"ha":1141,"x_min":111,"x_max":1044,"o":"m 982 0 l 982 418 q 941 602 982 549 q 811 654 900 654 q 669 584 729 654 q 610 407 610 513 l 610 0 l 547 0 l 547 422 q 371 654 547 654 q 230 584 286 654 q 174 400 174 513 l 174 0 l 111 0 l 111 694 l 174 694 l 174 579 l 176 579 q 389 711 249 711 q 518 668 465 711 q 591 553 572 624 q 685 670 624 628 q 817 711 745 711 q 1044 429 1044 711 l 1044 0 l 982 0 z "},"n":{"ha":743,"x_min":111,"x_max":646,"o":"m 583 0 l 583 404 q 403 654 583 654 q 238 581 302 654 q 174 399 174 507 l 174 0 l 111 0 l 111 694 l 174 694 l 174 568 l 176 568 q 414 711 252 711 q 586 636 526 711 q 646 422 646 562 l 646 0 l 583 0 z "},"o":{"ha":779,"x_min":61,"x_max":718,"o":"m 390 -17 q 150 83 238 -17 q 61 343 61 183 q 154 614 61 516 q 397 711 246 711 q 632 614 546 711 q 718 346 718 517 q 630 83 718 184 q 390 -17 543 -17 m 395 654 q 199 572 272 654 q 126 342 126 489 q 197 123 126 205 q 392 40 269 40 q 585 121 517 40 q 653 347 653 203 q 586 575 653 496 q 395 654 518 654 z "},"p":{"ha":778,"x_min":111,"x_max":717,"o":"m 176 123 l 174 123 l 174 -319 l 111 -319 l 111 694 l 174 694 l 174 551 l 176 551 q 283 670 214 628 q 436 711 353 711 q 643 620 568 711 q 717 372 717 529 q 632 91 717 198 q 407 -17 547 -17 q 176 123 251 -17 m 174 382 l 174 294 q 239 115 174 190 q 412 40 305 40 q 585 131 519 40 q 652 371 652 222 q 591 578 652 501 q 428 654 530 654 q 240 573 307 654 q 174 382 174 492 z "},"q":{"ha":778,"x_min":61,"x_max":667,"o":"m 604 -319 l 604 127 l 602 127 q 350 -17 524 -17 q 140 79 220 -17 q 61 336 61 174 q 151 610 61 509 q 380 711 241 711 q 602 582 536 711 l 604 582 l 604 694 l 667 694 l 667 -319 l 604 -319 m 604 416 q 544 587 604 520 q 376 654 484 654 q 197 571 269 654 q 126 339 126 488 q 190 120 126 199 q 354 40 253 40 q 540 115 475 40 q 604 297 604 189 l 604 416 z "},"r":{"ha":458,"x_min":111,"x_max":439,"o":"m 439 629 q 366 652 408 652 q 228 567 283 652 q 172 326 172 482 l 172 0 l 111 0 l 111 694 l 172 694 l 172 541 l 175 541 q 250 664 199 620 q 370 708 302 708 q 439 696 408 708 l 439 629 z "},"s":{"ha":539,"x_min":75,"x_max":476,"o":"m 75 31 l 75 106 q 161 58 111 75 q 248 40 211 40 q 411 174 411 40 q 375 252 411 220 q 258 319 339 285 q 118 409 159 363 q 78 522 78 456 q 143 659 78 607 q 302 711 208 711 q 456 675 392 711 l 456 604 q 296 654 378 654 q 185 619 227 654 q 143 526 143 583 q 170 446 143 477 q 286 375 196 415 q 435 284 395 326 q 476 174 476 243 q 414 37 476 91 q 243 -17 352 -17 q 75 31 142 -17 z "},"t":{"ha":412,"x_min":16,"x_max":386,"o":"m 386 9 q 294 -14 337 -14 q 140 171 140 -14 l 140 637 l 16 637 l 16 694 l 140 694 l 140 875 q 172 886 155 880 q 203 896 188 890 l 203 694 l 386 694 l 386 637 l 203 637 l 203 179 q 225 75 203 107 q 302 43 248 43 q 386 68 341 43 l 386 9 z "},"u":{"ha":743,"x_min":97,"x_max":632,"o":"m 570 0 l 570 126 l 567 126 q 343 -17 494 -17 q 97 293 97 -17 l 97 694 l 160 694 l 160 309 q 207 104 160 168 q 353 40 253 40 q 510 111 450 40 q 570 301 570 182 l 570 694 l 632 694 l 632 0 l 570 0 z "},"v":{"ha":629,"x_min":14,"x_max":615,"o":"m 339 0 l 282 0 l 14 694 l 83 694 l 290 142 q 311 69 305 102 l 314 69 q 334 139 323 112 l 547 694 l 615 694 l 339 0 z "},"w":{"ha":940,"x_min":25,"x_max":916,"o":"m 700 0 l 642 0 l 490 524 q 479 582 484 545 l 476 582 q 463 525 475 566 l 293 0 l 235 0 l 25 694 l 94 694 l 256 140 q 265 82 262 119 l 271 82 q 283 140 272 102 l 460 694 l 503 694 l 660 140 q 669 82 665 121 l 675 82 q 686 140 675 102 l 851 694 l 916 694 l 700 0 z "},"x":{"ha":585,"x_min":22,"x_max":562,"o":"m 326 340 l 553 0 l 473 0 l 290 293 l 288 293 l 263 254 q 252 236 258 246 l 98 0 l 22 0 l 254 339 l 26 694 l 100 694 l 254 446 q 290 386 284 397 l 293 386 l 328 443 l 489 694 l 562 694 l 326 340 z "},"y":{"ha":629,"x_min":14,"x_max":619,"o":"m 281 -142 q 197 -281 243 -235 q 78 -326 151 -326 q 24 -317 47 -326 l 24 -254 q 81 -264 48 -264 q 212 -149 164 -264 l 277 5 l 14 694 l 83 694 l 293 129 q 302 101 300 111 q 309 78 305 88 l 311 78 l 328 125 l 551 694 l 619 694 l 281 -142 z "},"z":{"ha":644,"x_min":39,"x_max":606,"o":"m 140 57 l 589 57 l 589 0 l 39 0 l 39 24 l 500 637 l 72 637 l 72 694 l 606 694 l 606 677 l 140 57 z "},"{":{"ha":392,"x_min":64,"x_max":343,"o":"m 343 -221 q 213 -172 257 -218 q 170 -24 170 -127 l 170 178 q 64 354 170 338 l 64 397 q 170 562 170 412 l 170 775 q 213 924 170 878 q 343 972 257 969 l 343 916 q 259 877 283 912 q 235 755 235 842 l 235 557 q 136 376 235 406 l 136 374 q 235 183 235 342 l 235 -4 q 259 -125 235 -90 q 343 -164 283 -161 l 343 -221 z "},"|":{"ha":314,"x_min":125,"x_max":189,"o":"m 125 -326 l 125 1063 l 189 1063 l 189 -326 l 125 -326 z "},"}":{"ha":392,"x_min":49,"x_max":328,"o":"m 328 354 q 222 178 222 338 l 222 -24 q 179 -173 222 -127 q 49 -221 135 -218 l 49 -164 q 131 -128 104 -161 q 157 -4 157 -96 l 157 183 q 256 374 157 342 l 256 376 q 157 557 157 407 l 157 755 q 131 880 157 847 q 49 916 104 912 l 49 972 q 179 924 135 969 q 222 775 222 879 l 222 562 q 328 397 222 412 l 328 354 z "},"~":{"ha":903,"x_min":167,"x_max":737,"o":"m 737 482 q 691 361 732 405 q 579 318 649 318 q 443 375 515 318 q 323 432 372 432 q 220 325 228 432 l 167 325 q 213 445 171 401 q 325 489 255 489 q 457 435 389 489 q 528 386 505 397 q 582 374 552 374 q 685 482 672 374 l 737 482 z "},"Ä":{"ha":873,"x_min":40,"x_max":833,"o":"m 758 0 l 647 302 l 225 302 l 114 0 l 40 0 l 407 972 l 471 972 l 833 0 l 758 0 m 460 814 q 448 854 452 834 q 437 888 443 871 l 435 888 q 412 815 423 843 l 249 364 l 624 364 l 460 814 m 551 1038 q 517 1051 532 1038 q 503 1086 503 1064 q 517 1120 503 1107 q 549 1133 532 1133 q 585 1120 569 1133 q 601 1086 601 1107 q 586 1052 601 1065 q 551 1038 572 1038 m 325 1038 q 291 1051 306 1038 q 276 1086 276 1064 q 291 1120 276 1107 q 323 1133 306 1133 q 359 1120 343 1133 q 374 1086 374 1107 q 360 1052 374 1065 q 325 1038 346 1038 z "},"Å":{"ha":873,"x_min":40,"x_max":833,"o":"m 758 0 l 647 302 l 225 302 l 114 0 l 40 0 l 392 932 q 301 1051 301 960 q 341 1141 301 1106 q 437 1177 381 1177 q 535 1142 496 1177 q 574 1051 574 1108 q 485 933 574 964 l 833 0 l 758 0 m 437 1131 q 375 1109 399 1131 q 351 1051 351 1087 q 376 994 351 1016 q 437 972 401 972 q 500 994 476 972 q 525 1051 525 1016 q 499 1110 525 1090 q 437 1131 474 1131 m 460 814 q 448 854 452 834 q 437 888 443 871 l 435 888 q 412 815 423 843 l 249 364 l 624 364 l 460 814 z "},"Ç":{"ha":863,"x_min":74,"x_max":771,"o":"m 771 32 q 486 -16 625 -26 l 486 -79 q 639 -179 639 -79 q 467 -294 639 -294 q 412 -292 442 -294 l 412 -241 q 471 -245 446 -245 q 579 -183 579 -245 q 481 -125 579 -125 q 437 -127 459 -125 l 437 -9 q 170 151 267 22 q 74 467 74 281 q 210 846 74 703 q 557 989 347 989 q 771 953 669 989 l 771 882 q 555 928 669 928 q 258 804 372 928 q 143 473 143 680 q 253 160 143 275 q 530 45 362 45 q 771 97 665 45 l 771 32 z "},"É":{"ha":694,"x_min":125,"x_max":602,"o":"m 125 0 l 125 972 l 579 972 l 579 911 l 192 911 l 192 521 l 551 521 l 551 460 l 192 460 l 192 61 l 602 61 l 602 0 l 125 0 m 343 1040 l 282 1040 l 441 1262 l 511 1262 l 343 1040 z "},"Ñ":{"ha":985,"x_min":125,"x_max":860,"o":"m 812 0 l 233 786 q 202 833 216 810 l 193 847 l 191 847 q 192 804 192 829 l 192 0 l 125 0 l 125 972 l 176 972 l 751 193 q 793 131 770 168 l 796 131 q 793 212 793 178 l 793 972 l 860 972 l 860 0 l 812 0 m 747 1199 q 714 1088 747 1129 q 625 1048 681 1048 q 523 1099 581 1048 q 442 1137 479 1137 q 373 1040 373 1137 l 324 1040 q 357 1148 324 1107 q 444 1190 389 1190 q 552 1141 492 1190 q 631 1101 597 1101 q 677 1126 659 1101 q 696 1199 696 1151 l 747 1199 z "},"Ö":{"ha":1057,"x_min":74,"x_max":983,"o":"m 525 -17 q 196 120 319 -17 q 74 476 74 257 q 200 849 74 709 q 543 989 326 989 q 862 854 740 989 q 983 501 983 720 q 859 121 983 260 q 525 -17 734 -17 m 532 928 q 253 805 362 928 q 143 484 143 682 q 247 164 143 283 q 524 45 351 45 q 809 162 704 45 q 914 490 914 280 q 811 812 914 696 q 532 928 709 928 m 644 1040 q 611 1053 626 1040 q 596 1088 596 1066 q 611 1122 596 1109 q 643 1135 625 1135 q 679 1122 663 1135 q 694 1088 694 1109 q 680 1054 694 1067 q 644 1040 665 1040 m 418 1040 q 385 1053 399 1040 q 370 1088 370 1066 q 385 1122 370 1109 q 417 1135 399 1135 q 452 1122 437 1135 q 468 1088 468 1109 q 454 1054 468 1067 q 418 1040 439 1040 z "},"Ü":{"ha":900,"x_min":113,"x_max":787,"o":"m 787 389 q 441 -17 787 -17 q 113 374 113 -17 l 113 972 l 179 972 l 179 383 q 454 45 179 45 q 721 374 721 45 l 721 972 l 787 972 l 787 389 m 583 1042 q 550 1056 565 1042 q 535 1091 535 1069 q 550 1125 535 1112 q 582 1138 564 1138 q 617 1125 602 1138 q 633 1091 633 1112 q 619 1056 633 1070 q 583 1042 604 1042 m 357 1042 q 323 1056 338 1042 q 309 1091 309 1069 q 323 1125 309 1112 q 356 1138 338 1138 q 391 1125 376 1138 q 407 1091 407 1112 q 393 1056 407 1070 q 357 1042 378 1042 z "},"á":{"ha":686,"x_min":72,"x_max":589,"o":"m 526 0 l 526 139 l 524 139 q 427 25 490 68 q 286 -17 363 -17 q 130 39 187 -17 q 72 179 72 94 q 313 399 72 361 l 526 431 q 358 654 526 654 q 135 562 243 654 l 135 637 q 240 690 174 668 q 364 711 306 711 q 530 645 471 711 q 589 452 589 578 l 589 0 l 526 0 m 335 346 q 182 295 226 330 q 138 182 138 260 q 179 80 138 120 q 293 40 220 40 q 460 114 393 40 q 526 306 526 189 l 526 374 l 335 346 m 307 806 l 245 806 l 404 1028 l 475 1028 l 307 806 z "},"à":{"ha":686,"x_min":72,"x_max":589,"o":"m 526 0 l 526 139 l 524 139 q 427 25 490 68 q 286 -17 363 -17 q 130 39 187 -17 q 72 179 72 94 q 313 399 72 361 l 526 431 q 358 654 526 654 q 135 562 243 654 l 135 637 q 240 690 174 668 q 364 711 306 711 q 530 645 471 711 q 589 452 589 578 l 589 0 l 526 0 m 335 346 q 182 295 226 330 q 138 182 138 260 q 179 80 138 120 q 293 40 220 40 q 460 114 393 40 q 526 306 526 189 l 526 374 l 335 346 m 352 806 l 184 1028 l 254 1028 l 413 806 l 352 806 z "},"â":{"ha":686,"x_min":72,"x_max":589,"o":"m 526 0 l 526 139 l 524 139 q 427 25 490 68 q 286 -17 363 -17 q 130 39 187 -17 q 72 179 72 94 q 313 399 72 361 l 526 431 q 358 654 526 654 q 135 562 243 654 l 135 637 q 240 690 174 668 q 364 711 306 711 q 530 645 471 711 q 589 452 589 578 l 589 0 l 526 0 m 335 346 q 182 295 226 330 q 138 182 138 260 q 179 80 138 120 q 293 40 220 40 q 460 114 393 40 q 526 306 526 189 l 526 374 l 335 346 m 454 806 l 348 968 l 239 806 l 184 806 l 334 1034 l 364 1034 l 513 806 l 454 806 z "},"ä":{"ha":686,"x_min":72,"x_max":589,"o":"m 526 0 l 526 139 l 524 139 q 427 25 490 68 q 286 -17 363 -17 q 130 39 187 -17 q 72 179 72 94 q 313 399 72 361 l 526 431 q 358 654 526 654 q 135 562 243 654 l 135 637 q 240 690 174 668 q 364 711 306 711 q 530 645 471 711 q 589 452 589 578 l 589 0 l 526 0 m 335 346 q 182 295 226 330 q 138 182 138 260 q 179 80 138 120 q 293 40 220 40 q 460 114 393 40 q 526 306 526 189 l 526 374 l 335 346 m 451 806 q 418 819 433 806 q 403 854 403 832 q 417 888 403 876 q 450 901 432 901 q 485 888 469 901 q 501 854 501 875 q 487 820 501 833 q 451 806 472 806 m 225 806 q 191 819 206 806 q 176 854 176 832 q 191 888 176 876 q 224 901 206 901 q 259 888 243 901 q 275 854 275 875 q 260 820 275 833 q 225 806 246 806 z "},"ã":{"ha":686,"x_min":72,"x_max":589,"o":"m 526 0 l 526 139 l 524 139 q 427 25 490 68 q 286 -17 363 -17 q 130 39 187 -17 q 72 179 72 94 q 313 399 72 361 l 526 431 q 358 654 526 654 q 135 562 243 654 l 135 637 q 240 690 174 668 q 364 711 306 711 q 530 645 471 711 q 589 452 589 578 l 589 0 l 526 0 m 335 346 q 182 295 226 330 q 138 182 138 260 q 179 80 138 120 q 293 40 220 40 q 460 114 393 40 q 526 306 526 189 l 526 374 l 335 346 m 559 965 q 526 854 559 895 q 437 814 493 814 q 335 865 393 814 q 254 903 292 903 q 185 806 185 903 l 136 806 q 169 915 136 873 q 256 956 201 956 q 364 907 304 956 q 444 867 410 867 q 490 892 471 867 q 509 965 509 917 l 559 965 z "},"å":{"ha":686,"x_min":72,"x_max":589,"o":"m 526 0 l 526 139 l 524 139 q 427 25 490 68 q 286 -17 363 -17 q 130 39 187 -17 q 72 179 72 94 q 313 399 72 361 l 526 431 q 358 654 526 654 q 135 562 243 654 l 135 637 q 240 690 174 668 q 364 711 306 711 q 530 645 471 711 q 589 452 589 578 l 589 0 l 526 0 m 335 346 q 182 295 226 330 q 138 182 138 260 q 179 80 138 120 q 293 40 220 40 q 460 114 393 40 q 526 306 526 189 l 526 374 l 335 346 m 353 806 q 256 840 295 806 q 217 930 217 874 q 256 1020 217 985 q 353 1055 294 1055 q 451 1021 413 1055 q 490 930 490 987 q 450 841 490 876 q 353 806 411 806 m 353 1010 q 291 988 315 1010 q 267 930 267 966 q 292 873 267 895 q 353 851 317 851 q 416 873 392 851 q 441 930 441 895 q 415 989 441 969 q 353 1010 390 1010 z "},"ç":{"ha":616,"x_min":61,"x_max":564,"o":"m 561 31 q 376 -17 484 -17 q 148 80 235 -17 q 61 335 61 178 q 159 606 61 500 q 410 711 256 711 q 564 679 489 711 l 564 608 q 400 654 489 654 q 202 567 278 654 q 126 339 126 479 q 196 122 126 204 q 379 40 265 40 q 561 96 484 40 l 561 31 m 273 -292 l 273 -241 q 332 -245 307 -245 q 440 -183 440 -245 q 342 -125 440 -125 q 298 -127 320 -125 l 298 0 l 347 0 l 347 -79 q 500 -179 500 -79 q 328 -294 500 -294 q 273 -292 303 -294 z "},"é":{"ha":701,"x_min":61,"x_max":640,"o":"m 126 345 q 192 121 126 201 q 374 40 258 40 q 602 126 490 40 l 602 60 q 361 -17 494 -17 q 144 79 227 -17 q 61 351 61 176 q 148 607 61 503 q 372 711 234 711 q 571 621 502 711 q 640 372 640 530 l 640 345 l 126 345 m 575 401 q 517 588 571 522 q 370 654 464 654 q 208 589 272 654 q 129 401 144 524 l 575 401 m 332 806 l 271 806 l 429 1028 l 500 1028 l 332 806 z "},"è":{"ha":701,"x_min":61,"x_max":640,"o":"m 126 345 q 192 121 126 201 q 374 40 258 40 q 602 126 490 40 l 602 60 q 361 -17 494 -17 q 144 79 227 -17 q 61 351 61 176 q 148 607 61 503 q 372 711 234 711 q 571 621 502 711 q 640 372 640 530 l 640 345 l 126 345 m 575 401 q 517 588 571 522 q 370 654 464 654 q 208 589 272 654 q 129 401 144 524 l 575 401 m 386 806 l 218 1028 l 288 1028 l 447 806 l 386 806 z "},"ê":{"ha":701,"x_min":61,"x_max":640,"o":"m 126 345 q 192 121 126 201 q 374 40 258 40 q 602 126 490 40 l 602 60 q 361 -17 494 -17 q 144 79 227 -17 q 61 351 61 176 q 148 607 61 503 q 372 711 234 711 q 571 621 502 711 q 640 372 640 530 l 640 345 l 126 345 m 575 401 q 517 588 571 522 q 370 654 464 654 q 208 589 272 654 q 129 401 144 524 l 575 401 m 477 806 l 371 968 l 262 806 l 207 806 l 357 1034 l 387 1034 l 536 806 l 477 806 z "},"ë":{"ha":701,"x_min":61,"x_max":640,"o":"m 126 345 q 192 121 126 201 q 374 40 258 40 q 602 126 490 40 l 602 60 q 361 -17 494 -17 q 144 79 227 -17 q 61 351 61 176 q 148 607 61 503 q 372 711 234 711 q 571 621 502 711 q 640 372 640 530 l 640 345 l 126 345 m 575 401 q 517 588 571 522 q 370 654 464 654 q 208 589 272 654 q 129 401 144 524 l 575 401 m 476 806 q 443 819 458 806 q 428 854 428 832 q 443 888 428 876 q 475 901 457 901 q 510 888 494 901 q 526 854 526 875 q 512 820 526 833 q 476 806 497 806 m 250 806 q 216 819 231 806 q 201 854 201 832 q 216 888 201 876 q 249 901 231 901 q 284 888 269 901 q 300 854 300 875 q 286 820 300 833 q 250 806 271 806 z "},"í":{"ha":285,"x_min":56,"x_max":286,"o":"m 111 0 l 111 694 l 174 694 l 174 0 l 111 0 m 117 806 l 56 806 l 215 1028 l 286 1028 l 117 806 z "},"ì":{"ha":285,"x_min":4,"x_max":233,"o":"m 111 0 l 111 694 l 174 694 l 174 0 l 111 0 m 172 806 l 4 1028 l 75 1028 l 233 806 l 172 806 z "},"î":{"ha":285,"x_min":-20,"x_max":309,"o":"m 111 0 l 111 694 l 174 694 l 174 0 l 111 0 m 250 806 l 144 968 l 35 806 l -20 806 l 130 1034 l 160 1034 l 309 806 l 250 806 z "},"ï":{"ha":285,"x_min":-19,"x_max":306,"o":"m 111 0 l 111 694 l 174 694 l 174 0 l 111 0 m 256 806 q 222 819 237 806 q 208 854 208 832 q 222 888 208 876 q 254 901 237 901 q 290 888 274 901 q 306 854 306 875 q 291 820 306 833 q 256 806 277 806 m 30 806 q -4 819 11 806 q -19 854 -19 832 q -4 888 -19 876 q 28 901 11 901 q 64 888 48 901 q 79 854 79 875 q 65 820 79 833 q 30 806 51 806 z "},"ñ":{"ha":743,"x_min":111,"x_max":646,"o":"m 583 0 l 583 404 q 403 654 583 654 q 238 581 302 654 q 174 399 174 507 l 174 0 l 111 0 l 111 694 l 174 694 l 174 568 l 176 568 q 414 711 252 711 q 586 636 526 711 q 646 422 646 562 l 646 0 l 583 0 m 608 965 q 575 854 608 895 q 486 814 542 814 q 384 865 441 814 q 303 903 340 903 q 234 806 234 903 l 185 806 q 218 915 185 873 q 304 956 250 956 q 413 907 353 956 q 492 867 458 867 q 538 892 519 867 q 557 965 557 917 l 608 965 z "},"ó":{"ha":779,"x_min":61,"x_max":718,"o":"m 390 -17 q 150 83 238 -17 q 61 343 61 183 q 154 614 61 516 q 397 711 246 711 q 632 614 546 711 q 718 346 718 517 q 630 83 718 184 q 390 -17 543 -17 m 395 654 q 199 572 272 654 q 126 342 126 489 q 197 123 126 205 q 392 40 269 40 q 585 121 517 40 q 653 347 653 203 q 586 575 653 496 q 395 654 518 654 m 367 806 l 306 806 l 465 1028 l 535 1028 l 367 806 z "},"ò":{"ha":779,"x_min":61,"x_max":718,"o":"m 390 -17 q 150 83 238 -17 q 61 343 61 183 q 154 614 61 516 q 397 711 246 711 q 632 614 546 711 q 718 346 718 517 q 630 83 718 184 q 390 -17 543 -17 m 395 654 q 199 572 272 654 q 126 342 126 489 q 197 123 126 205 q 392 40 269 40 q 585 121 517 40 q 653 347 653 203 q 586 575 653 496 q 395 654 518 654 m 401 806 l 233 1028 l 304 1028 l 463 806 l 401 806 z "},"ô":{"ha":779,"x_min":61,"x_max":718,"o":"m 390 -17 q 150 83 238 -17 q 61 343 61 183 q 154 614 61 516 q 397 711 246 711 q 632 614 546 711 q 718 346 718 517 q 630 83 718 184 q 390 -17 543 -17 m 395 654 q 199 572 272 654 q 126 342 126 489 q 197 123 126 205 q 392 40 269 40 q 585 121 517 40 q 653 347 653 203 q 586 575 653 496 q 395 654 518 654 m 507 806 l 401 968 l 292 806 l 237 806 l 387 1034 l 417 1034 l 566 806 l 507 806 z "},"ö":{"ha":779,"x_min":61,"x_max":718,"o":"m 390 -17 q 150 83 238 -17 q 61 343 61 183 q 154 614 61 516 q 397 711 246 711 q 632 614 546 711 q 718 346 718 517 q 630 83 718 184 q 390 -17 543 -17 m 395 654 q 199 572 272 654 q 126 342 126 489 q 197 123 126 205 q 392 40 269 40 q 585 121 517 40 q 653 347 653 203 q 586 575 653 496 q 395 654 518 654 m 508 806 q 475 819 490 806 q 460 854 460 832 q 474 888 460 876 q 507 901 489 901 q 542 888 526 901 q 558 854 558 875 q 544 820 558 833 q 508 806 529 806 m 282 806 q 248 819 263 806 q 233 854 233 832 q 248 888 233 876 q 281 901 263 901 q 316 888 300 901 q 332 854 332 875 q 317 820 332 833 q 282 806 303 806 z "},"õ":{"ha":779,"x_min":61,"x_max":718,"o":"m 390 -17 q 150 83 238 -17 q 61 343 61 183 q 154 614 61 516 q 397 711 246 711 q 632 614 546 711 q 718 346 718 517 q 630 83 718 184 q 390 -17 543 -17 m 395 654 q 199 572 272 654 q 126 342 126 489 q 197 123 126 205 q 392 40 269 40 q 585 121 517 40 q 653 347 653 203 q 586 575 653 496 q 395 654 518 654 m 618 965 q 585 854 618 895 q 496 814 552 814 q 394 865 452 814 q 313 903 351 903 q 244 806 244 903 l 195 806 q 228 915 195 873 q 315 956 260 956 q 423 907 363 956 q 503 867 469 867 q 549 892 530 867 q 568 965 568 917 l 618 965 z "},"ú":{"ha":743,"x_min":97,"x_max":632,"o":"m 570 0 l 570 126 l 567 126 q 343 -17 494 -17 q 97 293 97 -17 l 97 694 l 160 694 l 160 309 q 207 104 160 168 q 353 40 253 40 q 510 111 450 40 q 570 301 570 182 l 570 694 l 632 694 l 632 0 l 570 0 m 368 806 l 307 806 l 466 1028 l 536 1028 l 368 806 z "},"ù":{"ha":743,"x_min":97,"x_max":632,"o":"m 570 0 l 570 126 l 567 126 q 343 -17 494 -17 q 97 293 97 -17 l 97 694 l 160 694 l 160 309 q 207 104 160 168 q 353 40 253 40 q 510 111 450 40 q 570 301 570 182 l 570 694 l 632 694 l 632 0 l 570 0 m 378 806 l 210 1028 l 281 1028 l 439 806 l 378 806 z "},"û":{"ha":743,"x_min":97,"x_max":632,"o":"m 570 0 l 570 126 l 567 126 q 343 -17 494 -17 q 97 293 97 -17 l 97 694 l 160 694 l 160 309 q 207 104 160 168 q 353 40 253 40 q 510 111 450 40 q 570 301 570 182 l 570 694 l 632 694 l 632 0 l 570 0 m 492 806 l 386 968 l 277 806 l 222 806 l 372 1034 l 402 1034 l 551 806 l 492 806 z "},"ü":{"ha":743,"x_min":97,"x_max":632,"o":"m 570 0 l 570 126 l 567 126 q 343 -17 494 -17 q 97 293 97 -17 l 97 694 l 160 694 l 160 309 q 207 104 160 168 q 353 40 253 40 q 510 111 450 40 q 570 301 570 182 l 570 694 l 632 694 l 632 0 l 570 0 m 498 806 q 465 819 480 806 q 450 854 450 832 q 465 888 450 876 q 497 901 479 901 q 533 888 517 901 q 549 854 549 875 q 534 820 549 833 q 498 806 519 806 m 273 806 q 239 819 254 806 q 224 854 224 832 q 239 888 224 876 q 271 901 254 901 q 307 888 291 901 q 322 854 322 875 q 308 820 322 833 q 273 806 294 806 z "},"†":{"ha":513,"x_min":33,"x_max":480,"o":"m 480 633 l 296 653 l 275 155 l 251 155 l 231 653 l 33 633 l 33 707 l 244 694 l 224 972 l 302 972 l 282 694 l 480 707 l 480 633 z "},"°":{"ha":536,"x_min":97,"x_max":439,"o":"m 269 631 q 148 682 199 631 q 97 803 97 732 q 147 922 97 872 q 267 972 197 972 q 388 923 338 972 q 439 803 439 873 q 389 681 439 732 q 269 631 339 631 m 269 921 q 187 886 221 921 q 153 803 153 851 q 186 718 153 753 q 267 682 220 682 q 348 718 314 682 q 382 803 382 753 q 349 887 382 853 q 269 921 317 921 z "},"¢":{"ha":715,"x_min":113,"x_max":615,"o":"m 612 142 q 463 96 551 104 l 463 -39 l 400 -39 l 400 96 q 191 202 269 107 q 113 446 113 298 q 190 693 113 591 q 400 818 268 795 l 400 953 l 463 953 l 463 822 q 615 790 543 822 l 615 720 q 463 765 545 762 l 463 153 q 612 207 551 159 l 612 142 m 400 761 q 237 657 296 741 q 178 450 178 572 q 237 247 178 326 q 400 153 296 167 l 400 761 z "},"£":{"ha":715,"x_min":54,"x_max":643,"o":"m 54 0 l 54 58 q 222 306 222 128 l 222 449 l 68 449 l 68 510 l 222 510 l 222 707 q 290 911 222 834 q 468 989 357 989 q 591 965 533 989 l 591 901 q 465 932 530 932 q 333 872 380 932 q 285 699 285 812 l 285 510 l 493 510 l 493 449 l 285 449 l 285 329 q 140 57 285 129 l 643 57 l 643 0 l 54 0 z "},"§":{"ha":623,"x_min":113,"x_max":524,"o":"m 419 273 q 484 138 484 225 q 423 8 484 60 q 267 -45 363 -45 q 119 -11 194 -45 l 119 56 q 268 12 199 12 q 380 46 342 12 q 418 136 418 81 q 397 205 418 173 q 302 274 376 238 q 147 383 182 331 q 113 500 113 435 q 222 673 113 616 q 139 822 139 730 q 195 959 139 907 q 349 1011 250 1011 q 481 986 423 1011 l 481 921 q 347 954 422 954 q 204 827 204 954 q 242 737 204 772 q 386 654 279 702 q 524 465 524 591 q 419 273 524 355 m 275 642 q 178 504 178 597 q 218 398 178 437 q 370 310 258 359 q 437 378 416 345 q 458 465 458 411 q 426 553 458 517 q 275 642 393 589 z "},"•":{"ha":550,"x_min":111,"x_max":439,"o":"m 277 323 q 160 371 208 323 q 111 484 111 418 q 160 598 111 549 q 277 647 208 647 q 391 599 344 647 q 439 484 439 551 q 391 370 439 417 q 277 323 344 323 z "},"¶":{"ha":659,"x_min":77,"x_max":586,"o":"m 497 914 l 497 0 l 439 0 l 439 914 l 304 914 l 304 0 l 245 0 l 245 612 q 125 664 174 612 q 77 791 77 715 q 128 923 77 873 q 250 972 179 972 l 586 972 l 586 914 l 497 914 z "},"ß":{"ha":720,"x_min":111,"x_max":661,"o":"m 292 -4 l 292 60 q 387 40 341 40 q 539 100 483 40 q 596 258 596 159 q 522 433 596 363 q 314 524 448 502 l 314 578 q 522 803 522 625 q 478 934 522 886 q 357 982 435 982 q 222 920 270 982 q 174 747 174 859 l 174 1 l 111 1 l 111 757 q 180 964 111 890 q 363 1039 248 1039 q 526 977 464 1039 q 587 812 587 914 q 414 558 587 633 l 414 555 q 595 446 529 525 q 661 262 661 367 q 586 62 661 141 q 390 -17 511 -17 q 292 -4 343 -17 z "},"­":{"ha":553,"x_min":98,"x_max":469,"o":"m 98 376 l 98 437 l 469 437 l 469 376 l 98 376 z "},"®":{"ha":1223,"x_min":201,"x_max":1016,"o":"m 608 173 q 320 292 439 173 q 201 578 201 410 q 320 867 201 749 q 608 986 440 986 q 896 867 776 986 q 1016 581 1016 748 q 897 292 1016 411 q 608 173 778 173 m 606 940 q 354 834 459 940 q 250 578 250 728 q 354 325 250 431 q 606 219 458 219 q 861 325 755 219 q 967 578 967 431 q 861 834 967 728 q 606 940 754 940 m 737 327 l 675 460 q 622 539 648 519 q 565 559 597 559 l 513 559 l 513 327 l 457 327 l 457 850 l 600 850 q 734 813 687 850 q 781 713 781 775 q 644 568 781 593 l 644 566 q 730 471 690 556 l 800 327 l 737 327 m 513 808 l 513 602 l 607 602 q 692 629 660 602 q 724 704 724 656 q 594 808 724 808 l 513 808 z "},"©":{"ha":1223,"x_min":106,"x_max":1118,"o":"m 612 -17 q 254 130 401 -17 q 106 485 106 277 q 255 842 106 695 q 611 989 404 989 q 969 842 820 989 q 1118 486 1118 694 q 970 130 1118 277 q 612 -17 822 -17 m 611 937 q 293 804 427 937 q 160 485 160 671 q 292 167 160 300 q 611 35 425 35 q 931 168 799 35 q 1064 485 1064 300 q 931 804 1064 671 q 611 937 798 937 m 802 183 q 632 135 718 135 q 393 231 490 135 q 296 468 296 326 q 394 733 296 635 q 643 831 493 831 q 799 794 729 831 l 799 736 q 632 775 727 775 q 437 695 517 775 q 358 482 358 616 q 440 272 358 352 q 639 192 523 192 q 802 237 727 192 l 802 183 z "},"™":{"ha":1075,"x_min":47,"x_max":933,"o":"m 878 524 l 878 885 l 875 885 l 721 524 l 675 524 l 528 885 l 525 885 l 525 524 l 469 524 l 469 972 l 547 972 l 699 603 l 701 603 l 860 972 l 933 972 l 933 524 l 878 524 m 253 920 l 253 524 l 197 524 l 197 920 l 47 920 l 47 972 l 404 972 l 404 920 l 253 920 z "},"´":{"ha":345,"x_min":93,"x_max":322,"o":"m 154 806 l 93 806 l 252 1028 l 322 1028 l 154 806 z "},"¨":{"ha":554,"x_min":115,"x_max":440,"o":"m 390 806 q 357 819 372 806 q 342 854 342 832 q 356 888 342 876 q 389 901 371 901 q 424 888 408 901 q 440 854 440 875 q 426 820 440 833 q 390 806 411 806 m 164 806 q 130 819 145 806 q 115 854 115 832 q 130 888 115 876 q 163 901 145 901 q 198 888 182 901 q 214 854 214 875 q 199 820 214 833 q 164 806 185 806 z "},"≠":{"ha":903,"x_min":144,"x_max":760,"o":"m 397 245 l 271 0 l 208 0 l 336 245 l 144 245 l 144 302 l 366 302 l 471 509 l 144 509 l 144 566 l 501 566 l 625 806 l 686 806 l 562 566 l 760 566 l 760 509 l 533 509 l 427 302 l 760 302 l 760 245 l 397 245 z "},"Æ":{"ha":1157,"x_min":11,"x_max":1050,"o":"m 574 0 l 574 302 l 233 302 l 85 0 l 11 0 l 484 972 l 1028 972 l 1028 907 l 640 907 l 640 519 l 1000 519 l 1000 458 l 640 458 l 640 61 l 1050 61 l 1050 0 l 574 0 m 574 907 l 521 907 l 261 364 l 574 364 l 574 907 z "},"Ø":{"ha":1057,"x_min":57,"x_max":983,"o":"m 215 100 l 100 -37 l 57 -3 l 178 142 q 74 476 74 277 q 200 849 74 709 q 543 989 326 989 q 814 900 703 989 l 908 1013 l 951 977 l 856 863 q 983 501 983 726 q 859 121 983 260 q 525 -17 734 -17 q 215 100 339 -17 m 772 850 q 532 928 675 928 q 253 805 362 928 q 143 484 143 682 q 222 195 143 309 l 772 850 m 812 811 l 258 151 q 524 45 362 45 q 809 162 704 45 q 914 490 914 280 q 812 811 914 692 z "},"∞":{"ha":1135,"x_min":62,"x_max":1074,"o":"m 567 347 q 441 199 511 250 q 304 149 372 149 q 130 218 197 149 q 62 401 62 288 q 132 583 62 507 q 304 660 202 660 q 568 461 465 660 q 693 609 623 557 q 832 660 764 660 q 1007 590 941 660 q 1074 407 1074 519 q 1004 225 1074 302 q 832 149 935 149 q 567 347 673 149 m 595 404 q 832 204 690 204 q 965 261 916 204 q 1015 407 1015 318 q 963 549 1015 492 q 832 606 911 606 q 595 404 702 606 m 542 404 q 304 606 444 606 q 170 548 221 606 q 119 401 119 491 q 172 261 119 318 q 304 204 224 204 q 542 404 434 204 z "},"±":{"ha":903,"x_min":144,"x_max":760,"o":"m 481 429 l 481 150 l 424 150 l 424 429 l 144 429 l 144 486 l 424 486 l 424 765 l 481 765 l 481 486 l 760 486 l 760 429 l 481 429 m 144 0 l 144 57 l 760 57 l 760 0 l 144 0 z "},"≤":{"ha":903,"x_min":144,"x_max":760,"o":"m 170 456 l 170 468 l 734 785 l 734 721 l 275 464 l 275 461 l 734 235 l 734 170 l 170 456 m 144 43 l 144 100 l 760 100 l 760 43 l 144 43 z "},"≥":{"ha":903,"x_min":144,"x_max":760,"o":"m 170 170 l 170 235 l 629 461 l 629 464 l 170 721 l 170 785 l 734 468 l 734 456 l 170 170 m 144 43 l 144 100 l 760 100 l 760 43 l 144 43 z "},"¥":{"ha":715,"x_min":50,"x_max":668,"o":"m 408 505 l 642 505 l 642 449 l 389 449 l 389 282 l 642 282 l 642 225 l 389 225 l 389 0 l 326 0 l 326 225 l 74 225 l 74 282 l 326 282 l 326 449 l 74 449 l 74 505 l 306 505 l 50 972 l 119 972 l 328 585 q 359 519 353 538 l 363 519 q 392 587 376 564 l 603 972 l 668 972 l 408 505 z "},"µ":{"ha":757,"x_min":111,"x_max":646,"o":"m 583 0 l 583 126 l 581 126 q 357 -17 509 -17 q 179 66 237 -17 l 174 66 l 174 -265 l 111 -265 l 111 694 l 174 694 l 174 309 q 221 103 174 166 q 367 40 268 40 q 524 112 465 40 q 583 301 583 183 l 583 694 l 646 694 l 646 0 l 583 0 z "},"∂":{"ha":722,"x_min":56,"x_max":673,"o":"m 603 557 l 606 557 q 611 657 611 588 q 411 950 611 950 q 252 893 331 950 l 267 962 q 419 1007 346 1007 q 609 918 545 1007 q 673 659 673 829 q 630 353 673 519 q 494 85 587 186 q 277 -17 400 -17 q 113 50 170 -17 q 56 232 56 117 q 153 548 56 401 q 415 694 251 694 q 603 557 545 694 m 593 478 q 410 636 549 636 q 200 512 279 636 q 121 235 121 387 q 163 93 121 146 q 282 40 205 40 q 480 159 397 40 q 593 478 564 279 z "},"∑":{"ha":848,"x_min":25,"x_max":825,"o":"m 25 -319 l 25 -296 l 514 332 l 66 940 l 66 972 l 782 972 l 782 911 l 170 911 l 595 334 l 136 -258 l 825 -258 l 825 -319 l 25 -319 z "},"∏":{"ha":1038,"x_min":129,"x_max":909,"o":"m 843 -319 l 843 911 l 196 911 l 196 -319 l 129 -319 l 129 972 l 909 972 l 909 -319 l 843 -319 z "},"∫":{"ha":715,"x_min":122,"x_max":593,"o":"m 593 962 q 517 982 568 982 q 389 810 389 982 l 389 -113 q 333 -280 389 -223 q 196 -336 278 -336 q 122 -323 151 -336 l 122 -260 q 199 -279 147 -279 q 326 -107 326 -279 l 326 815 q 381 982 326 925 q 519 1039 437 1039 q 593 1026 564 1039 l 593 962 z "},"ª":{"ha":505,"x_min":52,"x_max":439,"o":"m 378 486 l 378 583 l 375 583 q 303 504 350 532 q 203 475 256 475 q 92 515 132 475 q 52 612 52 555 q 225 772 52 748 l 378 794 q 265 932 378 932 q 93 869 174 932 l 93 935 q 271 986 180 986 q 439 800 439 986 l 439 486 l 378 486 m 250 725 q 143 691 173 714 q 114 615 114 667 q 140 553 114 576 q 215 529 167 529 q 329 585 280 529 q 378 713 378 642 l 378 743 l 250 725 z "},"º":{"ha":550,"x_min":49,"x_max":521,"o":"m 285 472 q 113 544 178 472 q 49 728 49 616 q 116 918 49 849 q 289 986 182 986 q 458 918 396 986 q 521 729 521 849 q 457 545 521 618 q 285 472 393 472 m 288 932 q 160 877 208 932 q 113 726 113 822 q 160 582 113 636 q 286 528 208 528 q 411 582 367 528 q 456 730 456 635 q 412 878 456 825 q 288 932 368 932 z "},"Ω":{"ha":1048,"x_min":74,"x_max":983,"o":"m 660 0 l 660 61 q 713 104 685 80 q 770 159 742 128 q 824 227 798 189 q 870 309 850 264 q 902 408 890 354 q 914 525 914 462 q 886 695 914 621 q 809 822 859 770 q 689 901 759 873 q 536 928 620 928 q 373 899 446 928 q 249 818 300 870 q 171 692 198 766 q 143 528 143 618 q 166 365 143 437 q 227 236 190 292 q 310 137 264 180 q 399 61 355 94 l 399 0 l 75 0 l 75 61 l 314 61 q 236 129 278 87 q 158 229 194 171 q 98 361 122 286 q 74 529 74 436 q 107 721 74 635 q 201 866 141 806 q 345 957 261 925 q 528 989 428 989 q 711 959 627 989 q 855 872 794 930 q 949 729 916 814 q 983 532 983 644 q 962 376 983 448 q 906 245 941 304 q 829 139 872 185 q 743 61 787 93 l 983 61 l 983 0 l 660 0 z "},"æ":{"ha":1165,"x_min":72,"x_max":1103,"o":"m 589 345 q 655 121 589 201 q 836 40 721 40 q 1064 126 953 40 l 1064 60 q 823 -17 956 -17 q 661 34 731 -17 q 558 176 590 84 l 555 176 q 290 -17 465 -17 q 130 38 189 -17 q 72 179 72 92 q 139 332 72 276 q 334 393 206 387 l 526 401 q 364 654 526 654 q 135 564 238 654 l 135 637 q 371 711 244 711 q 571 539 527 711 l 574 539 q 833 711 659 711 q 1033 621 962 711 q 1103 372 1103 531 l 1103 345 l 589 345 m 1038 401 q 980 588 1034 522 q 832 654 926 654 q 670 589 734 654 q 591 401 606 524 l 1038 401 m 526 345 l 347 339 q 190 299 241 336 q 138 182 138 263 q 181 78 138 115 q 297 40 224 40 q 458 113 389 40 q 526 289 526 186 l 526 345 z "},"ø":{"ha":779,"x_min":20,"x_max":774,"o":"m 652 590 q 718 346 718 495 q 630 83 718 184 q 390 -17 543 -17 q 174 60 260 -17 l 61 -65 l 20 -26 l 135 102 q 61 343 61 201 q 154 614 61 516 q 397 711 246 711 q 615 633 532 711 l 732 762 l 774 725 l 652 590 m 574 587 q 395 654 507 654 q 199 572 272 654 q 126 342 126 489 q 178 149 126 229 l 574 587 m 608 542 l 214 106 q 392 40 284 40 q 585 121 517 40 q 653 347 653 203 q 608 542 653 463 z "},"¿":{"ha":597,"x_min":98,"x_max":553,"o":"m 378 425 q 390 380 385 408 q 395 326 395 353 q 386 268 395 294 q 362 218 378 241 q 326 174 347 195 q 279 130 304 152 q 236 89 257 110 q 199 43 215 67 q 173 -11 182 18 q 163 -74 163 -39 q 175 -141 163 -111 q 210 -191 188 -170 q 264 -222 233 -212 q 334 -233 296 -233 q 451 -211 397 -233 q 553 -150 505 -189 l 553 -222 q 451 -277 505 -259 q 333 -294 398 -294 q 240 -280 283 -294 q 165 -238 197 -266 q 116 -171 134 -211 q 98 -81 98 -132 q 109 -10 98 -42 q 137 49 119 22 q 176 100 154 76 q 222 146 199 123 q 280 203 257 180 q 316 245 303 227 q 334 282 329 264 q 339 325 339 300 q 334 381 339 356 q 323 425 328 407 l 378 425 m 354 707 q 392 691 377 707 q 408 652 408 675 q 392 613 408 628 q 354 597 377 597 q 314 613 330 597 q 298 652 298 628 q 314 691 298 675 q 354 707 330 707 z "}," ":{"ha":380,"x_min":0,"x_max":0,"o":""},"¡":{"ha":395,"x_min":143,"x_max":253,"o":"m 199 597 q 159 613 176 597 q 143 652 143 628 q 159 691 143 675 q 199 707 176 707 q 237 691 222 707 q 253 652 253 675 q 237 613 253 628 q 199 597 222 597 m 164 -277 l 171 422 l 229 422 l 236 -277 l 164 -277 z "},"¬":{"ha":903,"x_min":144,"x_max":760,"o":"m 701 100 l 701 376 l 144 376 l 144 433 l 760 433 l 760 100 l 701 100 z "},"√":{"ha":903,"x_min":94,"x_max":732,"o":"m 475 -1 l 422 -1 l 205 526 l 94 526 l 94 582 l 249 582 l 443 98 l 676 1028 l 732 1028 l 475 -1 z "},"ƒ":{"ha":715,"x_min":77,"x_max":618,"o":"m 618 908 q 571 917 596 917 q 431 781 450 917 l 408 624 l 525 624 l 525 568 l 400 568 l 334 90 q 261 -124 313 -60 q 125 -189 209 -189 q 77 -180 102 -189 l 77 -125 q 122 -134 104 -134 q 271 86 241 -134 l 336 568 l 265 568 l 265 624 l 345 624 l 367 781 q 432 924 380 876 q 562 972 484 972 q 618 965 593 972 l 618 908 z "},"≈":{"ha":903,"x_min":167,"x_max":737,"o":"m 737 615 q 691 495 732 538 q 579 452 649 452 q 443 509 513 452 q 323 566 372 566 q 220 458 228 566 l 167 458 q 213 579 171 535 q 325 623 255 623 q 457 568 389 623 q 528 519 505 531 q 582 507 552 507 q 685 615 673 507 l 737 615 m 737 351 q 691 231 732 274 q 579 187 649 187 q 443 244 515 187 q 323 301 372 301 q 220 195 228 301 l 167 195 q 213 315 171 271 q 325 358 256 358 q 398 341 364 358 q 488 280 432 325 q 582 243 534 243 q 685 351 672 243 l 737 351 z "},"Δ":{"ha":873,"x_min":56,"x_max":818,"o":"m 56 0 l 56 40 l 407 972 l 471 972 l 818 40 l 818 0 l 56 0 m 460 814 q 447 854 452 837 q 437 888 443 871 l 435 888 q 425 852 431 872 q 412 815 419 833 l 136 61 l 736 61 l 460 814 z "},"«":{"ha":646,"x_min":83,"x_max":564,"o":"m 486 136 l 298 364 l 486 597 l 564 597 l 372 364 l 562 136 l 486 136 m 271 136 l 83 364 l 271 597 l 347 597 l 157 364 l 347 136 l 271 136 z "},"»":{"ha":646,"x_min":82,"x_max":564,"o":"m 375 136 l 298 136 l 490 370 l 298 597 l 375 597 l 564 370 l 375 136 m 161 136 l 82 136 l 275 370 l 82 597 l 160 597 l 347 370 l 161 136 z "},"…":{"ha":925,"x_min":96,"x_max":828,"o":"m 772 -11 q 734 5 749 -11 q 718 45 718 21 q 734 83 718 68 q 772 98 749 98 q 812 83 795 98 q 828 45 828 68 q 812 5 828 21 q 772 -11 795 -11 m 460 -11 q 421 5 437 -11 q 406 45 406 21 q 421 83 406 68 q 460 98 437 98 q 499 83 483 98 q 515 45 515 68 q 499 5 515 21 q 460 -11 483 -11 m 150 -11 q 111 5 127 -11 q 96 45 96 21 q 111 83 96 68 q 150 98 127 98 q 189 83 173 98 q 205 45 205 68 q 189 5 205 21 q 150 -11 173 -11 z "},"À":{"ha":873,"x_min":40,"x_max":833,"o":"m 758 0 l 647 302 l 225 302 l 114 0 l 40 0 l 407 972 l 471 972 l 833 0 l 758 0 m 460 814 q 448 854 452 834 q 437 888 443 871 l 435 888 q 412 815 423 843 l 249 364 l 624 364 l 460 814 m 488 1042 l 319 1264 l 390 1264 l 549 1042 l 488 1042 z "},"Ã":{"ha":873,"x_min":40,"x_max":833,"o":"m 758 0 l 647 302 l 225 302 l 114 0 l 40 0 l 407 972 l 471 972 l 833 0 l 758 0 m 460 814 q 448 854 452 834 q 437 888 443 871 l 435 888 q 412 815 423 843 l 249 364 l 624 364 l 460 814 m 654 1199 q 622 1088 654 1129 q 533 1048 589 1048 q 431 1099 488 1048 q 350 1137 387 1137 q 281 1040 281 1137 l 232 1040 q 264 1148 232 1107 q 351 1190 297 1190 q 460 1141 400 1190 q 539 1101 505 1101 q 585 1126 566 1101 q 604 1199 604 1151 l 654 1199 z "},"Õ":{"ha":1057,"x_min":74,"x_max":983,"o":"m 525 -17 q 196 120 319 -17 q 74 476 74 257 q 200 849 74 709 q 543 989 326 989 q 862 854 740 989 q 983 501 983 720 q 859 121 983 260 q 525 -17 734 -17 m 532 928 q 253 805 362 928 q 143 484 143 682 q 247 164 143 283 q 524 45 351 45 q 809 162 704 45 q 914 490 914 280 q 811 812 914 696 q 532 928 709 928 m 740 1198 q 707 1088 740 1128 q 618 1047 674 1047 q 516 1099 574 1047 q 435 1136 473 1136 q 366 1039 366 1136 l 317 1039 q 350 1148 317 1107 q 437 1189 382 1189 q 545 1140 486 1189 q 625 1100 591 1100 q 671 1125 652 1100 q 690 1198 690 1150 l 740 1198 z "},"Œ":{"ha":1312,"x_min":74,"x_max":1207,"o":"m 730 0 q 539 -17 612 -17 q 196 121 318 -17 q 74 476 74 258 q 201 849 74 709 q 550 989 328 989 q 730 972 646 989 l 1185 972 l 1185 911 l 798 911 l 798 521 l 1157 521 l 1157 460 l 798 460 l 798 61 l 1207 61 l 1207 0 l 730 0 m 730 909 q 546 928 642 928 q 252 804 361 928 q 143 484 143 680 q 246 165 143 286 q 538 45 349 45 q 730 65 632 45 l 730 909 z "},"œ":{"ha":1279,"x_min":61,"x_max":1231,"o":"m 717 345 q 782 121 717 203 q 964 40 848 40 q 1192 126 1082 40 l 1192 60 q 954 -17 1085 -17 q 686 184 755 -17 l 684 184 q 390 -17 605 -17 q 149 84 237 -17 q 61 343 61 185 q 154 615 61 518 q 397 711 247 711 q 579 657 503 711 q 685 510 655 603 l 688 510 q 964 711 766 711 q 1162 622 1093 711 q 1231 372 1231 532 l 1231 345 l 717 345 m 1165 401 q 1107 588 1161 522 q 960 654 1054 654 q 797 588 861 654 q 720 401 732 522 l 1165 401 m 395 654 q 199 572 272 654 q 126 342 126 489 q 197 123 126 205 q 392 40 269 40 q 585 121 517 40 q 653 347 653 203 q 586 575 653 496 q 395 654 518 654 z "},"–":{"ha":694,"x_min":0,"x_max":694,"o":"m 0 376 l 0 437 l 694 437 l 694 376 l 0 376 z "},"—":{"ha":1389,"x_min":0,"x_max":1389,"o":"m 0 376 l 0 437 l 1389 437 l 1389 376 l 0 376 z "},"“":{"ha":465,"x_min":77,"x_max":400,"o":"m 315 668 l 244 668 l 350 972 l 400 972 l 315 668 m 149 668 l 77 668 l 180 972 l 232 972 l 149 668 z "},"”":{"ha":465,"x_min":77,"x_max":400,"o":"m 296 668 l 244 668 l 328 972 l 400 972 l 296 668 m 126 668 l 77 668 l 161 972 l 232 972 l 126 668 z "},"‘":{"ha":297,"x_min":77,"x_max":232,"o":"m 149 668 l 77 668 l 180 972 l 232 972 l 149 668 z "},"’":{"ha":297,"x_min":77,"x_max":232,"o":"m 126 668 l 77 668 l 161 972 l 232 972 l 126 668 z "},"÷":{"ha":903,"x_min":144,"x_max":760,"o":"m 453 587 q 416 603 431 587 q 400 640 400 618 q 416 677 400 662 q 453 692 431 692 q 489 677 475 692 q 504 640 504 662 q 489 603 504 618 q 453 587 475 587 m 144 376 l 144 433 l 760 433 l 760 376 l 144 376 m 453 118 q 416 134 431 118 q 400 171 400 149 q 416 208 400 193 q 453 222 431 222 q 489 208 475 222 q 504 171 504 193 q 489 134 504 149 q 453 118 475 118 z "},"◊":{"ha":770,"x_min":66,"x_max":705,"o":"m 406 0 l 366 0 l 66 485 l 366 972 l 406 972 l 705 486 l 406 0 m 386 905 l 132 486 l 386 65 l 640 486 l 386 905 z "},"ÿ":{"ha":629,"x_min":14,"x_max":619,"o":"m 281 -142 q 197 -281 243 -235 q 78 -326 151 -326 q 24 -317 47 -326 l 24 -254 q 81 -264 48 -264 q 212 -149 164 -264 l 277 5 l 14 694 l 83 694 l 293 129 q 302 101 300 111 q 309 78 305 88 l 311 78 l 328 125 l 551 694 l 619 694 l 281 -142 m 431 806 q 398 819 413 806 q 383 854 383 832 q 398 888 383 876 q 430 901 412 901 q 466 888 450 901 q 481 854 481 875 q 467 820 481 833 q 431 806 452 806 m 205 806 q 172 819 186 806 q 157 854 157 832 q 172 888 157 876 q 204 901 186 901 q 239 888 224 901 q 255 854 255 875 q 241 820 255 833 q 205 806 227 806 z "},"Ÿ":{"ha":750,"x_min":41,"x_max":720,"o":"m 406 370 l 406 0 l 339 0 l 339 368 l 41 972 l 117 972 l 343 504 q 374 432 355 479 l 376 432 q 410 503 386 457 l 647 972 l 720 972 l 406 370 m 486 1041 q 452 1054 467 1041 q 437 1090 437 1067 q 452 1124 437 1111 q 484 1137 467 1137 q 520 1123 504 1137 q 536 1090 536 1110 q 521 1055 536 1069 q 486 1041 507 1041 m 260 1041 q 226 1054 241 1041 q 211 1090 211 1067 q 226 1124 211 1111 q 258 1137 241 1137 q 294 1123 278 1137 q 309 1090 309 1110 q 295 1055 309 1069 q 260 1041 281 1041 z "},"⁄":{"ha":167,"x_min":-232,"x_max":418,"o":"m -165 0 l -232 0 l 353 972 l 418 972 l -165 0 z "},"€":{"ha":715,"x_min":53,"x_max":653,"o":"m 653 36 q 467 -17 565 -17 q 261 75 346 -17 q 151 339 176 166 l 53 339 l 53 396 l 146 396 q 143 465 143 429 q 147 557 143 513 l 53 557 l 53 614 l 154 614 q 275 891 184 793 q 494 989 366 989 q 653 953 581 989 l 653 884 q 489 932 573 932 q 317 851 390 932 q 218 614 243 770 l 586 614 l 586 557 l 211 557 q 208 473 208 534 q 211 396 208 434 l 586 396 l 586 339 l 218 339 q 309 115 241 191 q 475 40 378 40 q 653 103 560 40 l 653 36 z "},"‹":{"ha":431,"x_min":83,"x_max":349,"o":"m 272 136 l 83 364 l 272 597 l 349 597 l 157 364 l 347 136 l 272 136 z "},"›":{"ha":431,"x_min":83,"x_max":349,"o":"m 161 136 l 83 136 l 277 370 l 85 597 l 161 597 l 349 370 l 161 136 z "},"ﬁ":{"ha":593,"x_min":24,"x_max":503,"o":"m 440 0 l 440 637 l 211 637 l 211 0 l 149 0 l 149 637 l 24 637 l 24 694 l 149 694 l 149 734 q 161 871 149 813 q 200 966 174 928 q 267 1021 227 1003 q 361 1039 307 1039 q 398 1038 382 1039 q 427 1036 414 1038 q 452 1032 440 1034 q 475 1027 463 1030 l 475 964 q 450 971 463 968 q 425 977 438 975 q 397 981 412 979 q 363 982 382 982 q 295 969 324 982 q 248 928 267 957 q 220 851 229 899 q 211 734 211 804 l 211 694 l 503 694 l 503 0 l 440 0 z "},"ﬂ":{"ha":627,"x_min":24,"x_max":515,"o":"m 453 0 l 453 977 q 426 981 439 979 q 394 982 412 982 q 317 969 351 982 q 259 928 283 957 q 223 851 236 899 q 211 734 211 804 l 211 694 l 377 694 l 377 637 l 211 637 l 211 0 l 149 0 l 149 637 l 24 637 l 24 694 l 149 694 l 149 734 q 165 871 149 813 q 213 966 182 928 q 290 1021 245 1003 q 392 1039 335 1039 q 428 1038 412 1039 q 459 1036 444 1038 q 487 1033 473 1035 q 515 1028 500 1031 l 515 0 l 453 0 z "},"‡":{"ha":513,"x_min":33,"x_max":480,"o":"m 480 352 l 282 372 l 302 155 l 224 155 l 244 372 l 33 352 l 33 427 l 231 413 l 256 564 l 231 714 l 33 701 l 33 775 l 244 755 l 224 972 l 302 972 l 282 755 l 480 775 l 480 701 l 296 714 l 270 564 l 296 413 l 480 427 l 480 352 z "},"·":{"ha":309,"x_min":100,"x_max":210,"o":"m 154 424 q 115 440 131 424 q 100 479 100 456 q 115 518 100 503 q 154 533 131 533 q 193 518 177 533 q 210 479 210 503 q 193 440 210 456 q 154 424 177 424 z "},"‚":{"ha":297,"x_min":53,"x_max":208,"o":"m 103 -153 l 53 -153 l 138 149 l 208 149 l 103 -153 z "},"„":{"ha":465,"x_min":53,"x_max":376,"o":"m 272 -155 l 221 -155 l 304 149 l 376 149 l 272 -155 m 103 -155 l 53 -155 l 138 149 l 208 149 l 103 -155 z "},"‰":{"ha":1658,"x_min":56,"x_max":1598,"o":"m 281 494 q 116 563 176 494 q 56 741 56 631 q 120 925 56 859 q 288 991 184 991 q 449 926 389 991 q 509 742 509 860 q 447 565 509 636 q 281 494 385 494 m 286 936 q 163 884 208 936 q 118 739 118 832 q 162 600 118 652 q 282 549 205 549 q 403 602 359 549 q 447 743 447 654 q 404 887 447 839 q 286 936 360 936 m 282 -22 l 215 -22 l 800 971 l 865 971 l 282 -22 m 1371 -17 q 1206 52 1266 -17 q 1146 229 1146 120 q 1211 415 1146 349 q 1378 481 1276 481 q 1539 414 1480 481 q 1598 231 1598 347 q 1536 54 1598 125 q 1371 -17 1474 -17 m 1377 425 q 1254 373 1300 425 q 1208 228 1208 321 q 1252 89 1208 141 q 1372 37 1295 37 q 1494 90 1450 37 q 1537 232 1537 142 q 1494 377 1537 328 q 1377 425 1451 425 m 812 -17 q 648 52 709 -17 q 587 229 587 120 q 652 415 587 349 q 819 481 718 481 q 981 414 921 481 q 1040 231 1040 348 q 978 54 1040 125 q 812 -17 916 -17 m 818 425 q 695 372 741 425 q 650 228 650 319 q 693 89 650 140 q 814 37 737 37 q 936 90 892 37 q 979 232 979 142 q 936 376 979 328 q 818 425 892 425 z "},"Â":{"ha":873,"x_min":40,"x_max":833,"o":"m 758 0 l 647 302 l 225 302 l 114 0 l 40 0 l 407 972 l 471 972 l 833 0 l 758 0 m 460 814 q 448 854 452 834 q 437 888 443 871 l 435 888 q 412 815 423 843 l 249 364 l 624 364 l 460 814 m 542 1041 l 435 1203 l 327 1041 l 271 1041 l 421 1269 l 452 1269 l 600 1041 l 542 1041 z "},"Ê":{"ha":694,"x_min":125,"x_max":602,"o":"m 125 0 l 125 972 l 579 972 l 579 911 l 192 911 l 192 521 l 551 521 l 551 460 l 192 460 l 192 61 l 602 61 l 602 0 l 125 0 m 474 1042 l 368 1204 l 259 1042 l 203 1042 l 353 1270 l 384 1270 l 532 1042 l 474 1042 z "},"Á":{"ha":873,"x_min":40,"x_max":833,"o":"m 758 0 l 647 302 l 225 302 l 114 0 l 40 0 l 407 972 l 471 972 l 833 0 l 758 0 m 460 814 q 448 854 452 834 q 437 888 443 871 l 435 888 q 412 815 423 843 l 249 364 l 624 364 l 460 814 m 382 1038 l 321 1038 l 480 1260 l 551 1260 l 382 1038 z "},"Ë":{"ha":694,"x_min":125,"x_max":602,"o":"m 125 0 l 125 972 l 579 972 l 579 911 l 192 911 l 192 521 l 551 521 l 551 460 l 192 460 l 192 61 l 602 61 l 602 0 l 125 0 m 484 1042 q 451 1055 466 1042 q 436 1090 436 1068 q 451 1124 436 1112 q 483 1137 465 1137 q 518 1124 503 1137 q 534 1090 534 1111 q 520 1056 534 1069 q 484 1042 505 1042 m 258 1042 q 224 1055 239 1042 q 210 1090 210 1068 q 224 1124 210 1112 q 257 1137 239 1137 q 292 1124 277 1137 q 308 1090 308 1111 q 294 1056 308 1069 q 258 1042 279 1042 z "},"È":{"ha":694,"x_min":125,"x_max":602,"o":"m 125 0 l 125 972 l 579 972 l 579 911 l 192 911 l 192 521 l 551 521 l 551 460 l 192 460 l 192 61 l 602 61 l 602 0 l 125 0 m 377 1042 l 209 1264 l 279 1264 l 438 1042 l 377 1042 z "},"Í":{"ha":317,"x_min":115,"x_max":345,"o":"m 125 0 l 125 972 l 192 972 l 192 0 l 125 0 m 176 1042 l 115 1042 l 274 1264 l 345 1264 l 176 1042 z "},"Î":{"ha":317,"x_min":-7,"x_max":322,"o":"m 125 0 l 125 972 l 192 972 l 192 0 l 125 0 m 264 1042 l 157 1204 l 49 1042 l -7 1042 l 143 1270 l 174 1270 l 322 1042 l 264 1042 z "},"Ï":{"ha":317,"x_min":-5,"x_max":319,"o":"m 125 0 l 125 972 l 192 972 l 192 0 l 125 0 m 269 1042 q 236 1055 251 1042 q 221 1090 221 1068 q 236 1124 221 1112 q 268 1137 250 1137 q 303 1124 288 1137 q 319 1090 319 1111 q 305 1056 319 1069 q 269 1042 290 1042 m 43 1042 q 9 1055 24 1042 q -5 1090 -5 1068 q 9 1124 -5 1112 q 42 1137 24 1137 q 77 1124 62 1137 q 93 1090 93 1111 q 79 1056 93 1069 q 43 1042 64 1042 z "},"Ì":{"ha":317,"x_min":-25,"x_max":204,"o":"m 125 0 l 125 972 l 192 972 l 192 0 l 125 0 m 143 1042 l -25 1264 l 45 1264 l 204 1042 l 143 1042 z "},"Ó":{"ha":1057,"x_min":74,"x_max":983,"o":"m 525 -17 q 196 120 319 -17 q 74 476 74 257 q 200 849 74 709 q 543 989 326 989 q 862 854 740 989 q 983 501 983 720 q 859 121 983 260 q 525 -17 734 -17 m 532 928 q 253 805 362 928 q 143 484 143 682 q 247 164 143 283 q 524 45 351 45 q 809 162 704 45 q 914 490 914 280 q 811 812 914 696 q 532 928 709 928 m 496 1042 l 435 1042 l 593 1264 l 664 1264 l 496 1042 z "},"Ô":{"ha":1057,"x_min":74,"x_max":983,"o":"m 525 -17 q 196 120 319 -17 q 74 476 74 257 q 200 849 74 709 q 543 989 326 989 q 862 854 740 989 q 983 501 983 720 q 859 121 983 260 q 525 -17 734 -17 m 532 928 q 253 805 362 928 q 143 484 143 682 q 247 164 143 283 q 524 45 351 45 q 809 162 704 45 q 914 490 914 280 q 811 812 914 696 q 532 928 709 928 m 634 1042 l 528 1204 l 419 1042 l 363 1042 l 513 1270 l 544 1270 l 692 1042 l 634 1042 z "},"Ò":{"ha":1057,"x_min":74,"x_max":983,"o":"m 525 -17 q 196 120 319 -17 q 74 476 74 257 q 200 849 74 709 q 543 989 326 989 q 862 854 740 989 q 983 501 983 720 q 859 121 983 260 q 525 -17 734 -17 m 532 928 q 253 805 362 928 q 143 484 143 682 q 247 164 143 283 q 524 45 351 45 q 809 162 704 45 q 914 490 914 280 q 811 812 914 696 q 532 928 709 928 m 587 1041 l 419 1263 l 490 1263 l 648 1041 l 587 1041 z "},"Ú":{"ha":900,"x_min":113,"x_max":787,"o":"m 787 389 q 441 -17 787 -17 q 113 374 113 -17 l 113 972 l 179 972 l 179 383 q 454 45 179 45 q 721 374 721 45 l 721 972 l 787 972 l 787 389 m 450 1041 l 389 1041 l 547 1263 l 618 1263 l 450 1041 z "},"Û":{"ha":900,"x_min":113,"x_max":787,"o":"m 787 389 q 441 -17 787 -17 q 113 374 113 -17 l 113 972 l 179 972 l 179 383 q 454 45 179 45 q 721 374 721 45 l 721 972 l 787 972 l 787 389 m 583 1042 l 476 1204 l 368 1042 l 312 1042 l 462 1270 l 492 1270 l 641 1042 l 583 1042 z "},"Ù":{"ha":900,"x_min":113,"x_max":787,"o":"m 787 389 q 441 -17 787 -17 q 113 374 113 -17 l 113 972 l 179 972 l 179 383 q 454 45 179 45 q 721 374 721 45 l 721 972 l 787 972 l 787 389 m 463 1042 l 295 1264 l 366 1264 l 524 1042 l 463 1042 z "},"ı":{"ha":285,"x_min":111,"x_max":174,"o":"m 111 0 l 111 694 l 174 694 l 174 0 l 111 0 z "},"ˆ":{"ha":519,"x_min":87,"x_max":416,"o":"m 358 806 l 252 968 l 143 806 l 87 806 l 237 1034 l 268 1034 l 416 806 l 358 806 z "},"˜":{"ha":440,"x_min":28,"x_max":450,"o":"m 450 965 q 417 854 450 895 q 329 814 385 814 q 227 865 284 814 q 146 903 183 903 q 77 806 77 903 l 28 806 q 60 915 28 873 q 147 956 93 956 q 256 907 196 956 q 335 867 301 867 q 381 892 362 867 q 400 965 400 917 l 450 965 z "},"ˉ":{"ha":431,"x_min":41,"x_max":386,"o":"m 41 806 l 41 863 l 386 863 l 386 806 l 41 806 z "},"˘":{"ha":414,"x_min":25,"x_max":389,"o":"m 389 965 q 328 849 378 892 q 204 806 278 806 q 80 848 130 806 q 25 965 31 890 l 82 965 q 120 886 86 914 q 205 857 153 857 q 287 887 252 857 q 329 965 323 916 l 389 965 z "},"˙":{"ha":248,"x_min":71,"x_max":176,"o":"m 123 806 q 86 821 102 806 q 71 859 71 836 q 86 895 71 882 q 122 908 102 908 q 160 895 143 908 q 176 859 176 882 q 161 821 176 837 q 123 806 145 806 z "},"˚":{"ha":403,"x_min":65,"x_max":338,"o":"m 201 806 q 104 840 143 806 q 65 930 65 874 q 104 1020 65 985 q 201 1055 142 1055 q 299 1021 261 1055 q 338 930 338 987 q 298 841 338 876 q 201 806 259 806 m 201 1010 q 139 988 163 1010 q 115 930 115 966 q 140 873 115 895 q 201 851 165 851 q 264 873 240 851 q 289 930 289 895 q 263 989 289 969 q 201 1010 238 1010 z "},"¸":{"ha":279,"x_min":39,"x_max":265,"o":"m 39 -292 l 39 -241 q 97 -245 73 -245 q 205 -183 205 -245 q 107 -125 205 -125 q 64 -127 85 -125 l 64 0 l 113 0 l 113 -79 q 265 -179 265 -79 q 93 -294 265 -294 q 39 -292 68 -294 z "},"˝":{"ha":429,"x_min":47,"x_max":415,"o":"m 248 806 l 197 806 l 340 1021 l 415 1021 l 248 806 m 97 806 l 47 806 l 191 1021 l 265 1021 l 97 806 z "},"˛":{"ha":245,"x_min":33,"x_max":207,"o":"m 207 0 q 92 -163 92 -92 q 149 -222 92 -222 q 203 -211 174 -222 l 203 -258 q 139 -271 170 -271 q 62 -243 92 -271 q 33 -167 33 -216 q 62 -84 33 -130 q 147 0 91 -39 l 207 0 z "},"ˇ":{"ha":519,"x_min":100,"x_max":429,"o":"m 279 806 l 249 806 l 100 1034 l 158 1034 l 265 871 l 374 1034 l 429 1034 l 279 806 z "},"Ł":{"ha":636,"x_min":47,"x_max":582,"o":"m 125 0 l 125 386 l 47 339 l 47 404 l 125 452 l 125 972 l 192 972 l 192 492 l 440 643 l 440 578 l 192 427 l 192 61 l 582 61 l 582 0 l 125 0 z "},"ł":{"ha":340,"x_min":17,"x_max":325,"o":"m 201 475 l 201 0 l 139 0 l 139 428 l 17 335 l 17 400 l 139 493 l 139 1028 l 201 1028 l 201 541 l 325 632 l 325 567 l 201 475 z "},"Š":{"ha":690,"x_min":94,"x_max":607,"o":"m 94 35 l 94 111 q 306 45 199 45 q 479 92 420 45 q 538 224 538 139 q 498 343 538 298 q 326 464 458 387 q 139 608 178 550 q 100 742 100 666 q 180 917 100 845 q 393 989 260 989 q 567 960 480 989 l 567 889 q 385 928 481 928 q 228 878 286 928 q 170 750 170 827 q 209 631 170 675 q 380 511 249 587 q 562 374 517 434 q 607 236 607 314 q 529 54 607 124 q 310 -17 452 -17 q 194 -1 260 -17 q 94 35 129 14 m 384 1063 l 353 1063 l 204 1291 l 262 1291 l 370 1128 l 478 1291 l 534 1291 l 384 1063 z "},"š":{"ha":539,"x_min":75,"x_max":476,"o":"m 75 31 l 75 106 q 161 58 111 75 q 248 40 211 40 q 411 174 411 40 q 375 252 411 220 q 258 319 339 285 q 118 409 159 363 q 78 522 78 456 q 143 659 78 607 q 302 711 208 711 q 456 675 392 711 l 456 604 q 296 654 378 654 q 185 619 227 654 q 143 526 143 583 q 170 446 143 477 q 286 375 196 415 q 435 284 395 326 q 476 174 476 243 q 414 37 476 91 q 243 -17 352 -17 q 75 31 142 -17 m 302 806 l 271 806 l 122 1034 l 180 1034 l 288 871 l 396 1034 l 452 1034 l 302 806 z "},"Ž":{"ha":791,"x_min":45,"x_max":737,"o":"m 146 61 l 728 61 l 728 0 l 45 0 l 45 21 l 633 911 l 92 911 l 92 972 l 737 972 l 737 954 l 146 61 m 439 1041 l 409 1041 l 260 1269 l 318 1269 l 425 1106 l 534 1269 l 589 1269 l 439 1041 z "},"ž":{"ha":644,"x_min":39,"x_max":606,"o":"m 140 57 l 589 57 l 589 0 l 39 0 l 39 24 l 500 637 l 72 637 l 72 694 l 606 694 l 606 677 l 140 57 m 359 806 l 329 806 l 180 1034 l 238 1034 l 345 871 l 454 1034 l 509 1034 l 359 806 z "},"¦":{"ha":314,"x_min":125,"x_max":189,"o":"m 125 485 l 125 1063 l 189 1063 l 189 485 l 125 485 m 125 -326 l 125 252 l 189 252 l 189 -326 l 125 -326 z "},"Ð":{"ha":936,"x_min":24,"x_max":863,"o":"m 125 0 l 125 453 l 24 453 l 24 513 l 125 513 l 125 972 l 368 972 q 737 852 611 972 q 863 500 863 732 q 726 137 863 275 q 354 0 589 0 l 125 0 m 192 911 l 192 513 l 465 513 l 465 453 l 192 453 l 192 61 l 345 61 q 676 173 560 61 q 793 497 793 285 q 358 911 793 911 l 192 911 z "},"ð":{"ha":739,"x_min":61,"x_max":677,"o":"m 543 648 l 546 652 q 397 852 477 774 l 195 751 l 171 799 l 358 889 q 187 1026 272 967 l 289 1026 q 415 921 344 987 l 619 1022 l 643 974 l 453 882 q 621 626 564 767 q 677 346 677 485 q 595 85 677 186 q 371 -17 513 -17 q 141 81 222 -17 q 61 343 61 178 q 148 609 61 507 q 378 711 235 711 q 543 648 477 711 m 378 654 q 195 568 264 654 q 126 342 126 482 q 192 121 126 201 q 372 40 257 40 q 548 123 483 40 q 612 347 612 205 q 378 654 612 654 z "},"Ý":{"ha":750,"x_min":41,"x_max":720,"o":"m 406 370 l 406 0 l 339 0 l 339 368 l 41 972 l 117 972 l 343 504 q 374 432 355 479 l 376 432 q 410 503 386 457 l 647 972 l 720 972 l 406 370 m 361 1063 l 300 1063 l 458 1285 l 529 1285 l 361 1063 z "},"ý":{"ha":629,"x_min":14,"x_max":619,"o":"m 281 -142 q 197 -281 243 -235 q 78 -326 151 -326 q 24 -317 47 -326 l 24 -254 q 81 -264 48 -264 q 212 -149 164 -264 l 277 5 l 14 694 l 83 694 l 293 129 q 302 101 300 111 q 309 78 305 88 l 311 78 l 328 125 l 551 694 l 619 694 l 281 -142 m 304 806 l 243 806 l 401 1028 l 472 1028 l 304 806 z "},"Þ":{"ha":755,"x_min":125,"x_max":668,"o":"m 192 229 l 192 0 l 125 0 l 125 972 l 192 972 l 192 811 l 359 811 q 668 538 668 811 q 578 314 668 399 q 329 229 488 229 l 192 229 m 192 750 l 192 290 l 330 290 q 529 352 460 290 q 599 529 599 414 q 347 750 599 750 l 192 750 z "},"þ":{"ha":778,"x_min":111,"x_max":717,"o":"m 176 123 l 174 123 l 174 -319 l 111 -319 l 111 1028 l 174 1028 l 174 551 l 176 551 q 283 670 214 628 q 436 711 353 711 q 643 620 568 711 q 717 372 717 529 q 632 91 717 198 q 407 -17 547 -17 q 176 123 251 -17 m 174 382 l 174 294 q 239 115 174 190 q 412 40 305 40 q 585 131 519 40 q 652 371 652 222 q 591 578 652 501 q 428 654 530 654 q 240 573 307 654 q 174 382 174 492 z "},"−":{"ha":903,"x_min":144,"x_max":760,"o":"m 144 376 l 144 433 l 760 433 l 760 376 l 144 376 z "},"×":{"ha":903,"x_min":184,"x_max":718,"o":"m 677 138 l 452 366 l 225 138 l 184 178 l 411 404 l 184 632 l 225 672 l 452 444 l 677 672 l 718 632 l 492 404 l 718 178 l 677 138 z "},"½":{"ha":1100,"x_min":51,"x_max":1046,"o":"m 292 0 l 225 0 l 810 972 l 875 972 l 292 0 m 220 396 l 220 901 q 186 874 205 888 q 145 848 168 861 q 99 824 123 836 q 51 803 75 812 l 51 856 q 108 882 77 865 q 168 920 138 900 q 222 959 197 940 q 260 990 246 978 l 278 990 l 278 396 l 220 396 m 1046 0 l 700 0 l 700 67 q 721 134 700 104 q 773 190 741 163 q 841 242 804 216 q 908 295 877 267 q 961 356 940 323 q 982 431 982 389 q 875 534 982 534 q 725 468 802 534 l 725 537 q 801 576 764 563 q 879 590 838 590 q 948 579 918 590 q 1000 548 979 568 q 1033 500 1021 528 q 1044 439 1044 473 q 1024 345 1044 385 q 972 274 1003 305 q 904 219 941 243 q 836 172 867 195 q 784 126 805 149 q 764 73 764 102 l 764 61 l 1046 61 l 1046 0 z "},"¼":{"ha":1026,"x_min":51,"x_max":996,"o":"m 292 0 l 225 0 l 810 972 l 875 972 l 292 0 m 220 396 l 220 901 q 186 874 205 888 q 145 848 168 861 q 99 824 123 836 q 51 803 75 812 l 51 856 q 108 882 77 865 q 168 920 138 900 q 222 959 197 940 q 260 990 246 978 l 278 990 l 278 396 l 220 396 m 921 149 l 921 0 l 865 0 l 865 149 l 599 149 l 599 195 q 737 372 671 277 q 863 576 803 467 l 921 576 l 921 201 l 996 201 l 996 149 l 921 149 m 865 489 q 826 421 846 454 q 782 353 806 388 q 730 281 759 319 q 667 201 702 244 l 865 201 l 865 489 z "},"¾":{"ha":1026,"x_min":60,"x_max":996,"o":"m 380 550 q 368 482 380 513 q 330 428 355 451 q 271 392 306 406 q 191 379 235 379 q 60 411 118 379 l 60 476 q 192 433 127 433 q 288 465 254 433 q 322 550 322 497 q 163 664 322 664 l 115 664 l 115 718 l 157 718 q 302 835 302 718 q 199 928 302 928 q 82 892 151 928 l 82 953 q 148 976 115 968 q 211 983 180 983 q 274 973 246 983 q 322 944 302 963 q 352 900 342 926 q 363 843 363 874 q 262 697 363 733 l 262 694 q 350 642 320 682 q 380 550 380 603 m 292 0 l 225 0 l 810 972 l 875 972 l 292 0 m 921 149 l 921 0 l 865 0 l 865 149 l 599 149 l 599 195 q 737 372 671 277 q 863 576 803 467 l 921 576 l 921 201 l 996 201 l 996 149 l 921 149 m 865 489 q 826 421 846 454 q 782 353 806 388 q 730 281 759 319 q 667 201 702 244 l 865 201 l 865 489 z "},"₣":{"ha":646,"x_min":17,"x_max":579,"o":"m 376 219 l 192 219 l 192 0 l 125 0 l 125 219 l 17 219 l 17 280 l 125 280 l 125 972 l 579 972 l 579 911 l 192 911 l 192 514 l 551 514 l 551 453 l 192 453 l 192 280 l 376 280 l 376 219 z "},"Ğ":{"ha":928,"x_min":74,"x_max":828,"o":"m 828 68 q 518 -17 677 -17 q 197 118 319 -17 q 74 472 74 253 q 206 841 74 693 q 559 989 338 989 q 808 937 688 989 l 808 864 q 550 928 676 928 q 255 802 366 928 q 143 482 143 677 q 248 161 143 277 q 530 45 353 45 q 761 102 662 45 l 761 422 l 532 422 l 532 484 l 828 484 l 828 68 m 715 1200 q 654 1084 704 1127 q 530 1041 604 1041 q 407 1083 456 1041 q 351 1200 357 1125 l 408 1200 q 446 1121 412 1149 q 532 1093 479 1093 q 613 1122 578 1093 q 655 1200 649 1152 l 715 1200 z "},"ğ":{"ha":778,"x_min":61,"x_max":667,"o":"m 667 52 q 581 -235 667 -144 q 315 -326 496 -326 q 109 -273 215 -326 l 109 -208 q 317 -269 218 -269 q 604 35 604 -269 l 604 125 l 602 125 q 351 -17 519 -17 q 142 76 223 -17 q 61 335 61 169 q 149 606 61 501 q 379 711 236 711 q 602 585 532 711 l 604 585 l 604 694 l 667 694 l 667 52 m 604 428 q 542 587 604 520 q 380 654 480 654 q 196 568 266 654 q 126 340 126 482 q 190 119 126 198 q 359 40 254 40 q 538 113 471 40 q 604 290 604 185 l 604 428 m 574 965 q 513 849 563 892 q 389 806 463 806 q 266 848 315 806 q 210 965 216 890 l 267 965 q 305 886 271 914 q 391 857 338 857 q 472 887 437 857 q 514 965 508 916 l 574 965 z "},"İ":{"ha":317,"x_min":104,"x_max":210,"o":"m 125 0 l 125 972 l 192 972 l 192 0 l 125 0 m 157 1042 q 120 1057 136 1042 q 104 1095 104 1072 q 120 1132 104 1118 q 155 1145 136 1145 q 193 1132 176 1145 q 210 1095 210 1118 q 194 1058 210 1074 q 157 1042 178 1042 z "},"Ş":{"ha":690,"x_min":94,"x_max":607,"o":"m 94 35 l 94 111 q 306 45 199 45 q 479 92 420 45 q 538 224 538 139 q 498 343 538 298 q 326 464 458 387 q 139 608 178 550 q 100 742 100 666 q 180 917 100 845 q 393 989 260 989 q 567 960 480 989 l 567 889 q 385 928 481 928 q 228 878 286 928 q 170 750 170 827 q 209 631 170 675 q 380 511 249 587 q 562 374 517 434 q 607 236 607 314 q 529 54 607 124 q 310 -17 452 -17 q 194 -1 260 -17 q 94 35 129 14 m 269 -292 l 269 -241 q 328 -245 303 -245 q 436 -183 436 -245 q 338 -125 436 -125 q 294 -127 316 -125 l 294 0 l 343 0 l 343 -79 q 496 -179 496 -79 q 323 -294 496 -294 q 269 -292 299 -294 z "},"ş":{"ha":539,"x_min":75,"x_max":476,"o":"m 75 31 l 75 106 q 161 58 111 75 q 248 40 211 40 q 411 174 411 40 q 375 252 411 220 q 258 319 339 285 q 118 409 159 363 q 78 522 78 456 q 143 659 78 607 q 302 711 208 711 q 456 675 392 711 l 456 604 q 296 654 378 654 q 185 619 227 654 q 143 526 143 583 q 170 446 143 477 q 286 375 196 415 q 435 284 395 326 q 476 174 476 243 q 414 37 476 91 q 243 -17 352 -17 q 75 31 142 -17 m 188 -292 l 188 -241 q 246 -245 222 -245 q 355 -183 355 -245 q 256 -125 355 -125 q 213 -127 235 -125 l 213 0 l 262 0 l 262 -79 q 414 -179 414 -79 q 242 -294 414 -294 q 188 -292 218 -294 z "},"Ć":{"ha":863,"x_min":74,"x_max":771,"o":"m 771 32 q 525 -17 653 -17 q 200 117 326 -17 q 74 467 74 251 q 210 846 74 703 q 557 989 347 989 q 771 953 669 989 l 771 882 q 555 928 669 928 q 258 804 372 928 q 143 473 143 680 q 253 160 143 275 q 530 45 362 45 q 771 97 665 45 l 771 32 m 472 1042 l 411 1042 l 570 1264 l 640 1264 l 472 1042 z "},"ć":{"ha":616,"x_min":61,"x_max":564,"o":"m 561 31 q 376 -17 484 -17 q 148 80 235 -17 q 61 335 61 178 q 159 606 61 500 q 410 711 256 711 q 564 679 489 711 l 564 608 q 400 654 489 654 q 202 567 278 654 q 126 339 126 479 q 196 122 126 204 q 379 40 265 40 q 561 96 484 40 l 561 31 m 346 806 l 285 806 l 444 1028 l 514 1028 l 346 806 z "},"Č":{"ha":863,"x_min":74,"x_max":771,"o":"m 771 32 q 525 -17 653 -17 q 200 117 326 -17 q 74 467 74 251 q 210 846 74 703 q 557 989 347 989 q 771 953 669 989 l 771 882 q 555 928 669 928 q 258 804 372 928 q 143 473 143 680 q 253 160 143 275 q 530 45 362 45 q 771 97 665 45 l 771 32 m 544 1042 l 513 1042 l 364 1270 l 422 1270 l 530 1107 l 638 1270 l 694 1270 l 544 1042 z "},"č":{"ha":616,"x_min":61,"x_max":564,"o":"m 561 31 q 376 -17 484 -17 q 148 80 235 -17 q 61 335 61 178 q 159 606 61 500 q 410 711 256 711 q 564 679 489 711 l 564 608 q 400 654 489 654 q 202 567 278 654 q 126 339 126 479 q 196 122 126 204 q 379 40 265 40 q 561 96 484 40 l 561 31 m 406 806 l 375 806 l 226 1034 l 284 1034 l 391 871 l 500 1034 l 555 1034 l 406 806 z "},"đ":{"ha":778,"x_min":61,"x_max":758,"o":"m 604 0 l 604 126 l 602 126 q 501 22 568 60 q 351 -17 435 -17 q 142 77 223 -17 q 61 335 61 170 q 150 607 61 503 q 379 711 238 711 q 602 583 535 711 l 604 583 l 604 835 l 377 835 l 377 892 l 604 892 l 604 1028 l 667 1028 l 667 892 l 758 892 l 758 835 l 667 835 l 667 0 l 604 0 m 604 422 q 543 587 604 519 q 378 654 481 654 q 197 571 269 654 q 126 340 126 487 q 190 118 126 197 q 355 40 254 40 q 539 114 474 40 q 604 293 604 187 l 604 422 z "},"¯":{"ha":576,"x_min":0,"x_max":576,"o":"m 0 1113 l 0 1174 l 576 1174 l 576 1113 l 0 1113 z "},"∙":{"ha":301,"x_min":100,"x_max":210,"o":"m 154 424 q 115 440 131 424 q 100 479 100 456 q 115 518 100 503 q 154 533 131 533 q 193 518 177 533 q 210 479 210 503 q 193 440 210 456 q 154 424 177 424 z "},"Ă":{"ha":873,"x_min":40,"x_max":833,"o":"m 758 0 l 647 302 l 225 302 l 114 0 l 40 0 l 407 972 l 471 972 l 833 0 l 758 0 m 460 814 q 448 854 452 834 q 437 888 443 871 l 435 888 q 412 815 423 843 l 249 364 l 624 364 l 460 814 m 623 1202 q 563 1085 612 1128 q 439 1042 513 1042 q 315 1084 364 1042 q 260 1202 266 1126 l 317 1202 q 354 1122 321 1151 q 440 1094 388 1094 q 522 1123 486 1094 q 564 1202 557 1153 l 623 1202 z "},"ă":{"ha":686,"x_min":72,"x_max":589,"o":"m 526 0 l 526 139 l 524 139 q 427 25 490 68 q 286 -17 363 -17 q 130 39 187 -17 q 72 179 72 94 q 313 399 72 361 l 526 431 q 358 654 526 654 q 135 562 243 654 l 135 637 q 240 690 174 668 q 364 711 306 711 q 530 645 471 711 q 589 452 589 578 l 589 0 l 526 0 m 335 346 q 182 295 226 330 q 138 182 138 260 q 179 80 138 120 q 293 40 220 40 q 460 114 393 40 q 526 306 526 189 l 526 374 l 335 346 m 532 965 q 471 849 521 892 q 347 806 421 806 q 223 848 273 806 q 168 965 174 890 l 225 965 q 263 886 229 914 q 349 857 296 857 q 430 887 395 857 q 472 965 466 916 l 532 965 z "},"Ą":{"ha":873,"x_min":40,"x_max":833,"o":"m 758 0 l 647 302 l 225 302 l 114 0 l 40 0 l 407 972 l 471 972 l 833 0 l 758 0 m 460 814 q 448 854 452 834 q 437 888 443 871 l 435 888 q 412 815 423 843 l 249 364 l 624 364 l 460 814 m 818 0 q 703 -163 703 -92 q 760 -222 703 -222 q 814 -211 785 -222 l 814 -258 q 750 -271 781 -271 q 673 -243 703 -271 q 644 -167 644 -216 q 673 -84 644 -130 q 758 0 702 -39 l 818 0 z "},"ą":{"ha":686,"x_min":72,"x_max":589,"o":"m 526 0 l 526 139 l 524 139 q 427 25 490 68 q 286 -17 363 -17 q 130 39 187 -17 q 72 179 72 94 q 313 399 72 361 l 526 431 q 358 654 526 654 q 135 562 243 654 l 135 637 q 240 690 174 668 q 364 711 306 711 q 530 645 471 711 q 589 452 589 578 l 589 0 l 526 0 m 335 346 q 182 295 226 330 q 138 182 138 260 q 179 80 138 120 q 293 40 220 40 q 460 114 393 40 q 526 306 526 189 l 526 374 l 335 346 m 586 0 q 471 -163 471 -92 q 528 -222 471 -222 q 582 -211 553 -222 l 582 -258 q 518 -271 549 -271 q 441 -243 471 -271 q 412 -167 412 -216 q 441 -84 412 -130 q 526 0 470 -39 l 586 0 z "},"Ď":{"ha":936,"x_min":125,"x_max":863,"o":"m 125 0 l 125 972 l 368 972 q 736 852 610 972 q 863 500 863 731 q 727 139 863 277 q 354 0 592 0 l 125 0 m 192 911 l 192 61 l 345 61 q 677 173 561 61 q 793 497 793 286 q 358 911 793 911 l 192 911 m 469 1042 l 438 1042 l 289 1270 l 347 1270 l 454 1107 l 563 1270 l 618 1270 l 469 1042 z "},"ď":{"ha":850,"x_min":61,"x_max":882,"o":"m 604 0 l 604 126 l 602 126 q 501 22 568 60 q 351 -17 435 -17 q 142 77 223 -17 q 61 335 61 170 q 150 607 61 503 q 379 711 238 711 q 602 583 535 711 l 604 583 l 604 1028 l 667 1028 l 667 0 l 604 0 m 604 422 q 543 587 604 519 q 378 654 481 654 q 197 571 269 654 q 126 340 126 487 q 190 118 126 197 q 355 40 254 40 q 539 114 474 40 q 604 293 604 187 l 604 422 m 882 1028 l 797 851 l 743 851 l 806 1028 l 882 1028 z "},"Đ":{"ha":936,"x_min":24,"x_max":863,"o":"m 125 0 l 125 453 l 24 453 l 24 513 l 125 513 l 125 972 l 368 972 q 737 852 611 972 q 863 500 863 732 q 726 137 863 275 q 354 0 589 0 l 125 0 m 192 911 l 192 513 l 465 513 l 465 453 l 192 453 l 192 61 l 345 61 q 676 173 560 61 q 793 497 793 285 q 358 911 793 911 l 192 911 z "},"Ę":{"ha":694,"x_min":125,"x_max":602,"o":"m 125 0 l 125 972 l 579 972 l 579 911 l 192 911 l 192 521 l 551 521 l 551 460 l 192 460 l 192 61 l 602 61 l 602 0 l 125 0 m 573 0 q 458 -163 458 -92 q 515 -222 458 -222 q 569 -211 541 -222 l 569 -258 q 505 -271 536 -271 q 429 -243 458 -271 q 399 -167 399 -216 q 428 -84 399 -130 q 513 0 457 -39 l 573 0 z "},"ę":{"ha":701,"x_min":61,"x_max":640,"o":"m 126 345 q 192 121 126 201 q 374 40 258 40 q 602 126 490 40 l 602 60 q 361 -17 494 -17 q 144 79 227 -17 q 61 351 61 176 q 148 607 61 503 q 372 711 234 711 q 571 621 502 711 q 640 372 640 530 l 640 345 l 126 345 m 575 401 q 517 588 571 522 q 370 654 464 654 q 208 589 272 654 q 129 401 144 524 l 575 401 m 458 0 q 342 -163 342 -92 q 399 -222 342 -222 q 454 -211 425 -222 l 454 -258 q 390 -271 420 -271 q 313 -243 342 -271 q 284 -167 284 -216 q 313 -84 284 -130 q 398 0 342 -39 l 458 0 z "},"Ě":{"ha":694,"x_min":125,"x_max":602,"o":"m 125 0 l 125 972 l 579 972 l 579 911 l 192 911 l 192 521 l 551 521 l 551 460 l 192 460 l 192 61 l 602 61 l 602 0 l 125 0 m 368 1042 l 337 1042 l 188 1270 l 246 1270 l 353 1107 l 462 1270 l 517 1270 l 368 1042 z "},"ě":{"ha":701,"x_min":61,"x_max":640,"o":"m 126 345 q 192 121 126 201 q 374 40 258 40 q 602 126 490 40 l 602 60 q 361 -17 494 -17 q 144 79 227 -17 q 61 351 61 176 q 148 607 61 503 q 372 711 234 711 q 571 621 502 711 q 640 372 640 530 l 640 345 l 126 345 m 575 401 q 517 588 571 522 q 370 654 464 654 q 208 589 272 654 q 129 401 144 524 l 575 401 m 377 806 l 347 806 l 197 1034 l 256 1034 l 363 871 l 471 1034 l 527 1034 l 377 806 z "},"Ĺ":{"ha":636,"x_min":125,"x_max":582,"o":"m 125 0 l 125 972 l 192 972 l 192 61 l 582 61 l 582 0 l 125 0 m 379 1042 l 318 1042 l 477 1264 l 547 1264 l 379 1042 z "},"ĺ":{"ha":285,"x_min":101,"x_max":330,"o":"m 111 0 l 111 1028 l 174 1028 l 174 0 l 111 0 m 162 1099 l 101 1099 l 260 1322 l 330 1322 l 162 1099 z "},"Ľ":{"ha":636,"x_min":125,"x_max":582,"o":"m 125 0 l 125 972 l 192 972 l 192 61 l 582 61 l 582 0 l 125 0 m 559 972 l 474 795 l 420 795 l 484 972 l 559 972 z "},"ľ":{"ha":357,"x_min":111,"x_max":389,"o":"m 111 0 l 111 1028 l 174 1028 l 174 0 l 111 0 m 389 1028 l 304 851 l 250 851 l 313 1028 l 389 1028 z "},"Ŀ":{"ha":636,"x_min":125,"x_max":582,"o":"m 125 0 l 125 972 l 192 972 l 192 61 l 582 61 l 582 0 l 125 0 m 444 424 q 406 440 421 424 q 390 479 390 456 q 406 518 390 503 q 444 533 421 533 q 484 518 467 533 q 500 479 500 503 q 484 440 500 456 q 444 424 467 424 z "},"ŀ":{"ha":365,"x_min":111,"x_max":364,"o":"m 111 0 l 111 1028 l 174 1028 l 174 0 l 111 0 m 309 424 q 270 440 286 424 q 254 479 254 456 q 270 518 254 503 q 309 533 286 533 q 348 518 332 533 q 364 479 364 503 q 348 440 364 456 q 309 424 332 424 z "},"Ń":{"ha":985,"x_min":125,"x_max":860,"o":"m 812 0 l 233 786 q 202 833 216 810 l 193 847 l 191 847 q 192 804 192 829 l 192 0 l 125 0 l 125 972 l 176 972 l 751 193 q 793 131 770 168 l 796 131 q 793 212 793 178 l 793 972 l 860 972 l 860 0 l 812 0 m 481 1042 l 420 1042 l 578 1264 l 649 1264 l 481 1042 z "},"ń":{"ha":743,"x_min":111,"x_max":646,"o":"m 583 0 l 583 404 q 403 654 583 654 q 238 581 302 654 q 174 399 174 507 l 174 0 l 111 0 l 111 694 l 174 694 l 174 568 l 176 568 q 414 711 252 711 q 586 636 526 711 q 646 422 646 562 l 646 0 l 583 0 m 366 806 l 304 806 l 463 1028 l 534 1028 l 366 806 z "},"Ň":{"ha":985,"x_min":125,"x_max":860,"o":"m 812 0 l 233 786 q 202 833 216 810 l 193 847 l 191 847 q 192 804 192 829 l 192 0 l 125 0 l 125 972 l 176 972 l 751 193 q 793 131 770 168 l 796 131 q 793 212 793 178 l 793 972 l 860 972 l 860 0 l 812 0 m 517 1042 l 487 1042 l 338 1270 l 396 1270 l 503 1107 l 612 1270 l 667 1270 l 517 1042 z "},"ň":{"ha":743,"x_min":111,"x_max":646,"o":"m 583 0 l 583 404 q 403 654 583 654 q 238 581 302 654 q 174 399 174 507 l 174 0 l 111 0 l 111 694 l 174 694 l 174 568 l 176 568 q 414 711 252 711 q 586 636 526 711 q 646 422 646 562 l 646 0 l 583 0 m 403 806 l 372 806 l 223 1034 l 281 1034 l 389 871 l 497 1034 l 553 1034 l 403 806 z "},"Ő":{"ha":1057,"x_min":74,"x_max":983,"o":"m 525 -17 q 196 120 319 -17 q 74 476 74 257 q 200 849 74 709 q 543 989 326 989 q 862 854 740 989 q 983 501 983 720 q 859 121 983 260 q 525 -17 734 -17 m 532 928 q 253 805 362 928 q 143 484 143 682 q 247 164 143 283 q 524 45 351 45 q 809 162 704 45 q 914 490 914 280 q 811 812 914 696 q 532 928 709 928 m 587 1042 l 536 1042 l 680 1257 l 754 1257 l 587 1042 m 436 1042 l 387 1042 l 530 1257 l 604 1257 l 436 1042 z "},"ő":{"ha":779,"x_min":61,"x_max":718,"o":"m 390 -17 q 150 83 238 -17 q 61 343 61 183 q 154 614 61 516 q 397 711 246 711 q 632 614 546 711 q 718 346 718 517 q 630 83 718 184 q 390 -17 543 -17 m 395 654 q 199 572 272 654 q 126 342 126 489 q 197 123 126 205 q 392 40 269 40 q 585 121 517 40 q 653 347 653 203 q 586 575 653 496 q 395 654 518 654 m 458 806 l 408 806 l 551 1021 l 626 1021 l 458 806 m 308 806 l 258 806 l 401 1021 l 476 1021 l 308 806 z "},"Ŕ":{"ha":771,"x_min":125,"x_max":699,"o":"m 623 0 l 493 285 q 413 403 453 373 q 313 433 373 433 l 192 433 l 192 0 l 125 0 l 125 972 l 395 972 q 597 903 524 972 q 671 720 671 833 q 610 544 671 614 q 441 453 550 473 l 441 450 q 554 310 499 427 l 699 0 l 623 0 m 192 911 l 192 494 l 359 494 q 536 553 471 494 q 602 713 602 611 q 543 858 602 806 q 374 911 484 911 l 192 911 m 376 1042 l 315 1042 l 474 1264 l 545 1264 l 376 1042 z "},"ŕ":{"ha":458,"x_min":111,"x_max":439,"o":"m 439 629 q 366 652 408 652 q 228 567 283 652 q 172 326 172 482 l 172 0 l 111 0 l 111 694 l 172 694 l 172 541 l 175 541 q 250 664 199 620 q 370 708 302 708 q 439 696 408 708 l 439 629 m 265 806 l 204 806 l 363 1028 l 433 1028 l 265 806 z "},"Ř":{"ha":771,"x_min":125,"x_max":699,"o":"m 623 0 l 493 285 q 413 403 453 373 q 313 433 373 433 l 192 433 l 192 0 l 125 0 l 125 972 l 395 972 q 597 903 524 972 q 671 720 671 833 q 610 544 671 614 q 441 453 550 473 l 441 450 q 554 310 499 427 l 699 0 l 623 0 m 192 911 l 192 494 l 359 494 q 536 553 471 494 q 602 713 602 611 q 543 858 602 806 q 374 911 484 911 l 192 911 m 391 1042 l 360 1042 l 211 1270 l 269 1270 l 376 1107 l 485 1270 l 541 1270 l 391 1042 z "},"ř":{"ha":458,"x_min":100,"x_max":439,"o":"m 439 629 q 366 652 408 652 q 228 567 283 652 q 172 326 172 482 l 172 0 l 111 0 l 111 694 l 172 694 l 172 541 l 175 541 q 250 664 199 620 q 370 708 302 708 q 439 696 408 708 l 439 629 m 279 806 l 249 806 l 100 1034 l 158 1034 l 265 871 l 374 1034 l 429 1034 l 279 806 z "},"Ś":{"ha":690,"x_min":94,"x_max":607,"o":"m 94 35 l 94 111 q 306 45 199 45 q 479 92 420 45 q 538 224 538 139 q 498 343 538 298 q 326 464 458 387 q 139 608 178 550 q 100 742 100 666 q 180 917 100 845 q 393 989 260 989 q 567 960 480 989 l 567 889 q 385 928 481 928 q 228 878 286 928 q 170 750 170 827 q 209 631 170 675 q 380 511 249 587 q 562 374 517 434 q 607 236 607 314 q 529 54 607 124 q 310 -17 452 -17 q 194 -1 260 -17 q 94 35 129 14 m 338 1041 l 277 1041 l 435 1263 l 506 1263 l 338 1041 z "},"ś":{"ha":539,"x_min":75,"x_max":476,"o":"m 75 31 l 75 106 q 161 58 111 75 q 248 40 211 40 q 411 174 411 40 q 375 252 411 220 q 258 319 339 285 q 118 409 159 363 q 78 522 78 456 q 143 659 78 607 q 302 711 208 711 q 456 675 392 711 l 456 604 q 296 654 378 654 q 185 619 227 654 q 143 526 143 583 q 170 446 143 477 q 286 375 196 415 q 435 284 395 326 q 476 174 476 243 q 414 37 476 91 q 243 -17 352 -17 q 75 31 142 -17 m 258 806 l 197 806 l 356 1028 l 427 1028 l 258 806 z "},"Ţ":{"ha":710,"x_min":41,"x_max":669,"o":"m 389 911 l 389 0 l 322 0 l 322 911 l 41 911 l 41 972 l 669 972 l 669 911 l 389 911 m 303 -292 l 303 -241 q 361 -245 337 -245 q 470 -183 470 -245 q 372 -125 470 -125 q 328 -127 350 -125 l 328 0 l 377 0 l 377 -79 q 530 -179 530 -79 q 357 -294 530 -294 q 303 -292 333 -294 z "},"ţ":{"ha":412,"x_min":16,"x_max":415,"o":"m 386 9 q 294 -14 337 -14 q 140 171 140 -14 l 140 637 l 16 637 l 16 694 l 140 694 l 140 875 q 172 886 155 880 q 203 896 188 890 l 203 694 l 386 694 l 386 637 l 203 637 l 203 179 q 225 75 203 107 q 302 43 248 43 q 386 68 341 43 l 386 9 m 189 -292 l 189 -241 q 247 -245 222 -245 q 355 -183 355 -245 q 257 -125 355 -125 q 214 -127 235 -125 l 214 0 l 262 0 l 262 -79 q 415 -179 415 -79 q 243 -294 415 -294 q 189 -292 218 -294 z "},"Ť":{"ha":710,"x_min":41,"x_max":669,"o":"m 389 911 l 389 0 l 322 0 l 322 911 l 41 911 l 41 972 l 669 972 l 669 911 l 389 911 m 371 1042 l 340 1042 l 191 1270 l 250 1270 l 357 1107 l 465 1270 l 521 1270 l 371 1042 z "},"ť":{"ha":450,"x_min":16,"x_max":458,"o":"m 386 9 q 294 -14 337 -14 q 140 171 140 -14 l 140 637 l 16 637 l 16 694 l 140 694 l 140 875 q 172 886 155 880 q 203 896 188 890 l 203 694 l 386 694 l 386 637 l 203 637 l 203 179 q 225 75 203 107 q 302 43 248 43 q 386 68 341 43 l 386 9 m 458 1028 l 372 851 l 319 851 l 382 1028 l 458 1028 z "},"Ů":{"ha":900,"x_min":113,"x_max":787,"o":"m 787 389 q 441 -17 787 -17 q 113 374 113 -17 l 113 972 l 179 972 l 179 383 q 454 45 179 45 q 721 374 721 45 l 721 972 l 787 972 l 787 389 m 456 1041 q 359 1075 398 1041 q 320 1166 320 1109 q 359 1255 320 1220 q 456 1291 397 1291 q 554 1256 516 1291 q 593 1166 593 1222 q 553 1076 593 1112 q 456 1041 514 1041 m 456 1245 q 394 1223 418 1245 q 370 1166 370 1202 q 395 1108 370 1130 q 456 1086 420 1086 q 519 1108 495 1086 q 544 1166 544 1131 q 518 1225 544 1204 q 456 1245 493 1245 z "},"ů":{"ha":743,"x_min":97,"x_max":632,"o":"m 570 0 l 570 126 l 567 126 q 343 -17 494 -17 q 97 293 97 -17 l 97 694 l 160 694 l 160 309 q 207 104 160 168 q 353 40 253 40 q 510 111 450 40 q 570 301 570 182 l 570 694 l 632 694 l 632 0 l 570 0 m 365 806 q 268 840 307 806 q 229 930 229 874 q 267 1020 229 985 q 365 1055 306 1055 q 463 1021 425 1055 q 501 930 501 987 q 462 841 501 876 q 365 806 422 806 m 365 1010 q 302 988 326 1010 q 279 930 279 966 q 303 873 279 895 q 365 851 328 851 q 428 873 404 851 q 452 930 452 895 q 427 989 452 969 q 365 1010 401 1010 z "},"Ű":{"ha":900,"x_min":113,"x_max":787,"o":"m 787 389 q 441 -17 787 -17 q 113 374 113 -17 l 113 972 l 179 972 l 179 383 q 454 45 179 45 q 721 374 721 45 l 721 972 l 787 972 l 787 389 m 514 1042 l 464 1042 l 607 1257 l 682 1257 l 514 1042 m 363 1042 l 314 1042 l 457 1257 l 532 1257 l 363 1042 z "},"ű":{"ha":743,"x_min":97,"x_max":632,"o":"m 570 0 l 570 126 l 567 126 q 343 -17 494 -17 q 97 293 97 -17 l 97 694 l 160 694 l 160 309 q 207 104 160 168 q 353 40 253 40 q 510 111 450 40 q 570 301 570 182 l 570 694 l 632 694 l 632 0 l 570 0 m 436 806 l 386 806 l 529 1021 l 604 1021 l 436 806 m 286 806 l 236 806 l 379 1021 l 454 1021 l 286 806 z "},"Ź":{"ha":791,"x_min":45,"x_max":737,"o":"m 146 61 l 728 61 l 728 0 l 45 0 l 45 21 l 633 911 l 92 911 l 92 972 l 737 972 l 737 954 l 146 61 m 404 1042 l 343 1042 l 502 1265 l 572 1265 l 404 1042 z "},"ź":{"ha":644,"x_min":39,"x_max":606,"o":"m 140 57 l 589 57 l 589 0 l 39 0 l 39 24 l 500 637 l 72 637 l 72 694 l 606 694 l 606 677 l 140 57 m 326 806 l 265 806 l 424 1028 l 494 1028 l 326 806 z "},"Ż":{"ha":791,"x_min":45,"x_max":737,"o":"m 146 61 l 728 61 l 728 0 l 45 0 l 45 21 l 633 911 l 92 911 l 92 972 l 737 972 l 737 954 l 146 61 m 416 1041 q 379 1056 395 1041 q 363 1094 363 1071 q 379 1130 363 1117 q 414 1143 395 1143 q 452 1130 435 1143 q 469 1094 469 1117 q 453 1057 469 1072 q 416 1041 437 1041 z "},"ż":{"ha":644,"x_min":39,"x_max":606,"o":"m 140 57 l 589 57 l 589 0 l 39 0 l 39 24 l 500 637 l 72 637 l 72 694 l 606 694 l 606 677 l 140 57 m 338 806 q 301 821 317 806 q 286 859 286 836 q 301 895 286 882 q 337 908 317 908 q 375 895 358 908 q 391 859 391 882 q 376 821 391 837 q 338 806 360 806 z "},"Γ":{"ha":636,"x_min":125,"x_max":582,"o":"m 192 911 l 192 0 l 125 0 l 125 972 l 582 972 l 582 911 l 192 911 z "},"Θ":{"ha":1057,"x_min":74,"x_max":983,"o":"m 983 501 q 948 275 983 372 q 851 113 913 178 q 706 16 790 48 q 525 -17 623 -17 q 331 22 415 -17 q 190 127 247 60 q 103 284 132 194 q 74 476 74 374 q 104 681 74 587 q 194 843 135 774 q 341 950 254 911 q 543 989 429 989 q 726 952 644 989 q 864 852 807 916 q 952 697 922 787 q 983 501 983 608 m 914 490 q 886 681 914 599 q 807 817 858 762 q 686 900 757 872 q 532 928 616 928 q 377 897 448 928 q 254 808 307 865 q 173 668 202 750 q 143 484 143 585 q 170 301 143 382 q 247 163 197 220 q 367 75 297 106 q 524 45 437 45 q 681 73 610 45 q 805 157 753 101 q 885 296 857 213 q 914 490 914 380 m 358 456 l 358 517 l 699 517 l 699 456 l 358 456 z "},"Φ":{"ha":1067,"x_min":74,"x_max":993,"o":"m 993 509 q 978 387 993 441 q 938 291 964 333 q 876 220 911 250 q 800 171 841 190 q 712 143 758 152 q 621 134 667 134 l 567 134 l 567 -11 l 500 -11 l 500 134 l 447 134 q 291 160 360 134 q 174 234 222 186 q 100 351 125 282 q 74 507 74 420 q 103 668 74 599 q 184 783 133 736 q 303 852 235 829 q 449 875 371 875 l 500 875 l 500 983 l 567 983 l 567 875 l 618 875 q 774 848 705 875 q 892 773 844 822 q 967 657 941 725 q 993 509 993 590 m 924 507 q 903 636 924 579 q 842 733 882 693 q 746 793 802 772 q 618 814 689 814 l 567 814 l 567 195 l 621 195 q 747 215 691 195 q 843 276 804 236 q 903 374 882 316 q 924 507 924 432 m 500 814 l 449 814 q 332 797 387 814 q 235 742 277 779 q 168 646 193 705 q 143 505 143 587 q 168 362 143 421 q 234 266 193 303 q 331 212 276 229 q 447 195 386 195 l 500 195 l 500 814 z "},"α":{"ha":829,"x_min":61,"x_max":807,"o":"m 599 340 q 563 460 581 404 q 519 561 545 517 q 457 629 494 604 q 367 654 421 654 q 266 630 311 654 q 191 563 222 606 q 143 459 159 519 q 127 325 127 398 q 142 205 127 258 q 184 116 157 153 q 251 60 212 79 q 339 40 290 40 q 416 58 380 40 q 481 110 451 76 q 536 191 511 143 q 583 297 561 238 l 599 340 m 749 -8 q 708 6 726 -8 q 677 52 691 21 q 650 131 663 83 q 622 245 637 178 l 619 245 q 559 125 590 174 q 492 44 528 75 q 416 -2 457 12 q 326 -17 375 -17 q 218 7 267 -17 q 134 75 169 31 q 80 181 100 119 q 61 321 61 243 q 81 478 61 407 q 140 602 102 550 q 236 683 179 654 q 366 711 292 711 q 441 700 408 711 q 501 668 475 688 q 547 621 527 648 q 582 562 566 593 q 609 497 597 531 q 631 431 621 464 l 632 431 q 651 488 639 454 q 676 558 663 522 q 702 631 690 595 q 723 694 715 667 l 793 694 q 764 616 781 661 q 728 522 747 570 q 690 427 709 474 q 657 342 671 379 q 685 231 673 277 q 707 152 697 184 q 725 99 717 119 q 741 67 733 79 q 755 53 748 56 q 770 49 762 49 q 789 51 780 49 q 807 56 798 52 l 807 1 q 779 -6 793 -3 q 749 -8 766 -8 z "},"δ":{"ha":803,"x_min":61,"x_max":742,"o":"m 742 311 q 718 178 742 239 q 648 75 693 118 q 540 7 604 31 q 397 -17 476 -17 q 260 7 322 -17 q 154 74 199 32 q 85 174 110 117 q 61 297 61 231 q 88 430 61 372 q 159 531 115 488 q 259 605 203 575 q 372 654 315 635 q 315 692 346 671 q 257 741 284 713 q 213 802 231 768 q 195 880 195 836 q 214 951 195 920 q 267 1003 233 982 q 348 1034 301 1023 q 450 1044 395 1044 q 569 1030 515 1044 q 667 996 623 1015 l 667 924 q 616 949 643 938 q 562 969 590 961 q 506 983 534 978 q 451 987 477 987 q 310 958 359 987 q 261 875 261 928 q 276 818 261 843 q 319 768 290 793 q 393 715 349 743 q 496 653 437 688 q 596 583 551 621 q 674 503 642 545 q 724 412 707 460 q 742 311 742 364 m 676 301 q 655 407 676 360 q 600 492 634 454 q 521 561 565 530 q 432 618 477 592 q 370 596 404 609 q 302 566 336 584 q 237 525 269 549 q 180 469 205 500 q 141 395 156 437 q 126 302 126 354 q 149 190 126 239 q 210 108 172 141 q 298 57 248 75 q 404 40 349 40 q 509 57 460 40 q 596 108 559 75 q 654 190 633 142 q 676 301 676 239 z "},"ε":{"ha":608,"x_min":56,"x_max":561,"o":"m 561 20 q 516 6 543 12 q 460 -6 490 -1 q 400 -14 431 -11 q 342 -17 369 -17 q 212 -1 266 -17 q 123 43 157 16 q 72 107 88 71 q 56 186 56 144 q 71 255 56 224 q 111 309 85 286 q 168 346 136 332 q 236 366 201 361 l 236 368 q 180 387 208 374 q 131 419 153 399 q 96 465 109 439 q 82 525 82 492 q 105 614 82 578 q 165 671 128 650 q 249 702 202 693 q 343 711 296 711 q 392 708 366 711 q 444 700 418 705 q 492 689 469 694 q 530 677 514 683 l 530 612 q 487 628 511 621 q 438 642 463 636 q 388 651 413 648 q 342 654 363 654 q 194 620 241 654 q 147 524 147 586 q 171 455 147 481 q 232 414 195 429 q 311 394 268 399 q 390 389 353 389 q 408 389 397 389 q 430 389 419 389 q 452 389 441 389 q 469 390 463 389 l 469 330 q 441 331 456 330 q 412 331 429 331 q 375 332 395 332 q 185 296 250 332 q 121 184 121 261 q 134 128 121 155 q 174 82 146 102 q 246 51 202 62 q 353 40 290 40 q 407 44 378 40 q 462 55 435 48 q 515 69 490 61 q 561 85 541 77 l 561 20 z "},"σ":{"ha":779,"x_min":61,"x_max":768,"o":"m 593 640 q 629 584 611 614 q 661 516 646 553 q 683 433 675 479 q 692 330 692 388 q 672 197 692 260 q 612 86 652 134 q 515 11 573 39 q 380 -17 456 -17 q 247 9 307 -17 q 146 83 188 36 q 83 196 105 130 q 61 340 61 262 q 81 488 61 422 q 143 600 101 554 q 250 670 185 646 q 404 694 315 694 l 768 694 l 768 640 l 593 640 m 627 339 q 617 438 627 393 q 593 519 608 482 q 562 585 579 555 q 529 640 545 615 l 415 640 q 284 621 339 640 q 195 562 230 601 q 143 467 159 524 q 126 338 126 411 q 145 217 126 271 q 198 123 164 162 q 278 62 231 83 q 380 40 325 40 q 483 62 437 40 q 560 123 528 84 q 609 218 592 163 q 627 339 627 273 z "},"τ":{"ha":676,"x_min":29,"x_max":648,"o":"m 359 640 l 359 171 q 367 114 359 137 q 388 76 375 90 q 419 55 401 62 q 458 49 437 49 q 486 51 468 49 q 519 57 505 53 l 519 1 q 484 -6 500 -4 q 453 -8 469 -8 q 333 44 370 -8 q 297 191 297 96 l 297 640 l 182 640 q 98 627 138 640 q 29 597 58 613 l 29 657 q 94 683 56 671 q 182 694 132 694 l 648 694 l 648 640 l 359 640 z "},"φ":{"ha":960,"x_min":60,"x_max":900,"o":"m 900 345 q 878 211 900 276 q 812 95 856 146 q 705 14 769 45 q 555 -17 640 -17 l 510 -17 l 510 -326 l 447 -326 l 447 -17 l 406 -17 q 265 8 328 -17 q 156 79 201 33 q 85 194 110 126 q 60 346 60 261 q 71 452 60 401 q 102 548 83 503 q 146 629 121 592 q 199 694 172 666 l 271 694 q 216 624 242 661 q 169 543 189 586 q 137 450 149 499 q 125 343 125 400 q 149 207 125 264 q 213 113 174 150 q 302 58 252 75 q 403 40 352 40 l 447 40 l 447 538 q 491 665 447 618 q 621 711 535 711 q 736 684 684 711 q 824 608 788 656 q 880 491 861 559 q 900 345 900 424 m 835 349 q 817 476 835 419 q 770 572 800 532 q 703 633 741 612 q 624 654 665 654 q 573 646 594 654 q 537 621 551 637 q 517 585 524 606 q 510 539 510 564 l 510 40 l 555 40 q 669 63 618 40 q 758 128 721 87 q 814 226 794 170 q 835 349 835 282 z "},"‗":{"ha":576,"x_min":0,"x_max":576,"o":"m 0 -373 l 0 -312 l 576 -312 l 576 -373 l 0 -373 m 0 -182 l 0 -121 l 576 -121 l 576 -182 l 0 -182 z "},"‼":{"ha":627,"x_min":143,"x_max":484,"o":"m 225 273 l 167 273 l 160 972 l 232 972 l 225 273 m 197 -12 q 159 4 174 -12 q 143 43 143 20 q 159 82 143 66 q 197 97 174 97 q 237 82 220 97 q 253 43 253 66 q 237 4 253 20 q 197 -12 220 -12 m 456 273 l 398 273 l 391 972 l 463 972 l 456 273 m 429 -12 q 390 4 406 -12 q 374 43 374 20 q 390 82 374 66 q 429 97 406 97 q 468 82 452 97 q 484 43 484 66 q 468 4 484 20 q 429 -12 452 -12 z "},"ⁿ":{"ha":545,"x_min":85,"x_max":468,"o":"m 406 486 l 406 762 q 294 932 406 932 q 189 882 230 932 q 147 758 147 831 l 147 486 l 85 486 l 85 972 l 143 972 l 143 884 l 144 884 q 301 985 195 985 q 425 932 382 985 q 468 783 468 880 l 468 486 l 406 486 z "},"₧":{"ha":1504,"x_min":125,"x_max":1441,"o":"m 192 390 l 192 0 l 125 0 l 125 972 l 326 972 q 555 903 477 972 q 634 700 634 834 q 545 477 634 564 q 298 390 456 390 l 192 390 m 192 911 l 192 452 l 296 452 q 497 514 429 452 q 565 692 565 576 q 313 911 565 911 l 192 911 m 1009 9 q 918 -14 961 -14 q 764 171 764 -14 l 764 503 l 659 503 l 659 559 l 764 559 l 764 740 l 826 761 l 826 559 l 1009 559 l 1009 503 l 826 503 l 826 179 q 849 78 826 113 q 926 43 871 43 q 1009 68 965 43 l 1009 9 m 1070 31 l 1070 106 q 1103 80 1084 92 q 1145 59 1123 68 q 1189 45 1167 50 q 1229 40 1211 40 q 1339 67 1299 40 q 1380 148 1380 95 q 1370 191 1380 173 q 1340 224 1360 210 q 1294 251 1321 239 q 1232 275 1267 263 q 1167 303 1197 288 q 1117 337 1138 317 q 1084 382 1096 356 q 1073 442 1073 408 q 1089 510 1073 480 q 1132 559 1105 539 q 1194 590 1159 579 q 1266 600 1229 600 q 1346 592 1305 600 q 1416 568 1386 584 l 1416 500 q 1381 519 1400 511 q 1343 533 1362 527 q 1303 541 1323 538 q 1267 544 1284 544 q 1215 538 1239 544 q 1172 519 1190 532 q 1143 488 1154 507 q 1133 442 1133 469 q 1141 403 1133 420 q 1166 373 1149 386 q 1206 349 1182 359 q 1262 326 1230 338 q 1333 297 1300 313 q 1389 262 1365 282 q 1427 214 1413 241 q 1441 150 1441 187 q 1425 76 1441 107 q 1380 24 1409 44 q 1315 -7 1352 3 q 1234 -17 1277 -17 q 1145 -5 1189 -17 q 1070 31 1101 7 z "},"Ĳ":{"ha":781,"x_min":125,"x_max":661,"o":"m 661 335 q 416 -17 661 -17 q 342 -7 378 -17 l 342 58 q 418 45 382 45 q 553 116 511 45 q 594 336 594 186 l 594 972 l 661 972 l 661 335 m 125 0 l 125 972 l 192 972 l 192 0 l 125 0 z "},"ĳ":{"ha":570,"x_min":90,"x_max":479,"o":"m 142 869 q 106 884 121 869 q 90 922 90 899 q 106 959 90 945 q 142 972 122 972 q 179 959 163 972 q 195 922 195 945 q 179 885 195 901 q 142 869 163 869 m 111 0 l 111 694 l 174 694 l 174 0 l 111 0 m 427 869 q 391 884 406 869 q 375 922 375 899 q 391 959 375 945 q 427 972 407 972 q 464 959 448 972 q 479 922 479 945 q 464 885 479 901 q 427 869 448 869 m 458 20 q 213 -326 458 -326 q 114 -302 164 -326 l 114 -237 q 220 -269 168 -269 q 396 8 396 -269 l 396 694 l 458 694 l 458 20 z "},"ŉ":{"ha":798,"x_min":-18,"x_max":700,"o":"m 637 0 l 637 404 q 457 654 637 654 q 292 581 357 654 q 228 399 228 507 l 228 0 l 165 0 l 165 694 l 228 694 l 228 568 l 231 568 q 468 711 307 711 q 640 636 581 711 q 700 422 700 562 l 700 0 l 637 0 m 32 668 l -18 668 l 67 972 l 138 972 l 32 668 z "},"′":{"ha":339,"x_min":109,"x_max":231,"o":"m 231 972 l 165 663 l 109 663 l 152 972 l 231 972 z "},"″":{"ha":550,"x_min":109,"x_max":441,"o":"m 231 972 l 165 663 l 109 663 l 152 972 l 231 972 m 441 972 l 376 663 l 319 663 l 363 972 l 441 972 z "},"℅":{"ha":1114,"x_min":92,"x_max":1021,"o":"m 1021 290 q 949 81 1021 170 q 760 -14 873 -14 q 602 56 653 -14 q 562 187 562 110 q 635 393 562 304 q 829 489 713 489 q 969 436 918 489 q 1021 290 1021 384 m 984 972 l 165 0 l 92 0 l 911 972 l 984 972 m 959 287 q 828 434 959 434 q 678 351 738 434 q 625 186 625 276 q 762 41 625 41 q 904 117 847 41 q 959 287 959 189 m 492 892 q 370 929 434 929 q 212 845 271 929 q 164 689 164 775 q 298 541 164 541 q 429 581 354 541 l 410 511 q 283 484 344 484 q 146 541 194 484 q 100 683 100 595 q 173 894 100 808 q 380 986 252 986 q 511 956 461 986 l 492 892 z "},"ℓ":{"ha":449,"x_min":2,"x_max":437,"o":"m 2 307 l 131 459 l 131 754 q 136 849 131 803 q 159 931 142 895 q 208 989 176 968 q 292 1011 239 1011 q 351 1002 324 1011 q 397 974 378 992 q 427 929 416 956 q 437 867 437 902 q 422 786 437 829 q 377 692 408 743 q 301 582 347 642 q 193 449 255 522 l 193 178 q 198 120 193 146 q 212 77 202 95 q 240 50 222 59 q 283 40 257 40 q 348 60 314 40 q 418 112 381 80 l 418 45 q 347 -1 382 15 q 265 -17 311 -17 q 164 29 197 -17 q 131 178 131 75 l 131 376 l 43 271 l 2 307 m 193 532 q 329 717 281 635 q 376 866 376 799 q 369 907 376 890 q 351 935 362 924 q 324 951 339 946 q 292 956 309 956 q 240 940 259 956 q 210 895 220 923 q 196 829 199 867 q 193 751 193 792 l 193 532 z "},"□":{"ha":839,"x_min":98,"x_max":739,"o":"m 98 640 l 739 640 l 739 0 l 98 0 l 98 640 m 150 589 l 150 52 l 688 52 l 688 589 l 150 589 z "},"▪":{"ha":492,"x_min":89,"x_max":403,"o":"m 403 615 l 403 301 l 89 301 l 89 615 l 403 615 z "},"▫":{"ha":492,"x_min":89,"x_max":403,"o":"m 403 615 l 403 301 l 89 301 l 89 615 l 403 615 m 351 564 l 140 564 l 140 353 l 351 353 l 351 564 z "},"●":{"ha":839,"x_min":121,"x_max":718,"o":"m 419 690 q 569 650 498 690 q 677 542 640 610 q 718 392 718 469 q 632 180 718 267 q 421 93 545 93 q 209 180 296 93 q 121 392 121 267 q 161 543 121 473 q 274 652 202 614 q 419 690 345 690 z "},"◦":{"ha":492,"x_min":76,"x_max":416,"o":"m 246 629 q 367 579 317 629 q 416 460 416 530 q 367 339 416 389 q 246 289 317 289 q 126 339 176 289 q 76 460 76 389 q 126 579 76 529 q 246 629 176 629 m 245 578 q 162 543 197 578 q 127 460 127 509 q 162 375 127 410 q 247 340 197 340 q 331 375 296 340 q 365 460 365 410 q 330 544 365 509 q 245 578 295 578 z "},"Ā":{"ha":873,"x_min":40,"x_max":833,"o":"m 758 0 l 647 302 l 225 302 l 114 0 l 40 0 l 407 972 l 471 972 l 833 0 l 758 0 m 460 814 q 448 854 452 834 q 437 888 443 871 l 435 888 q 412 815 423 843 l 249 364 l 624 364 l 460 814 m 263 1042 l 263 1099 l 608 1099 l 608 1042 l 263 1042 z "},"ā":{"ha":686,"x_min":72,"x_max":589,"o":"m 526 0 l 526 139 l 524 139 q 427 25 490 68 q 286 -17 363 -17 q 130 39 187 -17 q 72 179 72 94 q 313 399 72 361 l 526 431 q 358 654 526 654 q 135 562 243 654 l 135 637 q 240 690 174 668 q 364 711 306 711 q 530 645 471 711 q 589 452 589 578 l 589 0 l 526 0 m 335 346 q 182 295 226 330 q 138 182 138 260 q 179 80 138 120 q 293 40 220 40 q 460 114 393 40 q 526 306 526 189 l 526 374 l 335 346 m 181 806 l 181 863 l 526 863 l 526 806 l 181 806 z "},"Ĉ":{"ha":863,"x_min":74,"x_max":771,"o":"m 771 32 q 525 -17 653 -17 q 200 117 326 -17 q 74 467 74 251 q 210 846 74 703 q 557 989 347 989 q 771 953 669 989 l 771 882 q 555 928 669 928 q 258 804 372 928 q 143 473 143 680 q 253 160 143 275 q 530 45 362 45 q 771 97 665 45 l 771 32 m 624 1042 l 517 1204 l 409 1042 l 353 1042 l 503 1270 l 534 1270 l 682 1042 l 624 1042 z "},"ĉ":{"ha":616,"x_min":61,"x_max":564,"o":"m 561 31 q 376 -17 484 -17 q 148 80 235 -17 q 61 335 61 178 q 159 606 61 500 q 410 711 256 711 q 564 679 489 711 l 564 608 q 400 654 489 654 q 202 567 278 654 q 126 339 126 479 q 196 122 126 204 q 379 40 265 40 q 561 96 484 40 l 561 31 m 477 806 l 371 968 l 262 806 l 207 806 l 357 1034 l 387 1034 l 536 806 l 477 806 z "},"Ċ":{"ha":863,"x_min":74,"x_max":771,"o":"m 771 32 q 525 -17 653 -17 q 200 117 326 -17 q 74 467 74 251 q 210 846 74 703 q 557 989 347 989 q 771 953 669 989 l 771 882 q 555 928 669 928 q 258 804 372 928 q 143 473 143 680 q 253 160 143 275 q 530 45 362 45 q 771 97 665 45 l 771 32 m 520 1042 q 483 1057 499 1042 q 467 1095 467 1072 q 483 1131 467 1118 q 519 1144 499 1144 q 556 1131 540 1144 q 573 1095 573 1118 q 557 1057 573 1073 q 520 1042 542 1042 z "},"ċ":{"ha":616,"x_min":61,"x_max":564,"o":"m 561 31 q 376 -17 484 -17 q 148 80 235 -17 q 61 335 61 178 q 159 606 61 500 q 410 711 256 711 q 564 679 489 711 l 564 608 q 400 654 489 654 q 202 567 278 654 q 126 339 126 479 q 196 122 126 204 q 379 40 265 40 q 561 96 484 40 l 561 31 m 380 806 q 343 821 359 806 q 327 859 327 836 q 343 895 327 882 q 378 908 359 908 q 416 895 399 908 q 433 859 433 882 q 417 821 433 837 q 380 806 401 806 z "},"Ē":{"ha":694,"x_min":125,"x_max":602,"o":"m 125 0 l 125 972 l 579 972 l 579 911 l 192 911 l 192 521 l 551 521 l 551 460 l 192 460 l 192 61 l 602 61 l 602 0 l 125 0 m 185 1041 l 185 1098 l 530 1098 l 530 1041 l 185 1041 z "},"ē":{"ha":701,"x_min":61,"x_max":640,"o":"m 126 345 q 192 121 126 201 q 374 40 258 40 q 602 126 490 40 l 602 60 q 361 -17 494 -17 q 144 79 227 -17 q 61 351 61 176 q 148 607 61 503 q 372 711 234 711 q 571 621 502 711 q 640 372 640 530 l 640 345 l 126 345 m 575 401 q 517 588 571 522 q 370 654 464 654 q 208 589 272 654 q 129 401 144 524 l 575 401 m 193 806 l 193 863 l 538 863 l 538 806 l 193 806 z "},"Ĕ":{"ha":694,"x_min":125,"x_max":602,"o":"m 125 0 l 125 972 l 579 972 l 579 911 l 192 911 l 192 521 l 551 521 l 551 460 l 192 460 l 192 61 l 602 61 l 602 0 l 125 0 m 546 1202 q 485 1085 535 1128 q 361 1042 435 1042 q 238 1084 287 1042 q 182 1202 189 1126 l 239 1202 q 277 1122 243 1151 q 363 1094 311 1094 q 445 1123 409 1094 q 486 1202 480 1153 l 546 1202 z "},"ĕ":{"ha":701,"x_min":61,"x_max":640,"o":"m 126 345 q 192 121 126 201 q 374 40 258 40 q 602 126 490 40 l 602 60 q 361 -17 494 -17 q 144 79 227 -17 q 61 351 61 176 q 148 607 61 503 q 372 711 234 711 q 571 621 502 711 q 640 372 640 530 l 640 345 l 126 345 m 575 401 q 517 588 571 522 q 370 654 464 654 q 208 589 272 654 q 129 401 144 524 l 575 401 m 549 965 q 489 849 538 892 q 365 806 439 806 q 241 848 290 806 q 186 965 192 890 l 243 965 q 280 886 247 914 q 366 857 314 857 q 448 887 412 857 q 490 965 484 916 l 549 965 z "},"Ė":{"ha":694,"x_min":125,"x_max":602,"o":"m 125 0 l 125 972 l 579 972 l 579 911 l 192 911 l 192 521 l 551 521 l 551 460 l 192 460 l 192 61 l 602 61 l 602 0 l 125 0 m 355 1042 q 318 1057 334 1042 q 302 1095 302 1072 q 318 1131 302 1118 q 354 1144 334 1144 q 392 1131 375 1144 q 408 1095 408 1118 q 393 1057 408 1073 q 355 1042 377 1042 z "},"ė":{"ha":701,"x_min":61,"x_max":640,"o":"m 126 345 q 192 121 126 201 q 374 40 258 40 q 602 126 490 40 l 602 60 q 361 -17 494 -17 q 144 79 227 -17 q 61 351 61 176 q 148 607 61 503 q 372 711 234 711 q 571 621 502 711 q 640 372 640 530 l 640 345 l 126 345 m 575 401 q 517 588 571 522 q 370 654 464 654 q 208 589 272 654 q 129 401 144 524 l 575 401 m 367 806 q 330 821 346 806 q 314 859 314 836 q 330 895 314 882 q 366 908 346 908 q 403 895 387 908 q 420 859 420 882 q 404 821 420 837 q 367 806 389 806 z "},"Ĝ":{"ha":928,"x_min":74,"x_max":828,"o":"m 828 68 q 518 -17 677 -17 q 197 118 319 -17 q 74 472 74 253 q 206 841 74 693 q 559 989 338 989 q 808 937 688 989 l 808 864 q 550 928 676 928 q 255 802 366 928 q 143 482 143 677 q 248 161 143 277 q 530 45 353 45 q 761 102 662 45 l 761 422 l 532 422 l 532 484 l 828 484 l 828 68 m 633 1043 l 527 1205 l 418 1043 l 363 1043 l 513 1271 l 543 1271 l 692 1043 l 633 1043 z "},"ĝ":{"ha":778,"x_min":61,"x_max":667,"o":"m 667 52 q 581 -235 667 -144 q 315 -326 496 -326 q 109 -273 215 -326 l 109 -208 q 317 -269 218 -269 q 604 35 604 -269 l 604 125 l 602 125 q 351 -17 519 -17 q 142 76 223 -17 q 61 335 61 169 q 149 606 61 501 q 379 711 236 711 q 602 585 532 711 l 604 585 l 604 694 l 667 694 l 667 52 m 604 428 q 542 587 604 520 q 380 654 480 654 q 196 568 266 654 q 126 340 126 482 q 190 119 126 198 q 359 40 254 40 q 538 113 471 40 q 604 290 604 185 l 604 428 m 494 806 l 388 968 l 279 806 l 224 806 l 374 1034 l 404 1034 l 553 806 l 494 806 z "},"Ġ":{"ha":928,"x_min":74,"x_max":828,"o":"m 828 68 q 518 -17 677 -17 q 197 118 319 -17 q 74 472 74 253 q 206 841 74 693 q 559 989 338 989 q 808 937 688 989 l 808 864 q 550 928 676 928 q 255 802 366 928 q 143 482 143 677 q 248 161 143 277 q 530 45 353 45 q 761 102 662 45 l 761 422 l 532 422 l 532 484 l 828 484 l 828 68 m 524 1042 q 487 1057 503 1042 q 471 1095 471 1072 q 487 1131 471 1118 q 522 1144 503 1144 q 560 1131 543 1144 q 576 1095 576 1118 q 561 1057 576 1073 q 524 1042 545 1042 z "},"ġ":{"ha":778,"x_min":61,"x_max":667,"o":"m 667 52 q 581 -235 667 -144 q 315 -326 496 -326 q 109 -273 215 -326 l 109 -208 q 317 -269 218 -269 q 604 35 604 -269 l 604 125 l 602 125 q 351 -17 519 -17 q 142 76 223 -17 q 61 335 61 169 q 149 606 61 501 q 379 711 236 711 q 602 585 532 711 l 604 585 l 604 694 l 667 694 l 667 52 m 604 428 q 542 587 604 520 q 380 654 480 654 q 196 568 266 654 q 126 340 126 482 q 190 119 126 198 q 359 40 254 40 q 538 113 471 40 q 604 290 604 185 l 604 428 m 378 806 q 341 821 357 806 q 326 859 326 836 q 341 895 326 882 q 377 908 357 908 q 415 895 398 908 q 431 859 431 882 q 416 821 431 837 q 378 806 400 806 z "},"Ģ":{"ha":928,"x_min":74,"x_max":828,"o":"m 828 68 q 518 -17 677 -17 q 197 118 319 -17 q 74 472 74 253 q 206 841 74 693 q 559 989 338 989 q 808 937 688 989 l 808 864 q 550 928 676 928 q 255 802 366 928 q 143 482 143 677 q 248 161 143 277 q 530 45 353 45 q 761 102 662 45 l 761 422 l 532 422 l 532 484 l 828 484 l 828 68 m 581 -80 l 495 -257 l 441 -257 l 505 -80 l 581 -80 z "},"ģ":{"ha":778,"x_min":61,"x_max":667,"o":"m 319 827 l 404 1004 l 458 1004 l 395 827 l 319 827 m 667 52 q 581 -235 667 -144 q 315 -326 496 -326 q 109 -273 215 -326 l 109 -208 q 317 -269 218 -269 q 604 35 604 -269 l 604 125 l 602 125 q 351 -17 519 -17 q 142 76 223 -17 q 61 335 61 169 q 149 606 61 501 q 379 711 236 711 q 602 585 532 711 l 604 585 l 604 694 l 667 694 l 667 52 m 604 428 q 542 587 604 520 q 380 654 480 654 q 196 568 266 654 q 126 340 126 482 q 190 119 126 198 q 359 40 254 40 q 538 113 471 40 q 604 290 604 185 l 604 428 z "},"Ĥ":{"ha":940,"x_min":125,"x_max":815,"o":"m 749 0 l 749 467 l 192 467 l 192 0 l 125 0 l 125 972 l 192 972 l 192 528 l 749 528 l 749 972 l 815 972 l 815 0 l 749 0 m 575 1042 l 469 1204 l 360 1042 l 304 1042 l 454 1270 l 485 1270 l 633 1042 l 575 1042 z "},"ĥ":{"ha":743,"x_min":111,"x_max":646,"o":"m 583 0 l 583 416 q 538 597 583 540 q 399 654 494 654 q 241 585 309 654 q 174 385 174 515 l 174 0 l 111 0 l 111 1028 l 174 1028 l 174 570 l 176 570 q 415 711 258 711 q 587 639 528 711 q 646 431 646 566 l 646 0 l 583 0 m 496 1097 l 389 1259 l 281 1097 l 225 1097 l 375 1324 l 406 1324 l 554 1097 l 496 1097 z "},"Ħ":{"ha":940,"x_min":41,"x_max":899,"o":"m 41 709 l 41 770 l 125 770 l 125 972 l 192 972 l 192 770 l 749 770 l 749 972 l 815 972 l 815 770 l 899 770 l 899 709 l 815 709 l 815 0 l 749 0 l 749 467 l 192 467 l 192 0 l 125 0 l 125 709 l 41 709 m 749 528 l 749 709 l 192 709 l 192 528 l 749 528 z "},"ħ":{"ha":743,"x_min":35,"x_max":661,"o":"m 599 0 l 599 400 q 554 580 599 523 q 414 637 509 637 q 370 632 394 637 q 320 615 345 627 q 272 583 296 603 q 230 532 248 562 q 200 462 212 503 q 189 368 189 421 l 189 0 l 126 0 l 126 835 l 35 835 l 35 892 l 126 892 l 126 1028 l 189 1028 l 189 892 l 453 892 l 453 835 l 189 835 l 189 553 l 192 553 q 232 608 208 583 q 285 653 255 634 q 351 684 315 673 q 431 694 387 694 q 532 675 489 694 q 604 620 576 656 q 647 531 633 583 q 661 414 661 479 l 661 0 l 599 0 z "},"Ĩ":{"ha":317,"x_min":-53,"x_max":370,"o":"m 125 0 l 125 972 l 192 972 l 192 0 l 125 0 m 370 1200 q 337 1089 370 1130 q 248 1048 304 1048 q 146 1100 203 1048 q 65 1137 102 1137 q -4 1040 -4 1137 l -53 1040 q -20 1149 -53 1108 q 66 1190 12 1190 q 175 1141 115 1190 q 254 1101 220 1101 q 300 1126 281 1101 q 319 1200 319 1152 l 370 1200 z "},"ĩ":{"ha":285,"x_min":-67,"x_max":355,"o":"m 111 0 l 111 694 l 174 694 l 174 0 l 111 0 m 355 965 q 322 854 355 895 q 234 814 290 814 q 132 865 189 814 q 51 903 88 903 q -18 806 -18 903 l -67 806 q -35 915 -67 873 q 52 956 -2 956 q 161 907 101 956 q 240 867 206 867 q 286 892 267 867 q 305 965 305 917 l 355 965 z "},"Ī":{"ha":317,"x_min":-14,"x_max":331,"o":"m 125 0 l 125 972 l 192 972 l 192 0 l 125 0 m -14 1042 l -14 1099 l 331 1099 l 331 1042 l -14 1042 z "},"ī":{"ha":285,"x_min":-30,"x_max":315,"o":"m 111 0 l 111 694 l 174 694 l 174 0 l 111 0 m -30 806 l -30 863 l 315 863 l 315 806 l -30 806 z "},"Ĭ":{"ha":317,"x_min":-25,"x_max":338,"o":"m 125 0 l 125 972 l 192 972 l 192 0 l 125 0 m 338 1201 q 278 1085 328 1128 q 154 1042 228 1042 q 30 1084 79 1042 q -25 1201 -19 1126 l 32 1201 q 70 1122 36 1150 q 155 1093 103 1093 q 237 1123 201 1093 q 279 1201 273 1152 l 338 1201 z "},"ĭ":{"ha":285,"x_min":-39,"x_max":324,"o":"m 111 0 l 111 694 l 174 694 l 174 0 l 111 0 m 324 965 q 263 849 313 892 q 140 806 214 806 q 16 848 65 806 q -39 965 -33 890 l 18 965 q 55 886 22 914 q 141 857 89 857 q 223 887 187 857 q 264 965 258 916 l 324 965 z "},"Į":{"ha":317,"x_min":18,"x_max":192,"o":"m 125 0 l 125 972 l 192 972 l 192 0 l 125 0 m 192 0 q 77 -163 77 -92 q 134 -222 77 -222 q 188 -211 159 -222 l 188 -258 q 124 -271 155 -271 q 47 -243 77 -271 q 18 -167 18 -216 q 47 -84 18 -130 q 132 0 76 -39 l 192 0 z "},"į":{"ha":285,"x_min":1,"x_max":195,"o":"m 142 869 q 106 884 121 869 q 90 922 90 899 q 106 959 90 945 q 142 972 122 972 q 179 959 163 972 q 195 922 195 945 q 179 885 195 901 q 142 869 163 869 m 111 0 l 111 694 l 174 694 l 174 0 l 111 0 m 175 0 q 60 -163 60 -92 q 117 -222 60 -222 q 171 -211 142 -222 l 171 -258 q 107 -271 138 -271 q 31 -243 60 -271 q 1 -167 1 -216 q 30 -84 1 -130 q 115 0 59 -39 l 175 0 z "},"Ĵ":{"ha":450,"x_min":12,"x_max":459,"o":"m 330 335 q 86 -17 330 -17 q 12 -7 48 -17 l 12 58 q 87 45 52 45 q 222 116 181 45 q 264 336 264 186 l 264 972 l 330 972 l 330 335 m 401 1042 l 294 1204 l 186 1042 l 130 1042 l 280 1270 l 311 1270 l 459 1042 l 401 1042 z "},"ĵ":{"ha":285,"x_min":-171,"x_max":302,"o":"m 174 20 q -72 -326 174 -326 q -171 -302 -121 -326 l -171 -237 q -65 -269 -117 -269 q 111 8 111 -269 l 111 694 l 174 694 l 174 20 m 244 806 l 138 968 l 29 806 l -26 806 l 123 1034 l 154 1034 l 302 806 l 244 806 z "},"Ķ":{"ha":732,"x_min":125,"x_max":720,"o":"m 625 0 l 211 465 q 195 488 199 478 l 192 488 l 192 0 l 125 0 l 125 972 l 192 972 l 192 514 l 195 514 q 212 538 203 528 l 606 972 l 693 972 l 267 501 l 720 0 l 625 0 m 453 -80 l 368 -257 l 314 -257 l 377 -80 l 453 -80 z "},"ķ":{"ha":616,"x_min":111,"x_max":599,"o":"m 509 0 l 176 343 l 174 343 l 174 0 l 111 0 l 111 1028 l 174 1028 l 174 366 l 176 366 l 492 694 l 572 694 l 243 358 l 599 0 l 509 0 m 380 -80 l 295 -257 l 241 -257 l 304 -80 l 380 -80 z "},"ĸ":{"ha":616,"x_min":111,"x_max":599,"o":"m 509 0 l 176 343 l 174 343 l 174 0 l 111 0 l 111 694 l 174 694 l 174 366 l 176 366 l 492 694 l 572 694 l 243 358 l 599 0 l 509 0 z "},"Ļ":{"ha":636,"x_min":125,"x_max":582,"o":"m 125 0 l 125 972 l 192 972 l 192 61 l 582 61 l 582 0 l 125 0 m 404 -80 l 318 -257 l 264 -257 l 328 -80 l 404 -80 z "},"ļ":{"ha":285,"x_min":34,"x_max":174,"o":"m 111 0 l 111 1028 l 174 1028 l 174 0 l 111 0 m 173 -80 l 87 -257 l 34 -257 l 97 -80 l 173 -80 z "},"Ņ":{"ha":985,"x_min":125,"x_max":860,"o":"m 812 0 l 233 786 q 202 833 216 810 l 193 847 l 191 847 q 192 804 192 829 l 192 0 l 125 0 l 125 972 l 176 972 l 751 193 q 793 131 770 168 l 796 131 q 793 212 793 178 l 793 972 l 860 972 l 860 0 l 812 0 m 543 -80 l 457 -257 l 404 -257 l 467 -80 l 543 -80 z "},"ņ":{"ha":743,"x_min":111,"x_max":646,"o":"m 583 0 l 583 404 q 403 654 583 654 q 238 581 302 654 q 174 399 174 507 l 174 0 l 111 0 l 111 694 l 174 694 l 174 568 l 176 568 q 414 711 252 711 q 586 636 526 711 q 646 422 646 562 l 646 0 l 583 0 m 425 -80 l 340 -257 l 286 -257 l 349 -80 l 425 -80 z "},"Ŋ":{"ha":979,"x_min":125,"x_max":860,"o":"m 860 0 q 637 -287 860 -287 q 563 -277 598 -287 l 563 -212 q 638 -225 604 -225 q 762 -172 724 -225 q 800 -1 800 -118 l 800 1 l 233 786 q 217 810 224 798 q 202 833 209 822 l 193 847 l 191 847 q 192 828 191 838 q 192 804 192 817 l 192 0 l 125 0 l 125 972 l 176 972 l 751 178 q 771 149 761 165 q 793 115 781 134 l 796 115 q 794 159 795 139 q 793 197 793 180 l 793 972 l 860 972 l 860 0 z "},"ŋ":{"ha":743,"x_min":111,"x_max":646,"o":"m 646 1 q 596 -215 646 -144 q 446 -286 546 -286 q 400 -280 425 -286 q 355 -262 375 -274 l 355 -197 q 401 -221 377 -213 q 446 -229 425 -229 q 550 -173 517 -229 q 583 1 583 -116 l 583 404 q 403 654 583 654 q 238 581 302 654 q 174 399 174 507 l 174 0 l 111 0 l 111 694 l 174 694 l 174 568 l 176 568 q 414 711 252 711 q 586 637 527 711 q 646 422 646 562 l 646 1 z "},"Ō":{"ha":1057,"x_min":74,"x_max":983,"o":"m 525 -17 q 196 120 319 -17 q 74 476 74 257 q 200 849 74 709 q 543 989 326 989 q 862 854 740 989 q 983 501 983 720 q 859 121 983 260 q 525 -17 734 -17 m 532 928 q 253 805 362 928 q 143 484 143 682 q 247 164 143 283 q 524 45 351 45 q 809 162 704 45 q 914 490 914 280 q 811 812 914 696 q 532 928 709 928 m 363 1042 l 363 1099 l 708 1099 l 708 1042 l 363 1042 z "},"ō":{"ha":779,"x_min":61,"x_max":718,"o":"m 390 -17 q 150 83 238 -17 q 61 343 61 183 q 154 614 61 516 q 397 711 246 711 q 632 614 546 711 q 718 346 718 517 q 630 83 718 184 q 390 -17 543 -17 m 395 654 q 199 572 272 654 q 126 342 126 489 q 197 123 126 205 q 392 40 269 40 q 585 121 517 40 q 653 347 653 203 q 586 575 653 496 q 395 654 518 654 m 227 806 l 227 863 l 571 863 l 571 806 l 227 806 z "},"Ŏ":{"ha":1057,"x_min":74,"x_max":983,"o":"m 525 -17 q 196 120 319 -17 q 74 476 74 257 q 200 849 74 709 q 543 989 326 989 q 862 854 740 989 q 983 501 983 720 q 859 121 983 260 q 525 -17 734 -17 m 532 928 q 253 805 362 928 q 143 484 143 682 q 247 164 143 283 q 524 45 351 45 q 809 162 704 45 q 914 490 914 280 q 811 812 914 696 q 532 928 709 928 m 718 1202 q 657 1085 707 1128 q 534 1042 608 1042 q 410 1084 459 1042 q 355 1202 361 1126 l 412 1202 q 449 1122 416 1151 q 535 1094 483 1094 q 617 1123 581 1094 q 659 1202 652 1153 l 718 1202 z "},"ŏ":{"ha":779,"x_min":61,"x_max":718,"o":"m 390 -17 q 150 83 238 -17 q 61 343 61 183 q 154 614 61 516 q 397 711 246 711 q 632 614 546 711 q 718 346 718 517 q 630 83 718 184 q 390 -17 543 -17 m 395 654 q 199 572 272 654 q 126 342 126 489 q 197 123 126 205 q 392 40 269 40 q 585 121 517 40 q 653 347 653 203 q 586 575 653 496 q 395 654 518 654 m 578 965 q 517 849 567 892 q 393 806 467 806 q 270 848 319 806 q 214 965 220 890 l 271 965 q 309 886 275 914 q 395 857 342 857 q 476 887 441 857 q 518 965 512 916 l 578 965 z "},"Ŗ":{"ha":771,"x_min":125,"x_max":699,"o":"m 623 0 l 493 285 q 413 403 453 373 q 313 433 373 433 l 192 433 l 192 0 l 125 0 l 125 972 l 395 972 q 597 903 524 972 q 671 720 671 833 q 610 544 671 614 q 441 453 550 473 l 441 450 q 554 310 499 427 l 699 0 l 623 0 m 192 911 l 192 494 l 359 494 q 536 553 471 494 q 602 713 602 611 q 543 858 602 806 q 374 911 484 911 l 192 911 m 435 -80 l 349 -257 l 296 -257 l 359 -80 l 435 -80 z "},"ŗ":{"ha":458,"x_min":111,"x_max":439,"o":"m 439 629 q 366 652 408 652 q 228 567 283 652 q 172 326 172 482 l 172 0 l 111 0 l 111 694 l 172 694 l 172 541 l 175 541 q 250 664 199 620 q 370 708 302 708 q 439 696 408 708 l 439 629 m 340 -80 l 255 -257 l 201 -257 l 264 -80 l 340 -80 z "},"Ŝ":{"ha":690,"x_min":94,"x_max":607,"o":"m 94 35 l 94 111 q 306 45 199 45 q 479 92 420 45 q 538 224 538 139 q 498 343 538 298 q 326 464 458 387 q 139 608 178 550 q 100 742 100 666 q 180 917 100 845 q 393 989 260 989 q 567 960 480 989 l 567 889 q 385 928 481 928 q 228 878 286 928 q 170 750 170 827 q 209 631 170 675 q 380 511 249 587 q 562 374 517 434 q 607 236 607 314 q 529 54 607 124 q 310 -17 452 -17 q 194 -1 260 -17 q 94 35 129 14 m 462 1042 l 355 1204 l 247 1042 l 191 1042 l 341 1270 l 372 1270 l 520 1042 l 462 1042 z "},"ŝ":{"ha":539,"x_min":75,"x_max":476,"o":"m 75 31 l 75 106 q 161 58 111 75 q 248 40 211 40 q 411 174 411 40 q 375 252 411 220 q 258 319 339 285 q 118 409 159 363 q 78 522 78 456 q 143 659 78 607 q 302 711 208 711 q 456 675 392 711 l 456 604 q 296 654 378 654 q 185 619 227 654 q 143 526 143 583 q 170 446 143 477 q 286 375 196 415 q 435 284 395 326 q 476 174 476 243 q 414 37 476 91 q 243 -17 352 -17 q 75 31 142 -17 m 391 806 l 284 968 l 176 806 l 120 806 l 270 1034 l 300 1034 l 449 806 l 391 806 z "},"Ŧ":{"ha":710,"x_min":41,"x_max":669,"o":"m 389 911 l 389 520 l 608 520 l 608 458 l 389 458 l 389 0 l 322 0 l 322 458 l 102 458 l 102 520 l 322 520 l 322 911 l 41 911 l 41 972 l 669 972 l 669 911 l 389 911 z "},"ŧ":{"ha":412,"x_min":16,"x_max":386,"o":"m 386 9 q 294 -14 337 -14 q 140 171 140 -14 l 140 388 l 29 388 l 29 445 l 140 445 l 140 637 l 16 637 l 16 694 l 140 694 l 140 875 q 172 886 155 880 q 203 896 188 890 l 203 694 l 386 694 l 386 637 l 203 637 l 203 445 l 366 445 l 366 388 l 203 388 l 203 179 q 225 75 203 107 q 302 43 248 43 q 386 68 341 43 l 386 9 z "},"Ũ":{"ha":900,"x_min":113,"x_max":787,"o":"m 787 389 q 441 -17 787 -17 q 113 374 113 -17 l 113 972 l 179 972 l 179 383 q 454 45 179 45 q 721 374 721 45 l 721 972 l 787 972 l 787 389 m 663 1201 q 630 1090 663 1131 q 542 1050 597 1050 q 439 1101 497 1050 q 359 1139 396 1139 q 290 1042 290 1139 l 241 1042 q 273 1151 241 1109 q 360 1192 306 1192 q 469 1143 409 1192 q 548 1103 514 1103 q 594 1128 575 1103 q 613 1201 613 1153 l 663 1201 z "},"ũ":{"ha":743,"x_min":97,"x_max":632,"o":"m 570 0 l 570 126 l 567 126 q 343 -17 494 -17 q 97 293 97 -17 l 97 694 l 160 694 l 160 309 q 207 104 160 168 q 353 40 253 40 q 510 111 450 40 q 570 301 570 182 l 570 694 l 632 694 l 632 0 l 570 0 m 577 965 q 544 854 577 895 q 456 814 511 814 q 353 865 411 814 q 273 903 310 903 q 203 806 203 903 l 155 806 q 187 915 155 873 q 274 956 220 956 q 382 907 323 956 q 462 867 428 867 q 508 892 489 867 q 527 965 527 917 l 577 965 z "},"Ū":{"ha":900,"x_min":113,"x_max":787,"o":"m 787 389 q 441 -17 787 -17 q 113 374 113 -17 l 113 972 l 179 972 l 179 383 q 454 45 179 45 q 721 374 721 45 l 721 972 l 787 972 l 787 389 m 277 1041 l 277 1098 l 621 1098 l 621 1041 l 277 1041 z "},"ū":{"ha":743,"x_min":97,"x_max":632,"o":"m 570 0 l 570 126 l 567 126 q 343 -17 494 -17 q 97 293 97 -17 l 97 694 l 160 694 l 160 309 q 207 104 160 168 q 353 40 253 40 q 510 111 450 40 q 570 301 570 182 l 570 694 l 632 694 l 632 0 l 570 0 m 190 806 l 190 863 l 534 863 l 534 806 l 190 806 z "},"Ŭ":{"ha":900,"x_min":113,"x_max":787,"o":"m 787 389 q 441 -17 787 -17 q 113 374 113 -17 l 113 972 l 179 972 l 179 383 q 454 45 179 45 q 721 374 721 45 l 721 972 l 787 972 l 787 389 m 629 1201 q 568 1085 618 1128 q 444 1042 518 1042 q 320 1084 370 1042 q 265 1201 271 1126 l 322 1201 q 360 1122 326 1150 q 446 1093 393 1093 q 527 1123 492 1093 q 569 1201 563 1152 l 629 1201 z "},"ŭ":{"ha":743,"x_min":97,"x_max":632,"o":"m 570 0 l 570 126 l 567 126 q 343 -17 494 -17 q 97 293 97 -17 l 97 694 l 160 694 l 160 309 q 207 104 160 168 q 353 40 253 40 q 510 111 450 40 q 570 301 570 182 l 570 694 l 632 694 l 632 0 l 570 0 m 550 965 q 489 849 539 892 q 366 806 439 806 q 242 848 291 806 q 186 965 193 890 l 243 965 q 281 886 248 914 q 367 857 315 857 q 449 887 413 857 q 490 965 484 916 l 550 965 z "},"Ų":{"ha":900,"x_min":113,"x_max":787,"o":"m 787 389 q 441 -17 787 -17 q 113 374 113 -17 l 113 972 l 179 972 l 179 383 q 454 45 179 45 q 721 374 721 45 l 721 972 l 787 972 l 787 389 m 531 0 q 416 -163 416 -92 q 473 -222 416 -222 q 527 -211 498 -222 l 527 -258 q 463 -271 494 -271 q 387 -243 416 -271 q 357 -167 357 -216 q 386 -84 357 -130 q 471 0 415 -39 l 531 0 z "},"ų":{"ha":743,"x_min":97,"x_max":632,"o":"m 570 0 l 570 126 l 567 126 q 343 -17 494 -17 q 97 293 97 -17 l 97 694 l 160 694 l 160 309 q 207 104 160 168 q 353 40 253 40 q 510 111 450 40 q 570 301 570 182 l 570 694 l 632 694 l 632 0 l 570 0 m 632 0 q 517 -163 517 -92 q 574 -222 517 -222 q 628 -211 600 -222 l 628 -258 q 564 -271 595 -271 q 488 -243 517 -271 q 458 -167 458 -216 q 487 -84 458 -130 q 572 0 516 -39 l 632 0 z "},"Ŵ":{"ha":1243,"x_min":35,"x_max":1208,"o":"m 924 0 l 868 0 l 652 732 q 633 823 635 788 l 631 823 q 610 733 629 793 l 379 0 l 323 0 l 35 972 l 110 972 l 332 193 q 353 107 347 140 l 355 107 q 379 193 359 132 l 619 972 l 653 972 l 873 193 q 895 107 889 139 l 897 107 q 908 151 901 126 l 1136 972 l 1208 972 l 924 0 m 736 1042 l 630 1204 l 522 1042 l 466 1042 l 616 1270 l 646 1270 l 795 1042 l 736 1042 z "},"ŵ":{"ha":940,"x_min":25,"x_max":916,"o":"m 700 0 l 642 0 l 490 524 q 479 582 484 545 l 476 582 q 463 525 475 566 l 293 0 l 235 0 l 25 694 l 94 694 l 256 140 q 265 82 262 119 l 271 82 q 283 140 272 102 l 460 694 l 503 694 l 660 140 q 669 82 665 121 l 675 82 q 686 140 675 102 l 851 694 l 916 694 l 700 0 m 584 806 l 477 968 l 369 806 l 313 806 l 463 1034 l 494 1034 l 642 806 l 584 806 z "},"Ŷ":{"ha":750,"x_min":41,"x_max":720,"o":"m 406 370 l 406 0 l 339 0 l 339 368 l 41 972 l 117 972 l 343 504 q 374 432 355 479 l 376 432 q 410 503 386 457 l 647 972 l 720 972 l 406 370 m 477 1041 l 371 1203 l 262 1041 l 207 1041 l 357 1269 l 387 1269 l 536 1041 l 477 1041 z "},"ŷ":{"ha":629,"x_min":14,"x_max":619,"o":"m 281 -142 q 197 -281 243 -235 q 78 -326 151 -326 q 24 -317 47 -326 l 24 -254 q 81 -264 48 -264 q 212 -149 164 -264 l 277 5 l 14 694 l 83 694 l 293 129 q 302 101 300 111 q 309 78 305 88 l 311 78 l 328 125 l 551 694 l 619 694 l 281 -142 m 416 806 l 309 968 l 201 806 l 145 806 l 295 1034 l 326 1034 l 474 806 l 416 806 z "},"ſ":{"ha":346,"x_min":111,"x_max":378,"o":"m 378 962 q 302 982 353 982 q 174 810 174 982 l 174 0 l 111 0 l 111 815 q 166 982 111 925 q 304 1039 222 1039 q 378 1026 349 1039 l 378 962 z "},"Ǻ":{"ha":873,"x_min":40,"x_max":833,"o":"m 758 0 l 647 302 l 225 302 l 114 0 l 40 0 l 407 972 l 471 972 l 833 0 l 758 0 m 460 814 q 448 854 452 834 q 437 888 443 871 l 435 888 q 412 815 423 843 l 249 364 l 624 364 l 460 814 m 437 927 q 340 961 379 927 q 301 1052 301 996 q 340 1141 301 1106 q 437 1177 378 1177 q 535 1142 497 1177 q 574 1052 574 1108 q 534 962 574 998 q 437 927 495 927 m 437 1131 q 375 1109 399 1131 q 351 1052 351 1088 q 376 994 351 1016 q 437 972 401 972 q 500 995 476 972 q 525 1052 525 1017 q 499 1111 525 1090 q 437 1131 474 1131 m 426 1222 l 365 1222 l 524 1444 l 594 1444 l 426 1222 z "},"ǻ":{"ha":686,"x_min":98,"x_max":615,"o":"m 553 0 l 553 139 l 550 139 q 453 25 517 68 q 313 -17 390 -17 q 156 39 214 -17 q 98 179 98 94 q 339 399 98 361 l 553 431 q 385 654 553 654 q 161 562 270 654 l 161 637 q 266 690 200 668 q 391 711 332 711 q 556 645 498 711 q 615 452 615 578 l 615 0 l 553 0 m 361 346 q 208 295 252 330 q 164 182 164 260 q 205 80 164 120 q 319 40 246 40 q 486 114 420 40 q 553 306 553 189 l 553 374 l 361 346 m 380 806 q 282 840 321 806 q 243 930 243 874 q 282 1020 243 985 q 380 1055 321 1055 q 478 1021 439 1055 q 516 930 516 987 q 477 841 516 876 q 380 806 437 806 m 380 1010 q 317 988 341 1010 q 294 930 294 966 q 318 873 294 895 q 380 851 343 851 q 443 873 418 851 q 467 930 467 895 q 442 989 467 969 q 380 1010 416 1010 m 361 1099 l 300 1099 l 459 1321 l 530 1321 l 361 1099 z "},"Ǽ":{"ha":1157,"x_min":11,"x_max":1050,"o":"m 574 0 l 574 302 l 233 302 l 85 0 l 11 0 l 484 972 l 1028 972 l 1028 907 l 640 907 l 640 519 l 1000 519 l 1000 458 l 640 458 l 640 61 l 1050 61 l 1050 0 l 574 0 m 574 907 l 521 907 l 261 364 l 574 364 l 574 907 m 707 1042 l 646 1042 l 805 1264 l 876 1264 l 707 1042 z "},"ǽ":{"ha":1165,"x_min":72,"x_max":1103,"o":"m 589 345 q 655 121 589 201 q 836 40 721 40 q 1064 126 953 40 l 1064 60 q 823 -17 956 -17 q 661 34 731 -17 q 558 176 590 84 l 555 176 q 290 -17 465 -17 q 130 38 189 -17 q 72 179 72 92 q 139 332 72 276 q 334 393 206 387 l 526 401 q 364 654 526 654 q 135 564 238 654 l 135 637 q 371 711 244 711 q 571 539 527 711 l 574 539 q 833 711 659 711 q 1033 621 962 711 q 1103 372 1103 531 l 1103 345 l 589 345 m 1038 401 q 980 588 1034 522 q 832 654 926 654 q 670 589 734 654 q 591 401 606 524 l 1038 401 m 526 345 l 347 339 q 190 299 241 336 q 138 182 138 263 q 181 78 138 115 q 297 40 224 40 q 458 113 389 40 q 526 289 526 186 l 526 345 m 553 806 l 492 806 l 651 1028 l 722 1028 l 553 806 z "},"Ǿ":{"ha":1057,"x_min":57,"x_max":983,"o":"m 215 100 l 100 -37 l 57 -3 l 178 142 q 74 476 74 277 q 200 849 74 709 q 543 989 326 989 q 814 900 703 989 l 908 1013 l 951 977 l 856 863 q 983 501 983 726 q 859 121 983 260 q 525 -17 734 -17 q 215 100 339 -17 m 772 850 q 532 928 675 928 q 253 805 362 928 q 143 484 143 682 q 222 195 143 309 l 772 850 m 812 811 l 258 151 q 524 45 362 45 q 809 162 704 45 q 914 490 914 280 q 812 811 914 692 m 497 1042 l 436 1042 l 595 1264 l 665 1264 l 497 1042 z "},"ǿ":{"ha":779,"x_min":20,"x_max":774,"o":"m 652 590 q 718 346 718 495 q 630 83 718 184 q 390 -17 543 -17 q 174 60 260 -17 l 61 -65 l 20 -26 l 135 102 q 61 343 61 201 q 154 614 61 516 q 397 711 246 711 q 615 633 532 711 l 732 762 l 774 725 l 652 590 m 574 587 q 395 654 507 654 q 199 572 272 654 q 126 342 126 489 q 178 149 126 229 l 574 587 m 608 542 l 214 106 q 392 40 284 40 q 585 121 517 40 q 653 347 653 203 q 608 542 653 463 m 382 806 l 321 806 l 479 1028 l 550 1028 l 382 806 z "},"·":{"ha":301,"x_min":77,"x_max":228,"o":"m 228 422 q 205 368 228 391 q 151 346 183 346 q 98 368 120 346 q 77 422 77 391 q 98 476 77 454 q 151 498 120 498 q 205 476 183 498 q 228 422 228 454 z "},"Ẁ":{"ha":1243,"x_min":35,"x_max":1208,"o":"m 924 0 l 868 0 l 652 732 q 633 823 635 788 l 631 823 q 610 733 629 793 l 379 0 l 323 0 l 35 972 l 110 972 l 332 193 q 353 107 347 140 l 355 107 q 379 193 359 132 l 619 972 l 653 972 l 873 193 q 895 107 889 139 l 897 107 q 908 151 901 126 l 1136 972 l 1208 972 l 924 0 m 624 1042 l 456 1264 l 526 1264 l 685 1042 l 624 1042 z "},"ẁ":{"ha":940,"x_min":25,"x_max":916,"o":"m 700 0 l 642 0 l 490 524 q 479 582 484 545 l 476 582 q 463 525 475 566 l 293 0 l 235 0 l 25 694 l 94 694 l 256 140 q 265 82 262 119 l 271 82 q 283 140 272 102 l 460 694 l 503 694 l 660 140 q 669 82 665 121 l 675 82 q 686 140 675 102 l 851 694 l 916 694 l 700 0 m 469 806 l 301 1028 l 372 1028 l 530 806 l 469 806 z "},"Ẃ":{"ha":1243,"x_min":35,"x_max":1208,"o":"m 924 0 l 868 0 l 652 732 q 633 823 635 788 l 631 823 q 610 733 629 793 l 379 0 l 323 0 l 35 972 l 110 972 l 332 193 q 353 107 347 140 l 355 107 q 379 193 359 132 l 619 972 l 653 972 l 873 193 q 895 107 889 139 l 897 107 q 908 151 901 126 l 1136 972 l 1208 972 l 924 0 m 645 1042 l 584 1042 l 743 1264 l 813 1264 l 645 1042 z "},"ẃ":{"ha":940,"x_min":25,"x_max":916,"o":"m 700 0 l 642 0 l 490 524 q 479 582 484 545 l 476 582 q 463 525 475 566 l 293 0 l 235 0 l 25 694 l 94 694 l 256 140 q 265 82 262 119 l 271 82 q 283 140 272 102 l 460 694 l 503 694 l 660 140 q 669 82 665 121 l 675 82 q 686 140 675 102 l 851 694 l 916 694 l 700 0 m 505 806 l 444 806 l 602 1028 l 673 1028 l 505 806 z "},"Ẅ":{"ha":1243,"x_min":35,"x_max":1208,"o":"m 924 0 l 868 0 l 652 732 q 633 823 635 788 l 631 823 q 610 733 629 793 l 379 0 l 323 0 l 35 972 l 110 972 l 332 193 q 353 107 347 140 l 355 107 q 379 193 359 132 l 619 972 l 653 972 l 873 193 q 895 107 889 139 l 897 107 q 908 151 901 126 l 1136 972 l 1208 972 l 924 0 m 743 1042 q 709 1056 724 1042 q 694 1091 694 1069 q 709 1125 694 1112 q 741 1138 724 1138 q 777 1125 761 1138 q 793 1091 793 1112 q 778 1056 793 1070 q 743 1042 764 1042 m 517 1042 q 483 1056 498 1042 q 468 1091 468 1069 q 483 1125 468 1112 q 515 1138 498 1138 q 551 1125 535 1138 q 566 1091 566 1112 q 552 1056 566 1070 q 517 1042 538 1042 z "},"ẅ":{"ha":940,"x_min":25,"x_max":916,"o":"m 700 0 l 642 0 l 490 524 q 479 582 484 545 l 476 582 q 463 525 475 566 l 293 0 l 235 0 l 25 694 l 94 694 l 256 140 q 265 82 262 119 l 271 82 q 283 140 272 102 l 460 694 l 503 694 l 660 140 q 669 82 665 121 l 675 82 q 686 140 675 102 l 851 694 l 916 694 l 700 0 m 591 806 q 557 819 572 806 q 543 854 543 832 q 557 888 543 876 q 589 901 572 901 q 625 888 609 901 q 641 854 641 875 q 626 820 641 833 q 591 806 612 806 m 365 806 q 331 819 346 806 q 316 854 316 832 q 331 888 316 876 q 363 901 346 901 q 399 888 383 901 q 414 854 414 875 q 400 820 414 833 q 365 806 386 806 z "},"Ỳ":{"ha":750,"x_min":41,"x_max":720,"o":"m 406 370 l 406 0 l 339 0 l 339 368 l 41 972 l 117 972 l 343 504 q 374 432 355 479 l 376 432 q 410 503 386 457 l 647 972 l 720 972 l 406 370 m 366 1042 l 198 1264 l 269 1264 l 427 1042 l 366 1042 z "},"ỳ":{"ha":629,"x_min":14,"x_max":619,"o":"m 281 -142 q 197 -281 243 -235 q 78 -326 151 -326 q 24 -317 47 -326 l 24 -254 q 81 -264 48 -264 q 212 -149 164 -264 l 277 5 l 14 694 l 83 694 l 293 129 q 302 101 300 111 q 309 78 305 88 l 311 78 l 328 125 l 551 694 l 619 694 l 281 -142 m 300 806 l 132 1028 l 203 1028 l 361 806 l 300 806 z "},"‛":{"ha":297,"x_min":65,"x_max":220,"o":"m 65 972 l 136 972 l 220 668 l 171 668 l 65 972 z "},"‾":{"ha":576,"x_min":0,"x_max":576,"o":"m 576 947 l 0 947 l 0 1028 l 576 1028 l 576 947 z "},"₤":{"ha":715,"x_min":54,"x_max":643,"o":"m 285 606 l 507 606 l 507 545 l 285 545 l 285 421 l 507 421 l 507 360 l 285 360 l 285 329 q 140 57 285 129 l 643 57 l 643 0 l 54 0 l 54 58 q 222 306 222 128 l 222 360 l 68 360 l 68 421 l 222 421 l 222 545 l 68 545 l 68 606 l 222 606 l 222 707 q 290 911 222 834 q 468 989 357 989 q 591 965 533 989 l 591 901 q 465 932 530 932 q 333 872 380 932 q 285 699 285 812 l 285 606 z "},"℮":{"ha":833,"x_min":58,"x_max":776,"o":"m 776 359 l 214 359 l 215 109 q 416 26 296 26 q 684 193 589 26 l 732 164 q 600 26 667 69 q 416 -24 522 -24 q 157 85 256 -24 q 58 359 58 195 q 152 632 58 526 q 414 743 251 743 q 677 633 580 743 q 776 359 768 530 m 618 410 l 618 611 q 413 694 530 694 q 214 611 295 694 l 214 410 l 618 410 z "},"⅛":{"ha":1100,"x_min":51,"x_max":1064,"o":"m 220 396 l 220 901 q 186 874 205 888 q 145 848 168 861 q 99 824 123 836 q 51 803 75 812 l 51 856 q 108 882 77 865 q 168 920 138 900 q 222 959 197 940 q 260 990 246 978 l 278 990 l 278 396 l 220 396 m 292 0 l 225 0 l 810 972 l 875 972 l 292 0 m 682 164 q 708 249 682 208 q 787 311 734 289 q 755 335 770 321 q 728 364 740 348 q 709 399 716 380 q 702 441 702 418 q 715 505 702 476 q 750 553 728 533 q 804 583 773 572 q 872 593 836 593 q 942 582 910 593 q 997 550 974 570 q 1033 502 1020 530 q 1046 441 1046 473 q 1021 363 1046 395 q 961 311 997 332 q 1007 284 987 300 q 1039 249 1026 268 q 1058 208 1051 229 q 1064 164 1064 186 q 1050 91 1064 123 q 1012 36 1037 58 q 951 2 987 14 q 872 -9 916 -9 q 795 1 830 -9 q 735 34 761 12 q 696 88 710 56 q 682 164 682 121 m 744 161 q 753 113 744 134 q 779 76 762 91 q 819 52 796 60 q 871 43 842 43 q 924 52 900 43 q 965 76 947 60 q 991 113 982 91 q 1001 161 1001 134 q 992 206 1001 184 q 966 243 983 227 q 925 270 949 260 q 871 279 901 279 q 820 271 844 279 q 780 246 797 262 q 753 208 763 230 q 744 161 744 186 m 766 440 q 774 400 766 420 q 797 367 783 381 q 830 343 811 352 q 872 334 850 334 q 915 343 895 334 q 949 367 935 352 q 973 401 964 382 q 981 440 981 420 q 973 479 981 461 q 950 511 964 498 q 915 531 935 524 q 872 538 895 538 q 828 531 848 538 q 795 510 809 523 q 774 478 781 496 q 766 440 766 460 z "},"⅜":{"ha":1100,"x_min":60,"x_max":1064,"o":"m 292 0 l 225 0 l 810 972 l 875 972 l 292 0 m 682 164 q 708 249 682 208 q 787 311 734 289 q 755 335 770 321 q 728 364 740 348 q 709 399 716 380 q 702 441 702 418 q 715 505 702 476 q 750 553 728 533 q 804 583 773 572 q 872 593 836 593 q 942 582 910 593 q 997 550 974 570 q 1033 502 1020 530 q 1046 441 1046 473 q 1021 363 1046 395 q 961 311 997 332 q 1007 284 987 300 q 1039 249 1026 268 q 1058 208 1051 229 q 1064 164 1064 186 q 1050 91 1064 123 q 1012 36 1037 58 q 951 2 987 14 q 872 -9 916 -9 q 795 1 830 -9 q 735 34 761 12 q 696 88 710 56 q 682 164 682 121 m 744 161 q 753 113 744 134 q 779 76 762 91 q 819 52 796 60 q 871 43 842 43 q 924 52 900 43 q 965 76 947 60 q 991 113 982 91 q 1001 161 1001 134 q 992 206 1001 184 q 966 243 983 227 q 925 270 949 260 q 871 279 901 279 q 820 271 844 279 q 780 246 797 262 q 753 208 763 230 q 744 161 744 186 m 766 440 q 774 400 766 420 q 797 367 783 381 q 830 343 811 352 q 872 334 850 334 q 915 343 895 334 q 949 367 935 352 q 973 401 964 382 q 981 440 981 420 q 973 479 981 461 q 950 511 964 498 q 915 531 935 524 q 872 538 895 538 q 828 531 848 538 q 795 510 809 523 q 774 478 781 496 q 766 440 766 460 m 380 550 q 368 482 380 513 q 330 428 355 451 q 271 392 306 406 q 191 379 235 379 q 60 411 118 379 l 60 476 q 192 433 127 433 q 288 465 254 433 q 322 550 322 497 q 163 664 322 664 l 115 664 l 115 718 l 157 718 q 302 835 302 718 q 199 928 302 928 q 82 892 151 928 l 82 953 q 148 976 115 968 q 211 983 180 983 q 274 973 246 983 q 322 944 302 963 q 352 900 342 926 q 363 843 363 874 q 262 697 363 733 l 262 694 q 350 642 320 682 q 380 550 380 603 z "},"⅝":{"ha":1100,"x_min":65,"x_max":1064,"o":"m 292 0 l 225 0 l 810 972 l 875 972 l 292 0 m 682 164 q 708 249 682 208 q 787 311 734 289 q 755 335 770 321 q 728 364 740 348 q 709 399 716 380 q 702 441 702 418 q 715 505 702 476 q 750 553 728 533 q 804 583 773 572 q 872 593 836 593 q 942 582 910 593 q 997 550 974 570 q 1033 502 1020 530 q 1046 441 1046 473 q 1021 363 1046 395 q 961 311 997 332 q 1007 284 987 300 q 1039 249 1026 268 q 1058 208 1051 229 q 1064 164 1064 186 q 1050 91 1064 123 q 1012 36 1037 58 q 951 2 987 14 q 872 -9 916 -9 q 795 1 830 -9 q 735 34 761 12 q 696 88 710 56 q 682 164 682 121 m 744 161 q 753 113 744 134 q 779 76 762 91 q 819 52 796 60 q 871 43 842 43 q 924 52 900 43 q 965 76 947 60 q 991 113 982 91 q 1001 161 1001 134 q 992 206 1001 184 q 966 243 983 227 q 925 270 949 260 q 871 279 901 279 q 820 271 844 279 q 780 246 797 262 q 753 208 763 230 q 744 161 744 186 m 766 440 q 774 400 766 420 q 797 367 783 381 q 830 343 811 352 q 872 334 850 334 q 915 343 895 334 q 949 367 935 352 q 973 401 964 382 q 981 440 981 420 q 973 479 981 461 q 950 511 964 498 q 915 531 935 524 q 872 538 895 538 q 828 531 848 538 q 795 510 809 523 q 774 478 781 496 q 766 440 766 460 m 393 572 q 377 489 393 526 q 333 429 361 453 q 267 392 305 404 q 186 379 229 379 q 65 408 115 379 l 65 467 q 130 441 98 449 q 187 433 161 433 q 249 443 221 433 q 295 471 276 453 q 325 513 315 488 q 335 568 335 538 q 179 685 335 685 q 151 684 168 685 q 117 683 134 684 q 87 681 100 682 q 70 679 74 680 l 97 972 l 367 972 l 367 916 l 141 916 l 124 737 q 141 739 131 738 q 161 740 151 739 q 180 740 171 740 q 197 741 190 741 q 275 730 239 741 q 337 699 311 720 q 378 646 363 677 q 393 572 393 614 z "},"⅞":{"ha":1044,"x_min":45,"x_max":1006,"o":"m 131 389 q 216 657 161 527 q 352 917 272 788 l 45 917 l 45 972 l 421 972 l 421 936 q 277 668 337 804 q 189 389 216 532 l 131 389 m 208 0 l 141 0 l 726 972 l 791 972 l 208 0 m 624 164 q 650 249 624 208 q 728 311 675 289 q 697 335 712 321 q 670 364 682 348 q 651 399 658 380 q 644 441 644 418 q 656 505 644 476 q 692 553 669 533 q 746 583 715 572 q 814 593 777 593 q 884 582 852 593 q 939 550 916 570 q 975 502 962 530 q 987 441 987 473 q 963 363 987 395 q 903 311 939 332 q 948 284 929 300 q 980 249 968 268 q 999 208 993 229 q 1006 164 1006 186 q 992 91 1006 123 q 954 36 979 58 q 893 2 928 14 q 814 -9 857 -9 q 737 1 772 -9 q 677 34 703 12 q 638 88 652 56 q 624 164 624 121 m 686 161 q 695 113 686 134 q 721 76 704 91 q 761 52 738 60 q 812 43 784 43 q 865 52 842 43 q 906 76 889 60 q 933 113 924 91 q 943 161 943 134 q 933 206 943 184 q 907 243 924 227 q 866 270 890 260 q 812 279 842 279 q 762 271 785 279 q 722 246 739 262 q 695 208 705 230 q 686 161 686 186 m 708 440 q 716 400 708 420 q 739 367 724 381 q 772 343 753 352 q 814 334 791 334 q 856 343 836 334 q 891 367 876 352 q 915 401 906 382 q 923 440 923 420 q 915 479 923 461 q 891 511 906 498 q 857 531 877 524 q 814 538 837 538 q 770 531 789 538 q 737 510 751 523 q 715 478 723 496 q 708 440 708 460 z "},";":{"ha":309,"x_min":32,"x_max":215,"o":"m 160 597 q 121 614 136 597 q 106 653 106 630 q 121 691 106 676 q 160 707 136 707 q 199 691 183 707 q 215 653 215 676 q 199 614 215 630 q 160 597 183 597 m 85 -168 l 32 -168 l 134 154 l 203 154 l 85 -168 z "},"΄":{"ha":379,"x_min":112,"x_max":244,"o":"m 145 805 l 112 805 l 173 1055 l 244 1055 l 145 805 z "},"΅":{"ha":394,"x_min":0,"x_max":394,"o":"m 394 892 q 379 857 394 871 q 344 843 365 843 q 327 846 336 843 q 312 855 319 849 q 300 870 304 861 q 296 892 296 880 q 300 912 296 903 q 311 927 304 921 q 327 936 318 933 q 342 939 335 939 q 378 926 362 939 q 394 892 394 913 m 187 807 l 154 807 l 215 1057 l 286 1057 l 187 807 m 98 892 q 84 857 98 871 q 48 843 69 843 q 31 846 40 843 q 16 855 22 849 q 4 870 9 861 q 0 892 0 880 q 4 912 0 903 q 16 927 9 921 q 31 936 22 933 q 47 939 39 939 q 82 926 66 939 q 98 892 98 913 z "},"Ά":{"ha":873,"x_min":40,"x_max":833,"o":"m 758 0 l 647 302 l 225 302 l 114 0 l 40 0 l 407 972 l 471 972 l 833 0 l 758 0 m 460 814 q 448 854 452 834 q 437 888 443 871 l 435 888 q 412 815 423 843 l 249 364 l 624 364 l 460 814 m 123 723 l 90 723 l 151 973 l 222 973 l 123 723 z "},"Έ":{"ha":764,"x_min":-23,"x_max":671,"o":"m 195 0 l 195 972 l 649 972 l 649 911 l 262 911 l 262 521 l 621 521 l 621 460 l 262 460 l 262 61 l 671 61 l 671 0 l 195 0 m 10 723 l -23 723 l 38 973 l 109 973 l 10 723 z "},"Ή":{"ha":1010,"x_min":-23,"x_max":885,"o":"m 819 0 l 819 467 l 262 467 l 262 0 l 195 0 l 195 972 l 262 972 l 262 528 l 819 528 l 819 972 l 885 972 l 885 0 l 819 0 m 10 723 l -23 723 l 38 973 l 109 973 l 10 723 z "},"Ί":{"ha":434,"x_min":-22,"x_max":312,"o":"m 245 0 l 245 972 l 312 972 l 312 0 l 245 0 m 11 723 l -22 723 l 39 973 l 110 973 l 11 723 z "},"Ό":{"ha":1126,"x_min":5,"x_max":1053,"o":"m 594 -17 q 266 120 388 -17 q 143 476 143 257 q 269 849 143 709 q 612 989 395 989 q 931 854 809 989 q 1053 501 1053 720 q 928 121 1053 260 q 594 -17 803 -17 m 601 928 q 322 805 431 928 q 212 484 212 682 q 316 164 212 283 q 593 45 420 45 q 878 162 773 45 q 983 490 983 280 q 881 812 983 696 q 601 928 778 928 m 38 723 l 5 723 l 66 973 l 137 973 l 38 723 z "},"Ύ":{"ha":819,"x_min":-65,"x_max":789,"o":"m 475 370 l 475 0 l 408 0 l 408 368 l 111 972 l 186 972 l 412 504 q 443 432 425 479 l 446 432 q 479 503 455 457 l 716 972 l 789 972 l 475 370 m -32 723 l -65 723 l -4 973 l 67 973 l -32 723 z "},"Ώ":{"ha":1118,"x_min":5,"x_max":1053,"o":"m 729 0 l 729 61 q 983 525 983 249 q 880 819 983 709 q 606 928 777 928 q 319 819 427 928 q 212 528 212 709 q 468 61 212 250 l 468 0 l 144 0 l 144 61 l 383 61 q 143 529 143 243 q 269 863 143 738 q 597 989 394 989 q 929 867 805 989 q 1053 532 1053 745 q 988 268 1053 392 q 812 61 923 144 l 1053 61 l 1053 0 l 729 0 m 38 723 l 5 723 l 66 973 l 137 973 l 38 723 z "},"ΐ":{"ha":351,"x_min":-27,"x_max":367,"o":"m 310 1 q 280 -6 295 -4 q 254 -8 266 -8 q 189 4 216 -8 q 145 40 162 17 q 119 94 127 62 q 111 165 111 126 l 111 694 l 174 694 l 174 164 q 183 103 174 126 q 206 68 193 81 q 235 53 220 56 q 261 49 250 49 q 290 51 279 49 q 310 56 300 52 l 310 1 m 367 892 q 352 857 367 871 q 317 843 338 843 q 300 846 309 843 q 284 855 292 849 q 273 870 277 861 q 269 892 269 880 q 273 912 269 903 q 284 927 277 921 q 299 936 291 933 q 315 939 308 939 q 351 926 335 939 q 367 892 367 913 m 160 807 l 127 807 l 188 1057 l 258 1057 l 160 807 m 71 892 q 57 857 71 871 q 21 843 42 843 q 4 846 13 843 q -12 855 -5 849 q -23 870 -18 861 q -27 892 -27 880 q -23 912 -27 903 q -12 927 -18 921 q 3 936 -5 933 q 20 939 12 939 q 55 926 39 939 q 71 892 71 913 z "},"Α":{"ha":873,"x_min":40,"x_max":833,"o":"m 758 0 l 647 302 l 225 302 l 114 0 l 40 0 l 407 972 l 471 972 l 833 0 l 758 0 m 460 814 q 448 854 452 834 q 437 888 443 871 l 435 888 q 412 815 423 843 l 249 364 l 624 364 l 460 814 z "},"Β":{"ha":755,"x_min":125,"x_max":677,"o":"m 125 0 l 125 972 l 380 972 q 563 911 495 972 q 631 747 631 849 q 586 601 631 663 q 460 513 541 538 l 460 510 q 619 438 561 500 q 677 278 677 375 q 598 78 677 155 q 386 0 519 0 l 125 0 m 192 911 l 192 534 l 328 534 q 497 589 433 534 q 561 736 561 643 q 354 911 561 911 l 192 911 m 192 473 l 192 61 l 372 61 q 548 116 487 61 q 608 272 608 171 q 335 473 608 473 l 192 473 z "},"Ε":{"ha":694,"x_min":125,"x_max":602,"o":"m 125 0 l 125 972 l 579 972 l 579 911 l 192 911 l 192 521 l 551 521 l 551 460 l 192 460 l 192 61 l 602 61 l 602 0 l 125 0 z "},"Ζ":{"ha":791,"x_min":45,"x_max":737,"o":"m 146 61 l 728 61 l 728 0 l 45 0 l 45 21 l 633 911 l 92 911 l 92 972 l 737 972 l 737 954 l 146 61 z "},"Η":{"ha":940,"x_min":125,"x_max":815,"o":"m 749 0 l 749 467 l 192 467 l 192 0 l 125 0 l 125 972 l 192 972 l 192 528 l 749 528 l 749 972 l 815 972 l 815 0 l 749 0 z "},"Ι":{"ha":317,"x_min":125,"x_max":192,"o":"m 125 0 l 125 972 l 192 972 l 192 0 l 125 0 z "},"Κ":{"ha":732,"x_min":125,"x_max":720,"o":"m 625 0 l 211 465 q 195 488 199 478 l 192 488 l 192 0 l 125 0 l 125 972 l 192 972 l 192 514 l 195 514 q 212 538 203 528 l 606 972 l 693 972 l 267 501 l 720 0 l 625 0 z "},"Λ":{"ha":873,"x_min":40,"x_max":833,"o":"m 758 0 l 460 814 q 447 854 452 837 q 437 888 443 871 l 435 888 q 425 852 431 872 q 412 815 419 833 l 114 0 l 40 0 l 407 972 l 471 972 l 833 0 l 758 0 z "},"Μ":{"ha":1157,"x_min":125,"x_max":1032,"o":"m 968 0 l 968 690 q 975 833 968 715 l 972 833 q 937 749 951 779 l 591 0 l 570 0 l 222 745 q 191 836 205 781 l 187 836 q 192 707 192 771 l 192 0 l 125 0 l 125 972 l 187 972 l 550 189 q 557 171 553 182 q 566 148 562 159 q 581 109 573 130 l 585 109 l 592 130 q 615 195 593 133 l 972 972 l 1032 972 l 1032 0 l 968 0 z "},"Ν":{"ha":979,"x_min":125,"x_max":860,"o":"m 812 0 l 233 786 q 202 833 216 810 l 193 847 l 191 847 q 192 804 192 829 l 192 0 l 125 0 l 125 972 l 176 972 l 751 193 q 793 131 770 168 l 796 131 q 793 212 793 178 l 793 972 l 860 972 l 860 0 l 812 0 z "},"Ξ":{"ha":708,"x_min":46,"x_max":663,"o":"m 65 911 l 65 972 l 643 972 l 643 911 l 65 911 m 164 460 l 164 521 l 545 521 l 545 460 l 164 460 m 46 0 l 46 61 l 663 61 l 663 0 l 46 0 z "},"Ο":{"ha":1057,"x_min":74,"x_max":983,"o":"m 525 -17 q 196 120 319 -17 q 74 476 74 257 q 200 849 74 709 q 543 989 326 989 q 862 854 740 989 q 983 501 983 720 q 859 121 983 260 q 525 -17 734 -17 m 532 928 q 253 805 362 928 q 143 484 143 682 q 247 164 143 283 q 524 45 351 45 q 809 162 704 45 q 914 490 914 280 q 811 812 914 696 q 532 928 709 928 z "},"Π":{"ha":961,"x_min":125,"x_max":836,"o":"m 770 0 l 770 911 l 192 911 l 192 0 l 125 0 l 125 972 l 836 972 l 836 0 l 770 0 z "},"Ρ":{"ha":755,"x_min":125,"x_max":668,"o":"m 192 390 l 192 0 l 125 0 l 125 972 l 359 972 q 589 903 509 972 q 668 700 668 833 q 579 477 668 564 q 332 390 491 390 l 192 390 m 192 911 l 192 452 l 330 452 q 530 514 462 452 q 599 692 599 577 q 347 911 599 911 l 192 911 z "},"Σ":{"ha":717,"x_min":12,"x_max":677,"o":"m 12 0 l 12 24 l 380 503 l 66 940 l 66 972 l 647 972 l 647 911 l 170 911 l 461 504 l 123 61 l 677 61 l 677 0 l 12 0 z "},"Τ":{"ha":710,"x_min":41,"x_max":669,"o":"m 389 911 l 389 0 l 322 0 l 322 911 l 41 911 l 41 972 l 669 972 l 669 911 l 389 911 z "},"Υ":{"ha":750,"x_min":41,"x_max":720,"o":"m 406 370 l 406 0 l 339 0 l 339 368 l 41 972 l 117 972 l 343 504 q 374 432 355 479 l 376 432 q 410 503 386 457 l 647 972 l 720 972 l 406 370 z "},"Χ":{"ha":782,"x_min":41,"x_max":733,"o":"m 652 0 l 428 371 q 392 439 407 406 l 389 439 q 350 371 370 401 l 122 0 l 41 0 l 349 490 l 60 972 l 140 972 l 358 607 q 393 542 375 578 l 396 542 l 432 607 l 648 972 l 726 972 l 435 492 l 733 0 l 652 0 z "},"Ψ":{"ha":1078,"x_min":96,"x_max":982,"o":"m 572 339 l 635 339 q 750 357 698 339 q 838 410 802 374 q 895 499 875 446 q 916 624 916 553 l 916 972 l 982 972 l 982 619 q 960 488 982 550 q 894 379 938 426 q 786 306 850 333 q 635 278 721 278 l 572 278 l 572 0 l 505 0 l 505 278 l 443 278 q 290 306 355 278 q 182 379 225 333 q 117 488 138 426 q 96 619 96 550 l 96 972 l 163 972 l 163 624 q 180 509 163 562 q 233 419 197 456 q 320 360 268 381 q 443 339 372 339 l 505 339 l 505 972 l 572 972 l 572 339 z "},"Ω":{"ha":1048,"x_min":74,"x_max":983,"o":"m 660 0 l 660 61 q 914 525 914 249 q 811 819 914 709 q 536 928 708 928 q 250 819 357 928 q 143 528 143 709 q 399 61 143 250 l 399 0 l 75 0 l 75 61 l 314 61 q 74 529 74 243 q 199 863 74 738 q 528 989 325 989 q 860 867 736 989 q 983 532 983 745 q 919 268 983 392 q 743 61 854 144 l 983 61 l 983 0 l 660 0 z "},"Ϊ":{"ha":317,"x_min":-5,"x_max":319,"o":"m 125 0 l 125 972 l 192 972 l 192 0 l 125 0 m 269 1042 q 236 1055 251 1042 q 221 1090 221 1068 q 236 1124 221 1112 q 268 1137 250 1137 q 303 1124 288 1137 q 319 1090 319 1111 q 305 1056 319 1069 q 269 1042 290 1042 m 43 1042 q 9 1055 24 1042 q -5 1090 -5 1068 q 9 1124 -5 1112 q 42 1137 24 1137 q 77 1124 62 1137 q 93 1090 93 1111 q 79 1056 93 1069 q 43 1042 64 1042 z "},"Ϋ":{"ha":750,"x_min":41,"x_max":720,"o":"m 406 370 l 406 0 l 339 0 l 339 368 l 41 972 l 117 972 l 343 504 q 374 432 355 479 l 376 432 q 410 503 386 457 l 647 972 l 720 972 l 406 370 m 491 1041 q 458 1054 473 1041 q 443 1090 443 1067 q 457 1124 443 1111 q 490 1137 472 1137 q 525 1123 509 1137 q 541 1090 541 1110 q 527 1055 541 1069 q 491 1041 512 1041 m 265 1041 q 231 1054 246 1041 q 216 1090 216 1067 q 231 1124 216 1111 q 264 1137 246 1137 q 299 1123 283 1137 q 315 1090 315 1110 q 300 1055 315 1069 q 265 1041 286 1041 z "},"ά":{"ha":829,"x_min":72,"x_max":818,"o":"m 610 340 q 573 460 591 404 q 530 561 555 517 q 468 629 505 604 q 378 654 432 654 q 277 630 321 654 q 201 563 233 606 q 154 459 170 519 q 138 325 138 398 q 153 205 138 258 q 195 116 168 153 q 262 60 222 79 q 350 40 301 40 q 427 58 391 40 q 492 110 462 76 q 547 191 522 143 q 593 297 572 238 l 610 340 m 760 -8 q 719 6 736 -8 q 688 52 702 21 q 661 131 673 83 q 633 245 648 178 l 630 245 q 570 125 601 174 q 503 44 538 75 q 427 -2 468 12 q 336 -17 386 -17 q 229 7 277 -17 q 145 75 180 31 q 91 181 111 119 q 72 321 72 243 q 92 478 72 407 q 151 602 113 550 q 247 683 190 654 q 376 711 303 711 q 452 700 418 711 q 512 668 486 688 q 557 621 538 648 q 593 562 577 593 q 620 497 608 531 q 642 431 631 464 l 643 431 q 662 488 650 454 q 687 558 674 522 q 713 631 701 595 q 734 694 726 667 l 804 694 q 775 616 792 661 q 739 522 758 570 q 701 427 720 474 q 668 342 682 379 q 696 231 684 277 q 718 152 708 184 q 736 99 728 119 q 751 67 744 79 q 766 53 759 56 q 781 49 773 49 q 800 51 791 49 q 818 56 808 52 l 818 1 q 790 -6 804 -3 q 760 -8 777 -8 m 395 805 l 361 805 l 422 1055 l 494 1055 l 395 805 z "},"έ":{"ha":608,"x_min":56,"x_max":561,"o":"m 561 20 q 516 6 543 12 q 460 -6 490 -1 q 400 -14 431 -11 q 342 -17 369 -17 q 212 -1 266 -17 q 123 43 157 16 q 72 107 88 71 q 56 186 56 144 q 71 255 56 224 q 111 309 85 286 q 168 346 136 332 q 236 366 201 361 l 236 368 q 180 387 208 374 q 131 419 153 399 q 96 465 109 439 q 82 525 82 492 q 105 614 82 578 q 165 671 128 650 q 249 702 202 693 q 343 711 296 711 q 392 708 366 711 q 444 700 418 705 q 492 689 469 694 q 530 677 514 683 l 530 612 q 487 628 511 621 q 438 642 463 636 q 388 651 413 648 q 342 654 363 654 q 194 620 241 654 q 147 524 147 586 q 171 455 147 481 q 232 414 195 429 q 311 394 268 399 q 390 389 353 389 q 408 389 397 389 q 430 389 419 389 q 452 389 441 389 q 469 390 463 389 l 469 330 q 441 331 456 330 q 412 331 429 331 q 375 332 395 332 q 185 296 250 332 q 121 184 121 261 q 134 128 121 155 q 174 82 146 102 q 246 51 202 62 q 353 40 290 40 q 407 44 378 40 q 462 55 435 48 q 515 69 490 61 q 561 85 541 77 l 561 20 m 314 805 l 281 805 l 342 1055 l 413 1055 l 314 805 z "},"ή":{"ha":757,"x_min":93,"x_max":646,"o":"m 583 -288 l 583 396 q 574 505 583 457 q 543 585 565 552 q 486 634 522 617 q 397 652 450 652 q 300 629 342 652 q 230 572 258 607 q 188 493 202 537 q 174 407 174 450 l 174 0 l 111 0 l 111 484 q 110 532 111 505 q 107 587 109 559 q 101 644 104 616 q 93 694 98 671 l 155 694 q 160 669 157 684 q 165 635 163 653 q 168 597 167 616 q 170 562 170 578 l 172 562 q 226 641 195 612 q 289 686 256 671 q 353 707 321 702 q 411 711 385 711 q 513 692 469 711 q 586 636 557 673 q 631 548 616 600 q 646 429 646 495 l 646 -288 l 583 -288 m 365 805 l 332 805 l 393 1055 l 464 1055 l 365 805 z "},"ί":{"ha":351,"x_min":107,"x_max":310,"o":"m 310 1 q 280 -6 295 -4 q 254 -8 266 -8 q 189 4 216 -8 q 145 40 162 17 q 119 94 127 62 q 111 165 111 126 l 111 694 l 174 694 l 174 164 q 183 103 174 126 q 206 68 193 81 q 235 53 220 56 q 261 49 250 49 q 290 51 279 49 q 310 56 300 52 l 310 1 m 140 805 l 107 805 l 168 1055 l 239 1055 l 140 805 z "},"ΰ":{"ha":783,"x_min":24,"x_max":709,"o":"m 171 310 q 188 189 171 240 q 235 105 204 138 q 310 56 266 72 q 408 40 353 40 q 500 57 456 40 q 576 109 543 75 q 628 196 608 144 q 647 319 647 249 q 623 514 647 417 q 558 694 599 610 l 625 694 q 659 613 644 656 q 686 522 675 569 q 703 425 697 474 q 709 325 709 375 q 687 178 709 242 q 624 71 664 115 q 529 5 584 28 q 408 -17 473 -17 q 275 6 332 -17 q 182 72 219 30 q 126 171 144 113 q 109 297 109 229 l 109 538 q 105 588 109 568 q 94 620 101 608 q 78 637 87 632 q 57 642 68 642 q 41 641 47 642 q 24 637 34 640 l 24 690 q 50 696 36 694 q 76 698 63 698 q 146 666 121 698 q 171 568 171 633 l 171 310 m 572 892 q 557 857 572 871 q 522 843 543 843 q 505 846 513 843 q 489 855 496 849 q 478 870 482 861 q 473 892 473 880 q 478 912 473 903 q 489 927 482 921 q 504 936 496 933 q 520 939 513 939 q 556 926 540 939 q 572 892 572 913 m 365 807 l 332 807 l 393 1057 l 463 1057 l 365 807 m 276 892 q 261 857 276 871 q 226 843 247 843 q 209 846 218 843 q 193 855 200 849 q 182 870 186 861 q 178 892 178 880 q 182 912 178 903 q 193 927 186 921 q 208 936 200 933 q 224 939 216 939 q 260 926 244 939 q 276 892 276 913 z "},"β":{"ha":720,"x_min":111,"x_max":661,"o":"m 661 262 q 643 152 661 203 q 590 63 625 100 q 505 4 555 26 q 390 -17 454 -17 q 326 -11 357 -17 q 268 4 295 -5 q 216 25 240 14 q 174 49 193 37 l 174 -268 l 111 -268 l 111 757 q 131 880 111 827 q 186 968 151 932 q 268 1021 221 1003 q 370 1039 315 1039 q 464 1022 422 1039 q 534 975 505 1005 q 578 903 563 945 q 594 812 594 861 q 582 730 594 768 q 546 660 569 692 q 489 602 522 627 q 414 558 455 576 l 414 555 q 522 512 475 540 q 599 446 568 484 q 646 362 630 408 q 661 262 661 315 m 596 258 q 581 347 596 304 q 531 424 565 389 q 444 485 497 459 q 314 524 390 511 l 314 578 q 398 606 359 588 q 467 653 437 625 q 512 718 496 681 q 529 803 529 755 q 519 872 529 840 q 490 929 510 905 q 438 968 469 954 q 363 982 407 982 q 288 968 323 982 q 228 926 254 954 q 188 853 203 897 q 174 747 174 808 l 174 114 q 218 89 195 102 q 269 64 242 75 q 325 47 295 54 q 387 40 355 40 q 473 55 434 40 q 539 98 511 70 q 581 166 566 125 q 596 258 596 207 z "},"γ":{"ha":721,"x_min":21,"x_max":671,"o":"m 671 656 q 650 477 671 564 q 589 305 629 390 q 494 135 550 220 q 368 -39 438 50 q 368 -110 368 -71 q 368 -188 368 -149 q 367 -263 368 -227 q 366 -326 366 -299 l 297 -326 q 301 -254 300 -295 q 303 -170 302 -214 q 303 -82 303 -126 q 302 0 302 -38 q 261 158 288 75 q 199 330 235 241 q 118 510 163 418 q 21 694 73 602 l 96 694 q 189 516 149 601 q 260 352 229 431 q 315 199 292 273 q 358 50 339 124 l 361 50 q 457 191 412 118 q 535 337 502 263 q 587 486 568 412 q 606 631 606 559 q 605 664 606 650 q 603 694 605 677 l 668 694 q 670 675 669 684 q 671 656 671 666 z "},"ζ":{"ha":614,"x_min":52,"x_max":607,"o":"m 607 -111 q 604 -143 607 -129 q 595 -169 600 -157 q 583 -190 589 -180 q 570 -210 576 -200 l 509 -210 q 523 -190 516 -199 q 534 -171 530 -180 q 542 -152 539 -162 q 545 -129 545 -142 q 535 -85 545 -105 q 502 -49 526 -65 q 436 -22 477 -33 q 329 -3 394 -10 q 215 27 266 5 q 127 88 163 50 q 71 178 91 125 q 52 300 52 231 q 85 476 52 390 q 178 645 119 562 q 317 808 237 728 q 492 968 398 888 l 492 971 l 160 971 l 160 1028 l 570 1028 l 570 972 q 475 887 526 935 q 375 787 425 840 q 278 674 325 733 q 196 554 232 616 q 139 429 161 492 q 118 302 118 366 q 132 203 118 245 q 175 133 146 161 q 246 86 203 104 q 345 60 288 69 q 405 49 374 55 q 465 35 435 43 q 519 15 494 27 q 565 -15 545 3 q 596 -56 585 -32 q 607 -111 607 -79 z "},"η":{"ha":757,"x_min":93,"x_max":646,"o":"m 583 -288 l 583 396 q 574 505 583 457 q 543 585 565 552 q 486 634 522 617 q 397 652 450 652 q 300 629 342 652 q 230 572 258 607 q 188 493 202 537 q 174 407 174 450 l 174 0 l 111 0 l 111 484 q 110 532 111 505 q 107 587 109 559 q 101 644 104 616 q 93 694 98 671 l 155 694 q 160 669 157 684 q 165 635 163 653 q 168 597 167 616 q 170 562 170 578 l 172 562 q 226 641 195 612 q 289 686 256 671 q 353 707 321 702 q 411 711 385 711 q 513 692 469 711 q 586 636 557 673 q 631 548 616 600 q 646 429 646 495 l 646 -288 l 583 -288 z "},"θ":{"ha":778,"x_min":61,"x_max":717,"o":"m 717 522 q 694 292 717 392 q 629 122 671 191 q 524 18 586 54 q 383 -17 462 -17 q 249 17 309 -17 q 148 117 189 51 q 83 280 106 183 q 61 504 61 378 q 82 730 61 630 q 146 900 104 831 q 254 1007 189 970 q 404 1044 318 1044 q 546 1008 486 1044 q 643 903 605 971 q 699 739 681 835 q 717 522 717 642 m 653 551 q 648 662 653 608 q 631 765 643 716 q 600 854 619 813 q 552 924 581 895 q 485 971 524 954 q 396 987 446 987 q 313 971 351 987 q 245 926 275 955 q 193 856 216 897 q 156 767 171 815 q 134 664 141 718 q 126 551 126 609 l 653 551 m 126 494 q 146 291 126 376 q 201 149 165 205 q 284 67 236 94 q 390 40 333 40 q 496 68 448 40 q 579 154 544 97 q 633 296 614 211 q 653 494 653 381 l 126 494 z "},"ι":{"ha":351,"x_min":111,"x_max":310,"o":"m 310 1 q 280 -6 295 -4 q 254 -8 266 -8 q 189 4 216 -8 q 145 40 162 17 q 119 94 127 62 q 111 165 111 126 l 111 694 l 174 694 l 174 164 q 183 103 174 126 q 206 68 193 81 q 235 53 220 56 q 261 49 250 49 q 290 51 279 49 q 310 56 300 52 l 310 1 z "},"κ":{"ha":728,"x_min":111,"x_max":660,"o":"m 579 0 l 304 364 l 174 214 l 174 0 l 111 0 l 111 694 l 174 694 l 174 301 l 407 570 q 454 623 432 598 q 498 665 477 647 q 540 692 519 682 q 582 703 560 703 q 599 702 591 703 q 616 700 607 702 l 616 644 q 609 645 611 645 q 605 646 607 646 q 601 646 604 646 q 593 646 599 646 q 527 614 561 646 q 444 526 492 582 l 347 414 l 660 0 l 579 0 z "},"λ":{"ha":692,"x_min":25,"x_max":661,"o":"m 595 0 l 367 625 l 93 0 l 25 0 l 336 697 l 288 840 q 268 889 279 865 q 239 932 256 913 q 199 963 222 951 q 144 975 176 975 q 114 972 130 975 q 82 966 98 970 l 82 1026 q 115 1030 99 1029 q 147 1032 132 1032 q 218 1021 187 1032 q 272 986 248 1009 q 315 929 296 964 q 350 850 334 895 l 661 0 l 595 0 z "},"μ":{"ha":766,"x_min":111,"x_max":730,"o":"m 585 123 q 493 21 551 58 q 361 -17 435 -17 q 291 -10 320 -17 q 241 8 262 -3 q 205 36 220 20 q 176 69 191 52 l 174 69 l 174 -268 l 111 -268 l 111 694 l 174 694 l 174 302 q 180 207 174 254 q 208 122 187 159 q 267 63 229 85 q 368 40 305 40 q 452 57 413 40 q 520 109 492 75 q 566 193 549 142 q 583 310 583 243 l 583 694 l 646 694 l 646 155 q 649 105 646 125 q 660 72 653 85 q 676 54 667 60 q 697 49 686 49 q 713 50 707 49 q 730 54 720 51 l 730 1 q 705 -5 718 -3 q 678 -7 691 -7 q 612 27 633 -7 q 587 123 590 61 l 585 123 z "},"ν":{"ha":730,"x_min":22,"x_max":650,"o":"m 650 586 q 636 470 650 529 q 599 355 622 412 q 547 247 576 299 q 488 148 518 194 q 430 64 458 102 q 380 0 402 26 l 306 0 l 22 694 l 93 694 l 351 64 q 399 126 373 91 q 451 203 425 162 q 501 290 477 244 q 544 383 525 336 q 573 479 562 431 q 585 574 585 527 q 581 638 585 610 q 570 694 578 666 l 639 694 q 647 644 644 673 q 650 586 650 616 z "},"ξ":{"ha":618,"x_min":60,"x_max":593,"o":"m 593 -115 q 581 -179 593 -151 q 555 -225 569 -206 l 494 -225 q 519 -181 510 -203 q 528 -134 528 -159 q 523 -93 528 -113 q 497 -55 517 -73 q 438 -23 477 -37 q 330 0 399 -8 q 216 30 267 8 q 131 86 166 52 q 78 168 96 121 q 60 272 60 214 q 78 371 60 323 q 129 456 96 418 q 208 522 161 494 q 310 563 254 550 q 247 591 275 573 q 197 632 218 608 q 164 686 176 656 q 152 750 152 715 q 175 838 152 801 q 233 901 199 875 q 307 943 268 926 q 379 968 347 959 l 379 971 l 134 971 l 134 1028 l 525 1028 l 525 971 q 459 955 494 964 q 390 933 424 946 q 324 904 355 921 q 269 865 293 887 q 231 814 245 842 q 217 750 217 785 q 233 688 217 715 q 276 640 248 661 q 340 605 303 619 q 420 583 377 591 q 461 584 444 583 q 500 586 478 585 l 500 526 q 474 528 488 528 q 446 528 460 528 q 307 506 367 528 q 207 449 247 484 q 145 369 166 414 q 125 278 125 324 q 135 202 125 237 q 171 139 146 167 q 238 93 196 112 q 343 64 280 73 q 461 37 413 54 q 538 -1 509 21 q 580 -52 568 -24 q 593 -115 593 -81 z "},"ο":{"ha":779,"x_min":61,"x_max":718,"o":"m 718 346 q 699 208 718 273 q 638 92 679 142 q 536 13 597 42 q 390 -17 474 -17 q 245 12 307 -17 q 143 91 184 41 q 81 205 102 140 q 61 343 61 271 q 90 511 61 441 q 165 625 118 581 q 272 691 212 670 q 397 711 333 711 q 530 687 471 711 q 631 616 589 663 q 695 502 673 570 q 718 346 718 433 m 653 347 q 635 483 653 425 q 583 578 616 541 q 502 635 549 616 q 395 654 454 654 q 284 633 334 654 q 199 572 235 612 q 145 474 164 532 q 126 342 126 416 q 144 220 126 275 q 196 124 162 164 q 279 62 230 84 q 392 40 329 40 q 508 63 459 40 q 590 126 557 85 q 637 224 622 168 q 653 347 653 280 z "},"ρ":{"ha":779,"x_min":111,"x_max":718,"o":"m 718 367 q 696 205 718 276 q 633 84 674 134 q 534 9 593 35 q 403 -17 476 -17 q 330 -10 363 -17 q 269 10 296 -3 q 218 39 241 22 q 176 75 195 56 l 174 75 l 174 -268 l 111 -268 l 111 363 q 131 510 111 445 q 189 619 151 574 q 281 688 227 664 q 404 711 336 711 q 546 682 486 711 q 643 604 605 652 q 700 493 682 555 q 718 367 718 431 m 652 367 q 635 480 652 428 q 588 572 619 533 q 512 632 557 610 q 408 654 467 654 q 299 630 344 654 q 227 566 255 606 q 186 474 199 526 q 174 366 174 422 l 174 154 q 213 109 190 130 q 266 72 237 87 q 331 48 296 57 q 404 40 366 40 q 506 60 460 40 q 584 121 552 80 q 634 223 616 161 q 652 367 652 284 z "},"ς":{"ha":639,"x_min":61,"x_max":595,"o":"m 595 -115 q 583 -179 595 -151 q 557 -225 570 -206 l 492 -225 q 518 -182 507 -206 q 529 -126 529 -158 q 518 -75 529 -96 q 483 -39 507 -54 q 422 -15 459 -24 q 332 1 385 -5 q 212 38 263 10 q 128 105 161 65 q 78 195 94 146 q 61 297 61 244 q 87 470 61 393 q 160 601 113 547 q 273 683 208 654 q 416 711 338 711 q 459 708 437 711 q 500 701 480 705 q 536 691 519 696 q 564 679 553 685 l 564 608 q 491 642 532 629 q 408 654 449 654 q 285 625 338 654 q 197 546 233 595 q 144 433 161 496 q 126 304 126 370 q 142 209 126 250 q 189 136 159 167 q 263 86 220 106 q 363 58 307 67 q 477 31 433 47 q 548 -5 522 16 q 585 -54 574 -26 q 595 -115 595 -81 z "},"υ":{"ha":790,"x_min":24,"x_max":709,"o":"m 171 310 q 188 189 171 240 q 235 105 204 138 q 310 56 266 72 q 408 40 353 40 q 500 57 456 40 q 576 109 543 75 q 628 196 608 144 q 647 319 647 249 q 623 514 647 417 q 558 694 599 610 l 625 694 q 659 613 644 656 q 686 522 675 569 q 703 425 697 474 q 709 325 709 375 q 687 178 709 242 q 624 71 664 115 q 529 5 584 28 q 408 -17 473 -17 q 275 6 332 -17 q 182 72 219 30 q 126 171 144 113 q 109 297 109 229 l 109 538 q 105 588 109 568 q 94 620 101 608 q 78 637 87 632 q 57 642 68 642 q 41 641 47 642 q 24 637 34 640 l 24 690 q 50 696 36 694 q 76 698 63 698 q 146 666 121 698 q 171 568 171 633 l 171 310 z "},"χ":{"ha":747,"x_min":28,"x_max":737,"o":"m 693 -325 q 639 -315 663 -325 q 594 -282 615 -306 q 551 -220 572 -259 q 503 -122 529 -181 l 372 176 l 99 -317 l 28 -317 l 341 238 l 207 536 q 178 594 191 571 q 152 630 164 617 q 126 649 139 644 q 100 654 113 654 q 68 648 83 654 l 68 707 q 85 710 76 709 q 106 711 94 711 q 151 705 131 711 q 190 683 172 699 q 223 643 208 668 q 256 582 239 618 l 380 299 l 602 694 l 671 694 l 411 236 l 583 -147 q 636 -236 608 -203 q 703 -268 665 -268 q 737 -264 723 -268 l 737 -320 q 716 -323 727 -322 q 693 -325 705 -325 z "},"ψ":{"ha":1042,"x_min":103,"x_max":939,"o":"m 489 -326 l 489 -17 l 450 -17 q 314 8 377 -17 q 203 82 250 33 q 130 204 157 132 q 103 372 103 277 l 103 694 l 168 694 l 168 372 q 191 227 168 290 q 253 123 214 165 q 343 61 292 81 q 450 40 394 40 l 489 40 l 489 903 l 551 903 l 551 40 l 590 40 q 695 60 644 40 q 786 122 746 81 q 849 225 825 163 q 873 372 873 288 l 873 694 l 939 694 l 939 374 q 911 205 939 278 q 835 82 883 132 q 724 8 787 33 q 590 -17 661 -17 l 551 -17 l 551 -326 l 489 -326 z "},"ω":{"ha":1122,"x_min":81,"x_max":1042,"o":"m 1042 314 q 1024 178 1042 239 q 971 74 1006 117 q 886 7 937 31 q 771 -17 836 -17 q 697 -4 730 -17 q 638 32 664 9 q 593 83 612 54 q 562 143 574 112 l 559 143 q 528 84 548 113 q 482 33 509 55 q 421 -3 455 10 q 346 -17 387 -17 q 231 7 281 -17 q 148 76 182 32 q 98 180 115 119 q 81 314 81 241 q 89 425 81 371 q 111 527 98 478 q 139 617 123 575 q 168 694 154 660 l 235 694 q 204 611 220 657 q 175 514 188 565 q 154 412 162 464 q 146 311 146 360 q 161 195 146 245 q 201 110 176 144 q 263 58 227 75 q 340 40 298 40 q 417 57 382 40 q 477 110 452 75 q 516 197 503 144 q 530 322 530 250 l 530 509 l 593 509 l 593 322 q 607 196 593 249 q 646 108 621 142 q 705 57 671 73 q 782 40 740 40 q 860 59 824 40 q 921 114 895 79 q 962 200 947 150 q 977 311 977 250 q 968 412 977 360 q 947 514 960 464 q 919 611 935 565 q 888 694 903 657 l 953 694 q 983 617 967 660 q 1011 527 998 575 q 1033 425 1025 478 q 1042 314 1042 371 z "},"ϊ":{"ha":351,"x_min":-20,"x_max":310,"o":"m 310 1 q 280 -6 295 -4 q 254 -8 266 -8 q 189 4 216 -8 q 145 40 162 17 q 119 94 127 62 q 111 165 111 126 l 111 694 l 174 694 l 174 164 q 183 103 174 126 q 206 68 193 81 q 235 53 220 56 q 261 49 250 49 q 290 51 279 49 q 310 56 300 52 l 310 1 m 255 806 q 222 819 237 806 q 207 854 207 832 q 221 888 207 876 q 254 901 236 901 q 289 888 273 901 q 305 854 305 875 q 291 820 305 833 q 255 806 276 806 m 29 806 q -5 819 10 806 q -20 854 -20 832 q -5 888 -20 876 q 28 901 10 901 q 63 888 47 901 q 79 854 79 875 q 64 820 79 833 q 29 806 50 806 z "},"ϋ":{"ha":790,"x_min":24,"x_max":709,"o":"m 171 310 q 188 189 171 240 q 235 105 204 138 q 310 56 266 72 q 408 40 353 40 q 500 57 456 40 q 576 109 543 75 q 628 196 608 144 q 647 319 647 249 q 623 514 647 417 q 558 694 599 610 l 625 694 q 659 613 644 656 q 686 522 675 569 q 703 425 697 474 q 709 325 709 375 q 687 178 709 242 q 624 71 664 115 q 529 5 584 28 q 408 -17 473 -17 q 275 6 332 -17 q 182 72 219 30 q 126 171 144 113 q 109 297 109 229 l 109 538 q 105 588 109 568 q 94 620 101 608 q 78 637 87 632 q 57 642 68 642 q 41 641 47 642 q 24 637 34 640 l 24 690 q 50 696 36 694 q 76 698 63 698 q 146 666 121 698 q 171 568 171 633 l 171 310 m 485 806 q 452 819 467 806 q 437 854 437 832 q 451 888 437 876 q 484 901 466 901 q 519 888 503 901 q 535 854 535 875 q 520 820 535 833 q 485 806 506 806 m 259 806 q 225 819 240 806 q 210 854 210 832 q 225 888 210 876 q 258 901 240 901 q 293 888 277 901 q 309 854 309 875 q 294 820 309 833 q 259 806 280 806 z "},"ό":{"ha":779,"x_min":61,"x_max":718,"o":"m 390 -17 q 150 83 238 -17 q 61 343 61 183 q 154 614 61 516 q 397 711 246 711 q 632 614 546 711 q 718 346 718 517 q 630 83 718 184 q 390 -17 543 -17 m 395 654 q 199 572 272 654 q 126 342 126 489 q 197 123 126 205 q 392 40 269 40 q 585 121 517 40 q 653 347 653 203 q 586 575 653 496 q 395 654 518 654 m 373 805 l 340 805 l 401 1055 l 472 1055 l 373 805 z "},"ύ":{"ha":790,"x_min":24,"x_max":709,"o":"m 171 310 q 188 189 171 240 q 235 105 204 138 q 310 56 266 72 q 408 40 353 40 q 500 57 456 40 q 576 109 543 75 q 628 196 608 144 q 647 319 647 249 q 623 514 647 417 q 558 694 599 610 l 625 694 q 659 613 644 656 q 686 522 675 569 q 703 425 697 474 q 709 325 709 375 q 687 178 709 242 q 624 71 664 115 q 529 5 584 28 q 408 -17 473 -17 q 275 6 332 -17 q 182 72 219 30 q 126 171 144 113 q 109 297 109 229 l 109 538 q 105 588 109 568 q 94 620 101 608 q 78 637 87 632 q 57 642 68 642 q 41 641 47 642 q 24 637 34 640 l 24 690 q 50 696 36 694 q 76 698 63 698 q 146 666 121 698 q 171 568 171 633 l 171 310 m 374 805 l 341 805 l 402 1055 l 473 1055 l 374 805 z "},"ώ":{"ha":1122,"x_min":81,"x_max":1042,"o":"m 1042 314 q 1024 178 1042 239 q 971 74 1006 117 q 886 7 937 31 q 771 -17 836 -17 q 697 -4 730 -17 q 638 32 664 9 q 593 83 612 54 q 562 143 574 112 l 559 143 q 528 84 548 113 q 482 33 509 55 q 421 -3 455 10 q 346 -17 387 -17 q 231 7 281 -17 q 148 76 182 32 q 98 180 115 119 q 81 314 81 241 q 89 425 81 371 q 111 527 98 478 q 139 617 123 575 q 168 694 154 660 l 235 694 q 204 611 220 657 q 175 514 188 565 q 154 412 162 464 q 146 311 146 360 q 161 195 146 245 q 201 110 176 144 q 263 58 227 75 q 340 40 298 40 q 417 57 382 40 q 477 110 452 75 q 516 197 503 144 q 530 322 530 250 l 530 509 l 593 509 l 593 322 q 607 196 593 249 q 646 108 621 142 q 705 57 671 73 q 782 40 740 40 q 860 59 824 40 q 921 114 895 79 q 962 200 947 150 q 977 311 977 250 q 968 412 977 360 q 947 514 960 464 q 919 611 935 565 q 888 694 903 657 l 953 694 q 983 617 967 660 q 1011 527 998 575 q 1033 425 1025 478 q 1042 314 1042 371 m 553 805 l 520 805 l 581 1055 l 652 1055 l 553 805 z "},"Ё":{"ha":694,"x_min":125,"x_max":602,"o":"m 125 0 l 125 972 l 579 972 l 579 911 l 192 911 l 192 521 l 551 521 l 551 460 l 192 460 l 192 61 l 602 61 l 602 0 l 125 0 m 484 1042 q 451 1055 466 1042 q 436 1090 436 1068 q 451 1124 436 1112 q 483 1137 465 1137 q 518 1124 503 1137 q 534 1090 534 1111 q 520 1056 534 1069 q 484 1042 505 1042 m 258 1042 q 224 1055 239 1042 q 210 1090 210 1068 q 224 1124 210 1112 q 257 1137 239 1137 q 292 1124 277 1137 q 308 1090 308 1111 q 294 1056 308 1069 q 258 1042 279 1042 z "},"Ђ":{"ha":956,"x_min":41,"x_max":872,"o":"m 872 254 q 857 151 872 200 q 810 64 842 102 q 731 5 779 27 q 616 -17 682 -17 q 557 -12 586 -17 q 509 0 528 -6 l 509 68 q 559 53 530 60 q 616 46 588 46 q 700 63 665 46 q 758 110 735 81 q 790 176 780 138 q 800 253 800 213 q 784 345 800 303 q 737 417 768 387 q 660 464 706 448 q 551 481 613 481 l 361 481 l 361 0 l 294 0 l 294 911 l 41 911 l 41 972 l 669 972 l 669 911 l 361 911 l 361 542 l 561 542 q 685 525 628 542 q 784 472 743 507 q 849 382 825 436 q 872 254 872 328 z "},"Ѓ":{"ha":603,"x_min":125,"x_max":582,"o":"m 192 911 l 192 0 l 125 0 l 125 972 l 582 972 l 582 911 l 192 911 m 355 1055 l 294 1055 l 453 1278 l 524 1278 l 355 1055 z "},"Є":{"ha":863,"x_min":74,"x_max":771,"o":"m 525 -17 q 341 18 425 -17 q 199 117 258 54 q 107 270 140 180 q 74 467 74 359 q 113 690 74 593 q 217 854 151 787 q 371 955 283 920 q 557 989 458 989 q 683 977 632 989 q 771 953 734 966 l 771 882 q 677 914 729 901 q 555 928 625 928 q 400 900 472 928 q 274 820 328 873 q 185 692 219 768 q 144 518 151 616 l 621 518 l 621 456 l 143 456 q 179 273 146 350 q 267 144 213 195 q 389 69 321 94 q 530 45 458 45 q 668 60 607 45 q 771 97 728 75 l 771 32 q 729 16 753 24 q 674 0 705 7 q 607 -12 644 -7 q 525 -17 570 -17 z "},"Ѕ":{"ha":690,"x_min":94,"x_max":607,"o":"m 94 35 l 94 111 q 306 45 199 45 q 479 92 420 45 q 538 224 538 139 q 498 343 538 298 q 326 464 458 387 q 139 608 178 550 q 100 742 100 666 q 180 917 100 845 q 393 989 260 989 q 567 960 480 989 l 567 889 q 385 928 481 928 q 228 878 286 928 q 170 750 170 827 q 209 631 170 675 q 380 511 249 587 q 562 374 517 434 q 607 236 607 314 q 529 54 607 124 q 310 -17 452 -17 q 194 -1 260 -17 q 94 35 129 14 z "},"Ї":{"ha":317,"x_min":-5,"x_max":319,"o":"m 125 0 l 125 972 l 192 972 l 192 0 l 125 0 m 269 1042 q 236 1055 251 1042 q 221 1090 221 1068 q 236 1124 221 1112 q 268 1137 250 1137 q 303 1124 288 1137 q 319 1090 319 1111 q 305 1056 319 1069 q 269 1042 290 1042 m 43 1042 q 9 1055 24 1042 q -5 1090 -5 1068 q 9 1124 -5 1112 q 42 1137 24 1137 q 77 1124 62 1137 q 93 1090 93 1111 q 79 1056 93 1069 q 43 1042 64 1042 z "},"Љ":{"ha":1353,"x_min":21,"x_max":1267,"o":"m 707 0 l 707 909 l 399 909 q 374 723 387 819 q 346 537 360 627 q 318 371 332 448 q 294 244 305 294 q 267 145 283 191 q 226 63 250 98 q 167 8 201 28 q 86 -12 133 -12 q 49 -9 64 -12 q 21 -3 33 -7 l 21 65 q 83 52 48 52 q 137 67 114 52 q 177 112 160 83 q 208 183 195 141 q 233 277 221 224 q 249 355 240 309 q 267 455 257 400 q 287 573 277 511 q 306 703 296 636 q 326 838 316 769 q 343 972 335 906 l 774 972 l 774 541 l 994 541 q 1102 526 1052 541 q 1188 480 1152 511 q 1246 400 1225 449 q 1267 281 1267 351 q 1248 172 1267 223 q 1192 83 1229 121 q 1100 22 1155 45 q 975 0 1046 0 l 707 0 m 1197 275 q 1181 369 1197 330 q 1135 432 1166 408 q 1060 468 1105 456 q 957 479 1015 479 l 774 479 l 774 61 l 961 61 q 1068 77 1023 61 q 1141 122 1113 94 q 1183 190 1170 151 q 1197 275 1197 229 z "},"Њ":{"ha":1394,"x_min":125,"x_max":1308,"o":"m 1308 281 q 1289 172 1308 223 q 1233 83 1270 121 q 1142 22 1196 45 q 1017 0 1088 0 l 749 0 l 749 479 l 192 479 l 192 0 l 125 0 l 125 972 l 192 972 l 192 541 l 749 541 l 749 972 l 815 972 l 815 541 l 1036 541 q 1143 526 1093 541 q 1230 480 1193 511 q 1287 400 1266 449 q 1308 281 1308 351 m 1239 275 q 1223 369 1239 330 q 1177 432 1208 408 q 1102 468 1147 456 q 999 479 1057 479 l 815 479 l 815 61 l 1003 61 q 1110 77 1065 61 q 1183 122 1155 94 q 1225 190 1212 151 q 1239 275 1239 229 z "},"Ћ":{"ha":964,"x_min":41,"x_max":873,"o":"m 807 0 l 807 260 q 795 358 807 315 q 758 432 783 402 q 690 478 732 463 q 590 494 649 494 l 389 494 l 389 0 l 322 0 l 322 911 l 41 911 l 41 972 l 669 972 l 669 911 l 389 911 l 389 555 l 593 555 q 711 539 659 555 q 799 488 763 523 q 854 397 835 452 q 873 262 873 341 l 873 0 l 807 0 z "},"Ќ":{"ha":732,"x_min":125,"x_max":720,"o":"m 625 0 l 211 465 q 195 488 199 478 l 192 488 l 192 0 l 125 0 l 125 972 l 192 972 l 192 514 l 195 514 q 212 538 203 528 l 606 972 l 693 972 l 267 501 l 720 0 l 625 0 m 406 1055 l 345 1055 l 503 1278 l 574 1278 l 406 1055 z "},"Ў":{"ha":745,"x_min":41,"x_max":737,"o":"m 428 256 q 374 145 402 195 q 313 59 347 95 q 240 3 280 23 q 149 -17 199 -17 q 94 -11 119 -17 q 51 3 68 -5 l 51 75 q 100 54 73 62 q 149 46 127 46 q 217 61 188 46 q 272 105 247 77 q 318 173 296 133 q 363 262 340 213 l 41 972 l 117 972 l 359 422 q 368 404 363 414 q 378 380 373 393 q 388 356 383 368 q 397 334 393 344 l 400 334 q 418 377 408 357 q 433 414 427 398 l 667 972 l 737 972 l 428 256 m 390 1076 q 461 1087 429 1076 q 515 1118 492 1099 q 551 1164 538 1138 q 568 1217 564 1190 l 634 1217 q 609 1146 627 1181 q 559 1084 590 1111 q 486 1040 529 1057 q 389 1024 444 1024 q 294 1040 335 1024 q 226 1084 254 1057 q 181 1146 198 1111 q 158 1217 165 1181 l 224 1217 q 239 1164 228 1190 q 271 1118 251 1138 q 321 1087 292 1099 q 389 1076 350 1076 l 390 1076 z "},"Џ":{"ha":940,"x_min":125,"x_max":815,"o":"m 500 0 l 500 -260 l 435 -260 l 435 0 l 125 0 l 125 972 l 192 972 l 192 61 l 749 61 l 749 972 l 815 972 l 815 0 l 500 0 z "},"А":{"ha":873,"x_min":40,"x_max":833,"o":"m 758 0 l 647 302 l 225 302 l 114 0 l 40 0 l 407 972 l 471 972 l 833 0 l 758 0 m 460 814 q 448 854 452 834 q 437 888 443 871 l 435 888 q 412 815 423 843 l 249 364 l 624 364 l 460 814 z "},"Б":{"ha":747,"x_min":125,"x_max":685,"o":"m 685 281 q 666 172 685 223 q 610 83 647 121 q 518 22 573 45 q 393 0 464 0 l 125 0 l 125 972 l 614 972 l 614 911 l 192 911 l 192 541 l 412 541 q 520 526 470 541 q 606 480 570 511 q 664 400 643 449 q 685 281 685 351 m 615 275 q 600 369 615 330 q 553 432 584 408 q 478 468 523 456 q 375 479 433 479 l 192 479 l 192 61 l 379 61 q 486 77 441 61 q 559 122 531 94 q 602 190 588 151 q 615 275 615 229 z "},"В":{"ha":755,"x_min":125,"x_max":677,"o":"m 125 0 l 125 972 l 380 972 q 563 911 495 972 q 631 747 631 849 q 586 601 631 663 q 460 513 541 538 l 460 510 q 619 438 561 500 q 677 278 677 375 q 598 78 677 155 q 386 0 519 0 l 125 0 m 192 911 l 192 534 l 328 534 q 497 589 433 534 q 561 736 561 643 q 354 911 561 911 l 192 911 m 192 473 l 192 61 l 372 61 q 548 116 487 61 q 608 272 608 171 q 335 473 608 473 l 192 473 z "},"Г":{"ha":603,"x_min":125,"x_max":582,"o":"m 192 911 l 192 0 l 125 0 l 125 972 l 582 972 l 582 911 l 192 911 z "},"Д":{"ha":916,"x_min":14,"x_max":903,"o":"m 838 -260 l 838 0 l 81 0 l 81 -260 l 14 -260 l 14 61 l 92 61 q 188 273 142 159 q 268 506 233 387 q 324 745 302 625 q 347 972 345 864 l 766 972 l 766 61 l 903 61 l 903 -260 l 838 -260 m 700 911 l 410 911 q 397 787 408 854 q 371 647 387 720 q 333 498 355 574 q 285 346 311 422 q 228 198 258 271 q 165 61 198 126 l 700 61 l 700 911 z "},"Е":{"ha":694,"x_min":125,"x_max":602,"o":"m 125 0 l 125 972 l 579 972 l 579 911 l 192 911 l 192 521 l 551 521 l 551 460 l 192 460 l 192 61 l 602 61 l 602 0 l 125 0 z "},"Ж":{"ha":1147,"x_min":12,"x_max":1135,"o":"m 1040 0 l 627 465 q 618 474 623 469 q 610 488 614 480 l 607 488 l 607 0 l 541 0 l 541 488 l 538 488 q 529 474 533 480 q 521 465 524 469 l 107 0 l 12 0 l 465 501 l 39 972 l 126 972 l 519 538 q 529 527 523 534 q 538 514 534 520 l 541 514 l 541 972 l 607 972 l 607 514 l 610 514 q 619 527 613 520 q 628 538 625 534 l 1021 972 l 1108 972 l 682 501 l 1135 0 l 1040 0 z "},"З":{"ha":749,"x_min":83,"x_max":672,"o":"m 672 267 q 651 160 672 212 q 587 70 629 109 q 482 7 545 31 q 336 -17 419 -17 q 192 2 256 -17 q 83 49 128 20 l 83 121 q 143 84 111 100 q 208 59 175 69 q 274 45 241 50 q 338 40 307 40 q 455 58 405 40 q 539 105 506 75 q 590 174 573 135 q 607 257 607 214 q 587 355 607 313 q 528 423 566 396 q 433 463 489 450 q 307 476 378 476 l 220 476 l 220 533 l 286 533 q 402 548 351 533 q 491 590 454 562 q 547 657 528 618 q 567 747 567 697 q 554 820 567 786 q 515 879 541 854 q 451 918 490 903 q 361 932 412 932 q 243 913 298 932 q 143 861 187 894 l 143 928 q 190 951 165 940 q 241 970 214 962 q 300 984 269 979 q 367 989 331 989 q 480 971 431 989 q 564 923 530 954 q 615 849 597 892 q 632 758 632 807 q 581 600 632 664 q 432 511 529 536 l 432 509 q 537 482 492 505 q 612 426 583 460 q 657 351 642 393 q 672 267 672 310 z "},"И":{"ha":985,"x_min":125,"x_max":860,"o":"m 793 0 l 793 761 q 793 782 793 770 q 793 804 793 793 q 793 827 793 816 q 794 847 793 838 l 791 847 q 783 833 788 842 q 772 816 778 825 q 761 800 766 808 q 751 786 755 791 l 172 0 l 125 0 l 125 972 l 192 972 l 192 212 q 191 173 192 196 q 189 131 191 149 l 192 131 q 212 161 199 143 q 233 193 224 180 l 808 972 l 860 972 l 860 0 l 793 0 z "},"Й":{"ha":985,"x_min":125,"x_max":860,"o":"m 793 0 l 793 761 q 793 782 793 770 q 793 804 793 793 q 793 827 793 816 q 794 847 793 838 l 791 847 q 783 833 788 842 q 772 816 778 825 q 761 800 766 808 q 751 786 755 791 l 172 0 l 125 0 l 125 972 l 192 972 l 192 212 q 191 173 192 196 q 189 131 191 149 l 192 131 q 212 161 199 143 q 233 193 224 180 l 808 972 l 860 972 l 860 0 l 793 0 m 491 1076 q 562 1087 530 1076 q 616 1118 593 1099 q 652 1164 639 1138 q 669 1217 665 1190 l 735 1217 q 710 1146 728 1181 q 661 1084 691 1111 q 587 1040 630 1057 q 490 1024 545 1024 q 395 1040 436 1024 q 327 1084 355 1057 q 282 1146 299 1111 q 259 1217 266 1181 l 326 1217 q 340 1164 329 1190 q 372 1118 352 1138 q 422 1087 393 1099 q 490 1076 451 1076 l 491 1076 z "},"К":{"ha":732,"x_min":125,"x_max":720,"o":"m 625 0 l 211 465 q 195 488 199 478 l 192 488 l 192 0 l 125 0 l 125 972 l 192 972 l 192 514 l 195 514 q 212 538 203 528 l 606 972 l 693 972 l 267 501 l 720 0 l 625 0 z "},"Л":{"ha":899,"x_min":21,"x_max":774,"o":"m 707 0 l 707 909 l 399 909 q 374 723 387 819 q 346 537 360 627 q 318 371 332 448 q 294 244 305 294 q 267 145 283 191 q 226 63 250 98 q 167 8 201 28 q 86 -12 133 -12 q 49 -9 64 -12 q 21 -3 33 -7 l 21 65 q 83 52 48 52 q 137 67 114 52 q 177 112 160 83 q 208 183 195 141 q 233 277 221 224 q 249 355 240 309 q 267 455 257 400 q 287 573 277 511 q 306 703 296 636 q 326 838 316 769 q 343 972 335 906 l 774 972 l 774 0 l 707 0 z "},"М":{"ha":1157,"x_min":125,"x_max":1032,"o":"m 968 0 l 968 690 q 975 833 968 715 l 972 833 q 937 749 951 779 l 591 0 l 570 0 l 222 745 q 191 836 205 781 l 187 836 q 192 707 192 771 l 192 0 l 125 0 l 125 972 l 187 972 l 550 189 q 557 171 553 182 q 566 148 562 159 q 581 109 573 130 l 585 109 l 592 130 q 615 195 593 133 l 972 972 l 1032 972 l 1032 0 l 968 0 z "},"Н":{"ha":940,"x_min":125,"x_max":815,"o":"m 749 0 l 749 467 l 192 467 l 192 0 l 125 0 l 125 972 l 192 972 l 192 528 l 749 528 l 749 972 l 815 972 l 815 0 l 749 0 z "},"О":{"ha":1057,"x_min":74,"x_max":983,"o":"m 525 -17 q 196 120 319 -17 q 74 476 74 257 q 200 849 74 709 q 543 989 326 989 q 862 854 740 989 q 983 501 983 720 q 859 121 983 260 q 525 -17 734 -17 m 532 928 q 253 805 362 928 q 143 484 143 682 q 247 164 143 283 q 524 45 351 45 q 809 162 704 45 q 914 490 914 280 q 811 812 914 696 q 532 928 709 928 z "},"П":{"ha":940,"x_min":125,"x_max":815,"o":"m 749 0 l 749 911 l 192 911 l 192 0 l 125 0 l 125 972 l 815 972 l 815 0 l 749 0 z "},"Р":{"ha":755,"x_min":125,"x_max":668,"o":"m 192 390 l 192 0 l 125 0 l 125 972 l 359 972 q 589 903 509 972 q 668 700 668 833 q 579 477 668 564 q 332 390 491 390 l 192 390 m 192 911 l 192 452 l 330 452 q 530 514 462 452 q 599 692 599 577 q 347 911 599 911 l 192 911 z "},"С":{"ha":863,"x_min":74,"x_max":771,"o":"m 771 32 q 525 -17 653 -17 q 200 117 326 -17 q 74 467 74 251 q 210 846 74 703 q 557 989 347 989 q 771 953 669 989 l 771 882 q 555 928 669 928 q 258 804 372 928 q 143 473 143 680 q 253 160 143 275 q 530 45 362 45 q 771 97 665 45 l 771 32 z "},"Т":{"ha":710,"x_min":41,"x_max":669,"o":"m 389 911 l 389 0 l 322 0 l 322 911 l 41 911 l 41 972 l 669 972 l 669 911 l 389 911 z "},"У":{"ha":745,"x_min":41,"x_max":737,"o":"m 428 256 q 374 145 402 195 q 313 59 347 95 q 240 3 280 23 q 149 -17 199 -17 q 94 -11 119 -17 q 51 3 68 -5 l 51 75 q 100 54 73 62 q 149 46 127 46 q 217 61 188 46 q 272 105 247 77 q 318 173 296 133 q 363 262 340 213 l 41 972 l 117 972 l 359 422 q 368 404 363 414 q 378 380 373 393 q 388 356 383 368 q 397 334 393 344 l 400 334 q 418 377 408 357 q 433 414 427 398 l 667 972 l 737 972 l 428 256 z "},"Ф":{"ha":978,"x_min":69,"x_max":908,"o":"m 908 513 q 882 366 908 435 q 810 245 857 297 q 697 164 763 194 q 550 134 631 134 l 522 134 l 522 -14 l 456 -14 l 456 134 l 428 134 q 281 163 347 134 q 168 244 215 193 q 95 365 121 296 q 69 513 69 434 q 95 653 69 587 q 167 769 120 720 q 280 847 214 819 q 429 876 347 876 l 456 876 l 456 1000 l 522 1000 l 522 876 l 549 876 q 697 848 631 876 q 810 771 764 820 q 883 656 857 722 q 908 513 908 589 m 838 511 q 816 636 838 580 q 756 732 795 692 q 665 793 718 772 q 549 815 612 815 l 522 815 l 522 195 l 550 195 q 665 217 612 195 q 756 281 718 239 q 816 381 795 322 q 838 511 838 439 m 456 815 l 429 815 q 313 793 366 815 q 222 730 260 770 q 162 634 183 690 q 140 511 140 578 q 162 380 140 438 q 221 280 183 321 q 313 217 260 239 q 428 195 366 195 l 456 195 l 456 815 z "},"Х":{"ha":782,"x_min":41,"x_max":733,"o":"m 652 0 l 428 371 q 392 439 407 406 l 389 439 q 350 371 370 401 l 122 0 l 41 0 l 349 490 l 60 972 l 140 972 l 358 607 q 393 542 375 578 l 396 542 l 432 607 l 648 972 l 726 972 l 435 492 l 733 0 l 652 0 z "},"Ц":{"ha":974,"x_min":125,"x_max":939,"o":"m 873 -260 l 873 0 l 125 0 l 125 972 l 192 972 l 192 61 l 749 61 l 749 972 l 815 972 l 815 61 l 939 61 l 939 -260 l 873 -260 z "},"Ч":{"ha":851,"x_min":111,"x_max":726,"o":"m 660 0 l 660 440 q 507 389 583 410 q 353 367 431 367 q 243 384 289 367 q 169 433 198 401 q 125 508 139 465 q 111 604 111 551 l 111 972 l 178 972 l 178 614 q 223 476 178 525 q 359 428 269 428 q 506 448 429 428 q 660 498 583 467 l 660 972 l 726 972 l 726 0 l 660 0 z "},"Ш":{"ha":1204,"x_min":125,"x_max":1079,"o":"m 125 0 l 125 972 l 192 972 l 192 61 l 567 61 l 567 972 l 635 972 l 635 61 l 1011 61 l 1011 972 l 1079 972 l 1079 0 l 125 0 z "},"Щ":{"ha":1238,"x_min":125,"x_max":1203,"o":"m 1138 -260 l 1138 0 l 125 0 l 125 972 l 192 972 l 192 61 l 567 61 l 567 972 l 635 972 l 635 61 l 1011 61 l 1011 972 l 1079 972 l 1079 61 l 1203 61 l 1203 -260 l 1138 -260 z "},"Ъ":{"ha":965,"x_min":41,"x_max":882,"o":"m 882 281 q 863 172 882 223 q 807 83 844 121 q 715 22 770 45 q 590 0 661 0 l 322 0 l 322 911 l 41 911 l 41 972 l 389 972 l 389 541 l 610 541 q 716 526 667 541 q 803 480 766 511 q 861 400 840 449 q 882 281 882 351 m 812 275 q 797 369 812 330 q 751 432 781 408 q 675 468 720 456 q 572 479 631 479 l 389 479 l 389 61 l 576 61 q 684 77 639 61 q 757 122 728 94 q 799 190 785 151 q 812 275 812 229 z "},"Ы":{"ha":1047,"x_min":125,"x_max":922,"o":"m 856 0 l 856 972 l 922 972 l 922 0 l 856 0 m 685 281 q 666 172 685 223 q 610 83 647 121 q 518 22 573 45 q 393 0 464 0 l 125 0 l 125 972 l 192 972 l 192 541 l 412 541 q 520 526 470 541 q 606 480 570 511 q 664 400 643 449 q 685 281 685 351 m 615 275 q 600 369 615 330 q 553 432 584 408 q 478 468 523 456 q 375 479 433 479 l 192 479 l 192 61 l 379 61 q 486 77 441 61 q 559 122 531 94 q 602 190 588 151 q 615 275 615 229 z "},"Ь":{"ha":770,"x_min":125,"x_max":685,"o":"m 685 281 q 666 172 685 223 q 610 83 647 121 q 518 22 573 45 q 393 0 464 0 l 125 0 l 125 972 l 192 972 l 192 541 l 412 541 q 520 526 470 541 q 606 480 570 511 q 664 400 643 449 q 685 281 685 351 m 615 275 q 600 369 615 330 q 553 432 584 408 q 478 468 523 456 q 375 479 433 479 l 192 479 l 192 61 l 379 61 q 486 77 441 61 q 559 122 531 94 q 602 190 588 151 q 615 275 615 229 z "},"Э":{"ha":856,"x_min":85,"x_max":782,"o":"m 782 482 q 748 283 782 374 q 652 125 713 191 q 507 21 591 58 q 322 -17 422 -17 q 241 -12 277 -17 q 177 0 205 -7 q 126 15 149 7 q 85 31 103 23 l 85 97 q 189 60 127 75 q 326 45 250 45 q 467 69 399 45 q 589 144 536 94 q 676 273 643 195 q 713 456 710 350 l 235 456 l 235 518 l 711 518 q 676 681 705 606 q 594 811 646 756 q 469 897 543 866 q 302 928 396 928 q 180 914 233 928 q 85 882 127 901 l 85 947 q 126 961 103 954 q 177 974 149 968 q 237 985 204 981 q 307 989 269 989 q 492 957 406 989 q 643 861 578 925 q 745 703 707 798 q 782 482 782 608 z "},"Ю":{"ha":1349,"x_min":125,"x_max":1275,"o":"m 1275 501 q 1242 275 1275 372 q 1150 113 1208 178 q 1012 16 1092 48 q 839 -17 932 -17 q 653 21 734 -17 q 518 126 573 60 q 435 283 463 193 q 407 475 407 372 l 192 475 l 192 0 l 125 0 l 125 972 l 192 972 l 192 536 l 410 536 q 450 719 418 635 q 539 862 483 802 q 675 955 595 922 q 856 989 754 989 q 1029 952 952 989 q 1161 852 1107 916 q 1245 697 1216 787 q 1275 501 1275 608 m 1206 490 q 1179 681 1206 599 q 1104 817 1152 762 q 989 900 1056 872 q 843 928 922 928 q 697 897 764 928 q 581 808 630 865 q 504 668 532 750 q 476 484 476 585 q 502 301 476 382 q 575 163 528 220 q 688 75 622 106 q 836 45 755 45 q 985 73 918 45 q 1102 157 1053 101 q 1178 296 1151 213 q 1206 490 1206 380 z "},"Я":{"ha":771,"x_min":45,"x_max":646,"o":"m 579 0 l 579 433 l 437 433 q 371 422 399 433 q 321 392 342 412 q 282 344 299 372 q 249 282 265 316 l 121 0 l 45 0 l 188 307 q 218 361 203 338 q 249 401 233 385 q 281 430 265 418 q 314 449 298 441 l 314 452 q 230 477 271 458 q 159 528 190 496 q 109 604 127 559 q 90 707 90 649 q 97 765 90 734 q 120 825 104 795 q 159 881 135 854 q 216 928 183 908 q 293 961 250 949 q 390 972 336 972 l 646 972 l 646 0 l 579 0 m 579 911 l 397 911 q 285 892 330 911 q 211 844 239 873 q 171 779 183 815 q 159 707 159 742 q 181 607 159 648 q 238 542 203 567 q 318 506 273 517 q 410 494 363 494 l 579 494 l 579 911 z "},"а":{"ha":686,"x_min":72,"x_max":589,"o":"m 526 0 l 526 139 l 524 139 q 427 25 490 68 q 286 -17 363 -17 q 130 39 187 -17 q 72 179 72 94 q 313 399 72 361 l 526 431 q 358 654 526 654 q 135 562 243 654 l 135 637 q 240 690 174 668 q 364 711 306 711 q 530 645 471 711 q 589 452 589 578 l 589 0 l 526 0 m 335 346 q 182 295 226 330 q 138 182 138 260 q 179 80 138 120 q 293 40 220 40 q 460 114 393 40 q 526 306 526 189 l 526 374 l 335 346 z "},"б":{"ha":764,"x_min":90,"x_max":703,"o":"m 703 332 q 695 250 703 292 q 673 170 688 209 q 633 97 657 131 q 575 38 609 63 q 498 -2 542 12 q 400 -17 454 -17 q 266 13 324 -17 q 169 97 208 42 q 110 233 130 153 q 90 414 90 313 q 104 620 90 532 q 145 769 119 707 q 207 871 171 831 q 286 932 243 910 q 346 955 313 945 q 411 973 378 965 q 478 986 445 981 q 539 997 511 992 q 590 1010 563 1002 q 636 1031 617 1018 l 636 965 q 596 947 621 956 q 541 933 572 939 q 478 923 511 928 q 413 910 445 917 q 353 893 382 903 q 302 872 324 884 q 206 753 243 837 q 161 530 170 669 l 164 530 q 204 586 179 559 q 261 633 229 613 q 332 666 293 654 q 415 677 371 677 q 545 650 490 677 q 634 575 599 623 q 686 465 669 528 q 703 332 703 402 m 633 323 q 619 446 633 391 q 576 538 605 500 q 504 597 547 576 q 403 618 460 618 q 326 605 362 618 q 258 569 290 591 q 203 517 227 547 q 161 453 178 487 q 161 421 161 441 q 160 382 160 401 q 174 252 160 314 q 217 143 188 191 q 293 68 247 96 q 404 40 339 40 q 504 63 461 40 q 576 124 547 85 q 619 215 605 163 q 633 323 633 267 z "},"в":{"ha":665,"x_min":111,"x_max":603,"o":"m 603 199 q 588 118 603 155 q 545 56 572 82 q 478 15 517 29 q 395 0 440 0 l 111 0 l 111 694 l 375 694 q 465 682 427 694 q 527 646 503 669 q 563 593 551 624 q 575 528 575 563 q 566 468 575 496 q 540 419 557 441 q 499 382 524 397 q 446 361 475 367 q 514 343 484 357 q 563 308 543 329 q 593 258 583 286 q 603 199 603 231 m 510 518 q 503 564 510 542 q 479 602 496 585 q 435 628 462 618 q 367 637 408 637 l 174 637 l 174 386 l 350 386 q 427 397 396 386 q 476 427 458 408 q 502 469 494 446 q 510 518 510 493 m 538 193 q 529 246 538 221 q 499 289 519 271 q 444 318 478 307 q 359 329 410 329 l 174 329 l 174 57 l 382 57 q 450 67 420 57 q 498 95 479 77 q 528 138 518 113 q 538 193 538 163 z "},"г":{"ha":471,"x_min":111,"x_max":450,"o":"m 174 637 l 174 0 l 111 0 l 111 694 l 450 694 l 450 637 l 174 637 z "},"д":{"ha":729,"x_min":31,"x_max":699,"o":"m 642 -183 l 642 0 l 87 0 l 87 -183 l 31 -183 l 31 57 l 92 57 q 172 199 137 123 q 231 357 207 275 q 267 524 254 439 q 282 694 280 610 l 591 694 l 591 57 l 699 57 l 699 -183 l 642 -183 m 529 637 l 339 637 q 321 490 334 565 q 286 340 308 414 q 233 194 264 265 q 161 57 202 122 l 529 57 l 529 637 z "},"е":{"ha":701,"x_min":61,"x_max":640,"o":"m 126 345 q 192 121 126 201 q 374 40 258 40 q 602 126 490 40 l 602 60 q 361 -17 494 -17 q 144 79 227 -17 q 61 351 61 176 q 148 607 61 503 q 372 711 234 711 q 571 621 502 711 q 640 372 640 530 l 640 345 l 126 345 m 575 401 q 517 588 571 522 q 370 654 464 654 q 208 589 272 654 q 129 401 144 524 l 575 401 z "},"ж":{"ha":924,"x_min":14,"x_max":909,"o":"m 822 0 l 496 340 l 493 340 l 493 0 l 431 0 l 431 340 l 428 340 l 102 0 l 14 0 l 361 355 l 25 694 l 106 694 l 428 363 l 431 363 l 431 694 l 493 694 l 493 363 l 496 363 l 818 694 l 899 694 l 562 355 l 909 0 l 822 0 z "},"з":{"ha":635,"x_min":58,"x_max":572,"o":"m 572 193 q 557 115 572 153 q 507 48 542 77 q 416 1 473 18 q 277 -17 359 -17 q 218 -14 249 -17 q 158 -4 188 -10 q 103 11 129 2 q 58 29 77 19 l 58 94 q 110 71 82 81 q 166 54 137 61 q 223 44 195 47 q 278 40 252 40 q 390 52 346 40 q 461 84 435 64 q 497 131 487 104 q 507 186 507 157 q 491 255 507 227 q 446 300 475 283 q 374 323 416 317 q 279 330 332 330 l 184 330 l 184 387 l 271 387 q 422 420 372 387 q 472 525 472 454 q 461 577 472 553 q 428 618 450 601 q 371 645 406 635 q 289 654 336 654 q 175 640 232 654 q 72 603 119 625 l 72 664 q 117 681 92 672 q 171 696 142 689 q 231 707 199 703 q 297 711 263 711 q 409 696 363 711 q 483 656 454 681 q 525 598 512 631 q 538 533 538 566 q 500 422 538 466 q 393 366 463 378 l 393 363 q 469 347 436 361 q 526 311 503 333 q 561 258 549 288 q 572 193 572 228 z "},"и":{"ha":765,"x_min":111,"x_max":654,"o":"m 591 0 l 591 581 q 581 566 586 573 q 572 554 576 558 l 155 0 l 111 0 l 111 694 l 174 694 l 174 119 q 182 134 178 127 q 191 146 186 140 l 604 694 l 654 694 l 654 0 l 591 0 z "},"й":{"ha":765,"x_min":111,"x_max":654,"o":"m 591 0 l 591 581 q 581 566 586 573 q 572 554 576 558 l 155 0 l 111 0 l 111 694 l 174 694 l 174 119 q 182 134 178 127 q 191 146 186 140 l 604 694 l 654 694 l 654 0 l 591 0 m 378 859 q 449 870 418 859 q 504 901 481 882 q 539 947 526 921 q 556 1000 553 972 l 623 1000 q 597 929 616 964 q 548 867 578 894 q 475 823 517 840 q 378 807 432 807 q 283 823 323 807 q 214 867 242 840 q 170 929 186 894 q 146 1000 153 964 l 213 1000 q 228 947 216 972 q 260 901 239 921 q 309 870 280 882 q 377 859 338 859 l 378 859 z "},"к":{"ha":604,"x_min":111,"x_max":590,"o":"m 503 0 l 176 340 l 174 340 l 174 0 l 111 0 l 111 694 l 174 694 l 174 363 l 176 363 l 498 694 l 579 694 l 243 355 l 590 0 l 503 0 z "},"л":{"ha":696,"x_min":21,"x_max":585,"o":"m 522 0 l 522 637 l 319 637 q 289 362 308 483 q 240 159 271 242 q 166 34 210 77 q 60 -9 122 -9 q 39 -8 50 -9 q 21 -4 28 -6 l 21 52 q 39 48 26 50 q 58 46 51 46 q 138 89 104 46 q 196 213 172 131 q 237 417 220 296 q 264 694 254 538 l 585 694 l 585 0 l 522 0 z "},"м":{"ha":882,"x_min":111,"x_max":771,"o":"m 710 0 l 710 600 l 692 551 q 676 509 684 531 q 661 472 667 488 l 473 0 l 422 0 l 220 472 q 205 508 213 486 q 189 550 197 530 q 171 600 180 574 l 171 0 l 111 0 l 111 694 l 186 694 l 397 214 q 413 175 405 197 q 429 133 422 153 q 447 85 438 109 q 466 132 456 109 q 482 173 473 151 q 497 211 491 195 l 694 694 l 771 694 l 771 0 l 710 0 z "},"н":{"ha":757,"x_min":111,"x_max":646,"o":"m 583 0 l 583 332 l 174 332 l 174 0 l 111 0 l 111 694 l 174 694 l 174 389 l 583 389 l 583 694 l 646 694 l 646 0 l 583 0 z "},"о":{"ha":779,"x_min":61,"x_max":718,"o":"m 390 -17 q 150 83 238 -17 q 61 343 61 183 q 154 614 61 516 q 397 711 246 711 q 632 614 546 711 q 718 346 718 517 q 630 83 718 184 q 390 -17 543 -17 m 395 654 q 199 572 272 654 q 126 342 126 489 q 197 123 126 205 q 392 40 269 40 q 585 121 517 40 q 653 347 653 203 q 586 575 653 496 q 395 654 518 654 z "},"п":{"ha":757,"x_min":111,"x_max":646,"o":"m 583 0 l 583 637 l 174 637 l 174 0 l 111 0 l 111 694 l 646 694 l 646 0 l 583 0 z "}}}
